<svg xmlns="http://www.w3.org/2000/svg" width="277.461" height="344.496" viewBox="0 0 277.461 344.496">
  <g id="Group_2233" data-name="Group 2233" transform="translate(11003.389 -8226.201)">
    <g id="Group_2199" data-name="Group 2199">
      <g id="Group_2198" data-name="Group 2198" transform="translate(-11003.389 8226.201)">
        <g id="Group_1557" data-name="Group 1557" transform="translate(157.818 0)">
          <g id="Group_1556" data-name="Group 1556" transform="translate(0 2.72)">
            <g id="Group_1553" data-name="Group 1553" transform="translate(0 39.762)">
              <path id="Path_1153" data-name="Path 1153" d="M1918.968,1014.895m-38.682-53.367c.006.217.272,13.984-13.372,16.1-13.754,2.131-19.372,3.681-22.181,13.851s-12.2,80.586-12.5,92.838-4.84,14.973-1.966,23.9,4.385,12.4,5.444,10.738-.3-11.8.757-14.367,3.024-2.118,3.024-1.361-.3,5.747,1.058,4.537,2.874-10.285,2.573-12.251-3.026-3.932-2.118-7.713,9.83-31.307,9.982-45.07,8.317-27.828,8.317-27.828,5.748,27.332,3.934,37.162c-1.564,8.462-6.594,17.619-7.484,33.266,0,0-1.183,28.619,4.378,53.647s.926,44.03.926,47.275,6.952,30.589,8.343,39.4,4.018,17.3,3.553,23.173-5.715,10.042-4.634,13.6c0,0,.618.773,4.171.773s14.214.463,14.368-1.082,1.545-11.9.772-16.531-4.789-14.676-3.708-32.6-1.7-30.9-1.391-35.379,3.4-27.036,2.936-36.151,3.587-41.3,2.352-46.864h0s5.528,36.513,5.682,44.7,2.317,26.88,4.325,33.215-2.317,21.783-.772,30.126a242.568,242.568,0,0,1,2.935,29.818c.156,6.8-2.472,27.345-.309,29.662s23.792,1.146,23.792,1.146.154-3.772-2.163-4.391-9.115-5.561-8.96-14.676,2.471-25.337,3.4-33.216,2.008-28.272-.155-39.4,4.944-29.663,6.025-41.868,1.242-44.378,1.242-44.378c-.889-15.647-5.922-24.8-7.484-33.266-1.815-9.83,3.024-33.878,3.024-33.878l.571-3.284s8.167,14.065,8.318,27.828,9.075,41.29,9.983,45.07-1.816,5.746-2.118,7.713,1.21,11.041,2.571,12.251,1.059-3.781,1.059-4.537,1.966-1.209,3.025,1.361-.3,12.7.756,14.367,2.571-1.815,5.445-10.738-1.664-11.645-1.966-23.9-9.7-82.667-12.507-92.838-8.425-11.719-22.181-13.851l-2.193-.2c-7.675-1.188-7.8-4.331-8.653-7.05l-2.215-8.851Z" transform="translate(-1829.312 -961.528)" fill="#fff"/>
            </g>
            <g id="Group_1554" data-name="Group 1554" transform="translate(40.359)">
              <path id="Path_1154" data-name="Path 1154" d="M1891.988,945.968c-.128-6.124-3.974-9.4-7.789-11.134a18.407,18.407,0,0,0-15.194,0c-3.814,1.739-7.661,5.01-7.787,11.134-.256,12.25,1.143,24.2,4.576,26.817,2.659,2.026,5.012,4.053,8.007,5.361a7.031,7.031,0,0,0,5.6,0c2.993-1.308,5.346-3.334,8.006-5.361C1890.843,970.17,1892.243,958.218,1891.988,945.968Z" transform="translate(-1856.814 -933.194)" fill="#fff"/>
              <path id="Path_1155" data-name="Path 1155" d="M1863.177,948.8s-3.017-2.452-4.6.421.636,9.809,6.111,10.51Z" transform="translate(-1858.072 -927.294)" fill="#fff"/>
              <path id="Path_1156" data-name="Path 1156" d="M1883.071,948.8s3.016-2.452,4.6.421-.634,9.809-6.111,10.51Z" transform="translate(-1848.598 -927.294)" fill="#fff"/>
            </g>
            <path id="Path_1157" data-name="Path 1157" d="M1875.631,1057.479s14.052,6.771,23.308-4.027c0,0-.617,7.251-12.5,8.021S1875.631,1057.479,1875.631,1057.479Z" transform="translate(-1810.641 -884.692)" fill="#b4b2cc"/>
            <path id="Path_1158" data-name="Path 1158" d="M1875.166,1057.479s-14.051,6.771-23.307-4.027c0,0,.617,7.251,12.495,8.021S1875.166,1057.479,1875.166,1057.479Z" transform="translate(-1820.219 -884.692)" fill="#b4b2cc"/>
            <g id="Group_1555" data-name="Group 1555" transform="translate(59.053 58.371)">
              <path id="Path_1159" data-name="Path 1159" d="M1872.594,974.789l.421,30.132.316,30.132c.113,10.043.348,20.088.21,30.132-.192,10.044-.344,6.054-.947,16.1h-.211c-.6-10.043-.756-6.054-.947-16.1-.139-10.043.1-20.088.21-30.132l.316-30.132.421-30.132Z" transform="translate(-1871.393 -974.789)" fill="#b4b2cc"/>
            </g>
          </g>
          <path id="Path_1160" data-name="Path 1160" d="M1868.886,967.546a106.868,106.868,0,0,0,14.754,0s8.494-13.132,9.236-16.531c.707-3.233,5.083-22.063-21.179-19.525a14.582,14.582,0,0,0-10.307,5.606c-2.555,3.413-4.177,8.608-.435,15.734C1860.955,952.83,1863.633,958.121,1868.886,967.546Z" transform="translate(-1817.439 -931.256)" fill="#b4b2cc"/>
        </g>
        <g id="Group_1560" data-name="Group 1560" transform="translate(0 1.203)">
          <path id="Path_1161" data-name="Path 1161" d="M1754.769,940.972s4.365,3.661,23.34,5a85.582,85.582,0,0,1,0,9.406s2.042-.963,2.784-4.361c.707-3.233,5.083-22.063-21.18-19.525a14.587,14.587,0,0,0-10.307,5.606c-2.556,3.413-4.175,8.608-.434,15.734C1748.972,952.83,1754.476,950.706,1754.769,940.972Z" transform="translate(-1704.785 -931.256)" fill="#b4b2cc"/>
          <g id="Group_1558" data-name="Group 1558" transform="translate(0 40.556)">
            <path id="Path_1162" data-name="Path 1162" d="M1806.506,1013.522m-38.681-53.367c0,.219.273,13.984-13.373,16.1-13.754,2.13-19.372,3.681-22.181,13.851s-12.2,80.587-12.5,92.838-4.839,14.972-1.966,23.9,4.387,12.4,5.445,10.738-.3-11.8.756-14.369,3.026-2.116,3.026-1.361-.3,5.748,1.058,4.538,2.874-10.285,2.571-12.251-3.024-3.932-2.117-7.714,9.832-31.307,9.982-45.069,8.318-27.829,8.318-27.829,5.748,24.526,3.932,34.357c-1.562,8.461-6.593,20.424-7.484,36.072,0,0-1.183,28.619,4.378,53.648s.928,44.03.928,47.274,6.952,30.589,8.343,39.4,4.016,17.3,3.553,23.174-5.716,10.042-4.635,13.6c0,0,.619.771,4.172.771s14.213.465,14.367-1.08,1.545-11.9.773-16.531-4.789-14.677-3.707-32.6-1.7-30.9-1.391-35.379,3.4-27.036,2.934-36.152,1.545-41.558.31-47.12c0,0,1.39,1.39,4.017.464,0,0,3.553,36.305,3.707,44.493s2.318,26.882,4.326,33.216-2.318,21.784-.773,30.127a242.441,242.441,0,0,1,2.936,29.816c.155,6.8-2.471,27.345-.309,29.663s23.792,1.146,23.792,1.146.155-3.773-2.163-4.391-9.115-5.561-8.961-14.677,2.473-25.336,3.4-33.216,2.01-28.271-.154-39.395,4.944-29.662,6.025-41.868,1.242-44.377,1.242-44.377c-.891-15.648-5.922-27.612-7.484-36.072-1.814-9.831,3.024-31.073,3.024-31.073l.57-3.284s8.167,14.065,8.318,27.829,9.074,41.288,9.982,45.069-1.814,5.748-2.117,7.714,1.21,11.04,2.572,12.251,1.058-3.782,1.058-4.538,1.966-1.21,3.024,1.361-.3,12.7.756,14.369,2.573-1.815,5.445-10.738-1.663-11.646-1.966-23.9-9.7-82.668-12.505-92.838-8.427-11.72-22.181-13.851l-2.193-.2c-7.676-1.189-7.8-4.33-8.653-7.049l-2.216-8.852Z" transform="translate(-1716.851 -960.156)" fill="#fff"/>
          </g>
          <path id="Path_1163" data-name="Path 1163" d="M1765.237,967.646a32.211,32.211,0,0,0,6.8-4.426l-.768-3.063h-18.006a17.176,17.176,0,0,1-.306,3.155,31.633,31.633,0,0,0,6.678,4.335A7.021,7.021,0,0,0,1765.237,967.646Z" transform="translate(-1702.289 -919.6)" fill="#b4b2cc"/>
          <path id="Path_1164" data-name="Path 1164" d="M1779.526,944.6c-.126-6.126-3.973-9.4-7.787-11.134a18.4,18.4,0,0,0-15.194,0c-3.814,1.739-7.661,5.008-7.788,11.134-.254,12.248,1.145,24.2,4.577,26.816,2.659,2.026,5.013,4.053,8.006,5.361a7.02,7.02,0,0,0,5.6,0c2.995-1.308,5.348-3.334,8.007-5.361C1778.382,968.8,1779.781,956.846,1779.526,944.6Z" transform="translate(-1703.994 -931.027)" fill="#fff"/>
          <path id="Path_1165" data-name="Path 1165" d="M1750.715,947.425s-3.016-2.453-4.6.42.634,9.809,6.111,10.511Z" transform="translate(-1705.252 -925.128)" fill="#fff"/>
          <path id="Path_1166" data-name="Path 1166" d="M1770.61,947.425s3.016-2.453,4.6.42-.634,9.809-6.111,10.511Z" transform="translate(-1695.777 -925.128)" fill="#fff"/>
          <path id="Path_1167" data-name="Path 1167" d="M1757.8,955.663l2.009.506S1759.083,954.48,1757.8,955.663Z" transform="translate(-1700.337 -921.582)" fill="#b4b2cc"/>
          <path id="Path_1168" data-name="Path 1168" d="M1762.207,955.663l-2.01.506S1760.918,954.48,1762.207,955.663Z" transform="translate(-1699.369 -921.582)" fill="#b4b2cc"/>
          <path id="Path_1169" data-name="Path 1169" d="M1757.8,958.527h5.547s-.018,1.172-2.857,1.043C1757.854,959.449,1757.8,958.527,1757.8,958.527Z" transform="translate(-1700.337 -920.257)" fill="#b4b2cc"/>
          <path id="Path_1170" data-name="Path 1170" d="M1762.548,949.767a4.566,4.566,0,0,1,2.452-1.323c1.135,0,3.651.306,3.651.306S1766.932,951.12,1762.548,949.767Z" transform="translate(-1698.421 -924.324)" fill="#b4b2cc"/>
          <path id="Path_1171" data-name="Path 1171" d="M1758.573,949.767a4.567,4.567,0,0,0-2.452-1.323c-1.135,0-3.651.306-3.651.306S1754.189,951.12,1758.573,949.767Z" transform="translate(-1702.485 -924.324)" fill="#b4b2cc"/>
          <g id="Group_1559" data-name="Group 1559" transform="translate(34.185 62.079)">
            <path id="Path_1172" data-name="Path 1172" d="M1763.959,979.405s11.252-.978,18.1-3.912l1.9.474s-6.453,4.269-20,4.61Z" transform="translate(-1732.037 -975.493)" fill="#b4b2cc"/>
            <path id="Path_1173" data-name="Path 1173" d="M1761.215,979.405s-11.252-.978-18.1-3.912l-1.9.474s6.454,4.269,20,4.61Z" transform="translate(-1741.211 -975.493)" fill="#b4b2cc"/>
          </g>
          <path id="Path_1174" data-name="Path 1174" d="M1791.26,1016.387s3.44-2.613,5.228-2.751a7.751,7.751,0,0,0-5.069.912,5.467,5.467,0,0,0-3-.3S1791.014,1015.678,1791.26,1016.387Z" transform="translate(-1687.987 -898.072)" fill="#b4b2cc"/>
          <path id="Path_1175" data-name="Path 1175" d="M1729.792,1016.387s-3.439-2.613-5.227-2.751a7.751,7.751,0,0,1,5.069.912,5.464,5.464,0,0,1,3-.3S1730.036,1015.678,1729.792,1016.387Z" transform="translate(-1713.74 -898.072)" fill="#b4b2cc"/>
          <path id="Path_1176" data-name="Path 1176" d="M1765.484,1057.443c2.683-1.318,11.8-5.88,16.641-9.412a.588.588,0,0,1,.826.815c-2.583,3.7-8.242,6.836-16.52,11.169-.792.414-1.709-.446-1.709-1.34h0A1.363,1.363,0,0,1,1765.484,1057.443Z" transform="translate(-1697.544 -884.207)" fill="#b4b2cc"/>
          <path id="Path_1177" data-name="Path 1177" d="M1759.086,1057.443c-2.685-1.318-11.8-5.88-16.642-9.412a.588.588,0,0,0-.825.815c2.582,3.7,8.241,6.836,16.52,11.169.791.414,1.708-.446,1.708-1.34h0A1.365,1.365,0,0,0,1759.086,1057.443Z" transform="translate(-1706.907 -884.207)" fill="#b4b2cc"/>
          <path id="Path_1178" data-name="Path 1178" d="M1761.343,1003.716s15.757,4.171,23.173-3.94c0,0-3.395,6.257-8.765,6.721s-14.407-1.622-14.407-1.622S1759.6,1003.34,1761.343,1003.716Z" transform="translate(-1699.218 -903.621)" fill="#b4b2cc"/>
          <path id="Path_1179" data-name="Path 1179" d="M1763.617,1003.716s-15.758,4.171-23.173-3.94c0,0,3.395,6.257,8.765,6.721s14.408-1.622,14.408-1.622S1765.357,1003.34,1763.617,1003.716Z" transform="translate(-1707.336 -903.621)" fill="#b4b2cc"/>
          <path id="Path_1180" data-name="Path 1180" d="M1754.769,940.972s4.365,3.661,23.34,5a85.582,85.582,0,0,1,0,9.406s2.042-.963,2.784-4.361c.707-3.233,5.083-22.063-21.18-19.525a14.587,14.587,0,0,0-10.307,5.606c-2.556,3.413-4.175,8.608-.434,15.734C1748.972,952.83,1754.476,950.706,1754.769,940.972Z" transform="translate(-1704.785 -931.256)" fill="#b4b2cc"/>
        </g>
      </g>
    </g>
  </g>
</svg>
