<svg xmlns="http://www.w3.org/2000/svg" width="512.111" height="550.938" viewBox="0 0 512.111 550.938">
  <g id="Group_2191" data-name="Group 2191" transform="translate(10323.111 -5583)">
    <circle id="Ellipse_1030" data-name="Ellipse 1030" cx="251" cy="251" r="251" transform="translate(-10313 5583)" fill="#fcdfda"/>
    <rect id="Rectangle_1287" data-name="Rectangle 1287" width="19.821" height="152.115" transform="translate(-10183.591 5640.193)" fill="#ffe4de"/>
    <rect id="Rectangle_1286" data-name="Rectangle 1286" width="109.357" height="14.981" transform="translate(-10183.591 5777.328)" fill="#ffe4de"/>
    <g id="Group_2189" data-name="Group 2189" transform="translate(-10164.503 5617.993)">
      <rect id="Rectangle_1188" data-name="Rectangle 1188" width="127.049" height="159.335" fill="#f6cfc6" stroke="#fff" stroke-miterlimit="10" stroke-width="1"/>
      <g id="Group_1933" data-name="Group 1933" transform="translate(20.544 34.457)">
        <g id="Group_1929" data-name="Group 1929" transform="translate(50.484 0.615)">
          <g id="Group_1928" data-name="Group 1928">
            <g id="Group_1925" data-name="Group 1925" transform="translate(0 12.719)">
              <path id="Path_1794" data-name="Path 1794" d="M-260.335,1751.9m-12.373-17.072c0,.071.087,4.474-4.279,5.151-4.4.681-6.2,1.178-7.094,4.43s-3.9,25.78-4,29.7-1.547,4.79-.629,7.645,1.4,3.968,1.742,3.435-.1-3.774.242-4.6.968-.677.968-.435-.1,1.838.338,1.451.92-3.289.824-3.918-.968-1.257-.678-2.467,3.145-10.016,3.193-14.418,2.661-8.9,2.661-8.9,1.838,8.743,1.258,11.887c-.5,2.708-2.108,5.636-2.394,10.641a77.379,77.379,0,0,0,1.4,17.162,41.216,41.216,0,0,1,.3,15.122c0,1.039,2.224,9.786,2.669,12.6s1.286,5.535,1.137,7.412-1.829,3.214-1.483,4.35c0,0,.2.247,1.335.247s4.546.148,4.6-.346a26.718,26.718,0,0,0,.248-5.288,31.5,31.5,0,0,1-1.187-10.428c.346-5.732-.543-9.883-.445-11.317s1.087-8.648.939-11.564,1.148-13.211.753-14.991h0s1.768,11.68,1.817,14.3a57.665,57.665,0,0,0,1.384,10.626c.642,2.025-.741,6.967-.247,9.636a77.671,77.671,0,0,1,.938,9.539c.049,2.174-.79,8.747-.1,9.488s7.611.367,7.611.367.049-1.207-.692-1.4a4.938,4.938,0,0,1-2.866-4.7c.049-2.916.79-8.105,1.087-10.626s.642-9.044-.049-12.6,1.581-9.488,1.928-13.393.4-14.2.4-14.2c-.284-5.005-1.894-7.934-2.394-10.641-.581-3.144.968-10.838.968-10.838l.182-1.049s2.613,4.5,2.661,8.9,2.9,13.209,3.193,14.418-.581,1.838-.677,2.467.387,3.531.822,3.918.339-1.209.339-1.451.629-.387.967.435-.1,4.064.243,4.6.822-.581,1.741-3.435-.531-3.725-.629-7.645-3.1-26.444-4-29.7-2.7-3.749-7.1-4.43l-.7-.064c-2.455-.38-2.5-1.384-2.767-2.255l-.709-2.832Z" transform="translate(289.014 -1734.826)" fill="#fff"/>
            </g>
            <g id="Group_1926" data-name="Group 1926" transform="translate(12.91)">
              <path id="Path_1795" data-name="Path 1795" d="M-268.444,1729.386a3.869,3.869,0,0,0-2.491-3.562,5.887,5.887,0,0,0-4.859,0,3.869,3.869,0,0,0-2.491,3.562c-.081,3.918.366,7.742,1.463,8.579a12.664,12.664,0,0,0,2.562,1.714,2.246,2.246,0,0,0,1.792,0,12.7,12.7,0,0,0,2.561-1.714C-268.81,1737.127-268.362,1733.3-268.444,1729.386Z" transform="translate(279.695 -1725.299)" fill="#fff"/>
              <path id="Path_1796" data-name="Path 1796" d="M-277.711,1730.529s-.964-.783-1.473.135a2.606,2.606,0,0,0,1.956,3.362Z" transform="translate(279.344 -1723.651)" fill="#fff"/>
              <path id="Path_1797" data-name="Path 1797" d="M-270.962,1730.529s.964-.783,1.473.135a2.606,2.606,0,0,1-1.956,3.362Z" transform="translate(281.99 -1723.651)" fill="#fff"/>
            </g>
            <path id="Path_1798" data-name="Path 1798" d="M-273.44,1767.025s4.495,2.165,7.456-1.288c0,0-.2,2.319-4,2.566S-273.44,1767.025-273.44,1767.025Z" transform="translate(294.229 -1711.752)" fill="#f6cfc6"/>
            <path id="Path_1799" data-name="Path 1799" d="M-273.977,1767.025s-4.5,2.165-7.456-1.288c0,0,.2,2.319,4,2.566S-273.977,1767.025-273.977,1767.025Z" transform="translate(291.554 -1711.752)" fill="#f6cfc6"/>
            <g id="Group_1927" data-name="Group 1927" transform="translate(18.891 18.673)">
              <path id="Path_1800" data-name="Path 1800" d="M-274.481,1739.286l.135,9.638.1,9.639c.036,3.213.111,6.427.067,9.639-.061,3.214-.109,1.937-.3,5.15h-.067c-.194-3.212-.242-1.936-.3-5.15-.044-3.212.031-6.425.067-9.639l.1-9.639.135-9.638Z" transform="translate(274.864 -1739.286)" fill="#f6cfc6"/>
            </g>
          </g>
        </g>
        <g id="Group_1932" data-name="Group 1932">
          <g id="Group_1930" data-name="Group 1930" transform="translate(0 12.719)">
            <path id="Path_1801" data-name="Path 1801" d="M-298.15,1751.436m-12.373-17.071c0,.069.087,4.474-4.279,5.15-4.4.682-6.2,1.177-7.094,4.431s-3.9,25.78-4,29.7-1.547,4.79-.629,7.644,1.4,3.967,1.742,3.435-.1-3.774.242-4.6.968-.677.968-.435-.1,1.839.338,1.451.92-3.29.824-3.918-.968-1.257-.678-2.467,3.145-10.015,3.193-14.418,2.661-8.9,2.661-8.9,1.838,7.846,1.258,10.991c-.5,2.706-2.108,6.534-2.394,11.539a77.37,77.37,0,0,0,1.4,17.161,41.221,41.221,0,0,1,.3,15.123c0,1.037,2.224,9.786,2.669,12.6s1.286,5.535,1.137,7.412-1.829,3.214-1.483,4.349c0,0,.2.247,1.335.247s4.546.148,4.6-.346a26.833,26.833,0,0,0,.248-5.288,31.5,31.5,0,0,1-1.187-10.428c.346-5.733-.543-9.885-.445-11.317s1.087-8.648.939-11.564.494-13.294.1-15.074a1.231,1.231,0,0,0,1.286.148s1.136,11.613,1.185,14.233a57.544,57.544,0,0,0,1.384,10.626c.642,2.026-.742,6.969-.247,9.637a77.659,77.659,0,0,1,.939,9.537c.049,2.175-.79,8.749-.1,9.489s7.611.367,7.611.367.049-1.207-.693-1.4a4.944,4.944,0,0,1-2.866-4.7c.049-2.916.792-8.105,1.088-10.625s.642-9.044-.049-12.6,1.581-9.488,1.928-13.393.4-14.2.4-14.2c-.284-5-1.894-8.832-2.394-11.539-.581-3.145.968-9.941.968-9.941l.182-1.051s2.613,4.5,2.661,8.9,2.9,13.209,3.193,14.418-.581,1.838-.677,2.467.387,3.531.822,3.918.339-1.209.339-1.451.629-.387.967.435-.1,4.064.242,4.6.824-.581,1.742-3.435-.531-3.726-.629-7.644-3.1-26.444-4-29.7-2.7-3.749-7.1-4.431l-.7-.063c-2.455-.38-2.5-1.385-2.768-2.255l-.709-2.832Z" transform="translate(326.829 -1734.365)" fill="#fff"/>
          </g>
          <path id="Path_1802" data-name="Path 1802" d="M-310.76,1736.762a10.323,10.323,0,0,0,2.175-1.417l-.246-.98h-5.759a5.6,5.6,0,0,1-.1,1.009,10.106,10.106,0,0,0,2.137,1.387A2.25,2.25,0,0,0-310.76,1736.762Z" transform="translate(330.897 -1721.646)" fill="#f6cfc6"/>
          <path id="Path_1803" data-name="Path 1803" d="M-306.259,1728.925a3.868,3.868,0,0,0-2.491-3.562,5.889,5.889,0,0,0-4.86,0,3.868,3.868,0,0,0-2.491,3.562c-.081,3.918.366,7.742,1.463,8.577a12.657,12.657,0,0,0,2.562,1.715,2.248,2.248,0,0,0,1.792,0,12.684,12.684,0,0,0,2.561-1.715C-306.625,1736.667-306.177,1732.843-306.259,1728.925Z" transform="translate(330.42 -1724.838)" fill="#fff"/>
          <path id="Path_1804" data-name="Path 1804" d="M-315.526,1730.068s-.964-.784-1.473.135a2.606,2.606,0,0,0,1.956,3.362Z" transform="translate(330.069 -1723.19)" fill="#fff"/>
          <path id="Path_1805" data-name="Path 1805" d="M-308.778,1730.068s.965-.784,1.474.135a2.607,2.607,0,0,1-1.956,3.362Z" transform="translate(332.715 -1723.19)" fill="#fff"/>
          <path id="Path_1806" data-name="Path 1806" d="M-313.062,1732.848l.644.161S-312.649,1732.469-313.062,1732.848Z" transform="translate(331.442 -1722.2)" fill="#f6cfc6"/>
          <path id="Path_1807" data-name="Path 1807" d="M-311.611,1732.848l-.644.161S-312.023,1732.469-311.611,1732.848Z" transform="translate(331.712 -1722.2)" fill="#f6cfc6"/>
          <path id="Path_1808" data-name="Path 1808" d="M-313.062,1733.817h1.776s-.007.375-.914.334C-313.043,1734.112-313.062,1733.817-313.062,1733.817Z" transform="translate(331.442 -1721.83)" fill="#f6cfc6"/>
          <path id="Path_1809" data-name="Path 1809" d="M-311.464,1730.85a1.464,1.464,0,0,1,.785-.423c.363,0,1.168.1,1.168.1S-310.061,1731.283-311.464,1730.85Z" transform="translate(331.977 -1722.966)" fill="#f6cfc6"/>
          <path id="Path_1810" data-name="Path 1810" d="M-312.9,1730.85a1.459,1.459,0,0,0-.784-.423c-.364,0-1.168.1-1.168.1S-314.3,1731.283-312.9,1730.85Z" transform="translate(330.842 -1722.966)" fill="#f6cfc6"/>
          <g id="Group_1931" data-name="Group 1931" transform="translate(10.936 19.604)">
            <path id="Path_1811" data-name="Path 1811" d="M-310.989,1740.775a23.593,23.593,0,0,0,5.79-1.252l.609.152s-2.064,1.366-6.4,1.474Z" transform="translate(321.201 -1739.522)" fill="#f6cfc6"/>
            <path id="Path_1812" data-name="Path 1812" d="M-312.239,1740.775a23.594,23.594,0,0,1-5.79-1.252l-.609.152s2.064,1.366,6.4,1.474Z" transform="translate(318.638 -1739.522)" fill="#f6cfc6"/>
          </g>
          <path id="Path_1813" data-name="Path 1813" d="M-301.856,1753.226a5.047,5.047,0,0,1,1.673-.88,2.478,2.478,0,0,0-1.622.292,1.753,1.753,0,0,0-.96-.1S-301.935,1753-301.856,1753.226Z" transform="translate(334.891 -1715.633)" fill="#f6cfc6"/>
          <path id="Path_1814" data-name="Path 1814" d="M-322.563,1753.226a5.048,5.048,0,0,0-1.673-.88,2.478,2.478,0,0,1,1.622.292,1.753,1.753,0,0,1,.96-.1S-322.484,1753-322.563,1753.226Z" transform="translate(327.698 -1715.633)" fill="#f6cfc6"/>
          <path id="Path_1815" data-name="Path 1815" d="M-310.489,1766.922a44.713,44.713,0,0,0,5.323-3.011.188.188,0,0,1,.264.26c-.825,1.184-2.637,2.187-5.284,3.572-.254.132-.547-.143-.547-.428h0A.435.435,0,0,1-310.489,1766.922Z" transform="translate(332.222 -1711.76)" fill="#f6cfc6"/>
          <path id="Path_1816" data-name="Path 1816" d="M-312.916,1766.922a44.708,44.708,0,0,1-5.323-3.011.188.188,0,0,0-.264.26c.826,1.184,2.637,2.187,5.284,3.572.254.132.547-.143.547-.428h0A.435.435,0,0,0-312.916,1766.922Z" transform="translate(329.607 -1711.76)" fill="#f6cfc6"/>
          <path id="Path_1817" data-name="Path 1817" d="M-311.882,1748.947s5.041,1.335,7.413-1.26c0,0-1.085,2-2.8,2.151a19.6,19.6,0,0,1-4.61-.519S-312.439,1748.827-311.882,1748.947Z" transform="translate(331.754 -1717.183)" fill="#f6cfc6"/>
          <path id="Path_1818" data-name="Path 1818" d="M-311.484,1748.947s-5.04,1.335-7.412-1.26c0,0,1.085,2,2.8,2.151a19.586,19.586,0,0,0,4.609-.519S-310.927,1748.827-311.484,1748.947Z" transform="translate(329.487 -1717.183)" fill="#f6cfc6"/>
        </g>
      </g>
      <rect id="Rectangle_1190" data-name="Rectangle 1190" width="50.023" height="2.871" transform="translate(13.474 14.264)" fill="#fff"/>
      <rect id="Rectangle_1191" data-name="Rectangle 1191" width="50.023" height="2.871" transform="translate(13.474 20.765)" fill="#fff"/>
    </g>
    <path id="Path_1798-2" data-name="Path 1798" d="M-260.688,1980.534s-18.267-157.6,14.713-181.987,132.089-29.475,132.108,50.506-17.242,187.788-17.242,187.788Z" transform="translate(-9796.661 3947.002)" fill="#b4b2cc"/>
    <g id="Group_1875" data-name="Group 1875" transform="translate(-10283.744 5771.245)">
      <g id="Group_1874" data-name="Group 1874">
        <g id="Group_1870" data-name="Group 1870" opacity="0.5">
          <ellipse id="Ellipse_963" data-name="Ellipse 963" cx="2.358" cy="2.358" rx="2.358" ry="2.358" fill="#fff"/>
          <ellipse id="Ellipse_964" data-name="Ellipse 964" cx="2.358" cy="2.358" rx="2.358" ry="2.358" transform="translate(0 10.779)" fill="#fff"/>
          <ellipse id="Ellipse_965" data-name="Ellipse 965" cx="2.358" cy="2.358" rx="2.358" ry="2.358" transform="translate(0 21.558)" fill="#fff"/>
          <ellipse id="Ellipse_966" data-name="Ellipse 966" cx="2.358" cy="2.358" rx="2.358" ry="2.358" transform="translate(0 32.337)" fill="#fff"/>
        </g>
        <g id="Group_1871" data-name="Group 1871" transform="translate(9.432)" opacity="0.5">
          <ellipse id="Ellipse_967" data-name="Ellipse 967" cx="2.358" cy="2.358" rx="2.358" ry="2.358" fill="#fff"/>
          <ellipse id="Ellipse_968" data-name="Ellipse 968" cx="2.358" cy="2.358" rx="2.358" ry="2.358" transform="translate(0 10.779)" fill="#fff"/>
          <ellipse id="Ellipse_969" data-name="Ellipse 969" cx="2.358" cy="2.358" rx="2.358" ry="2.358" transform="translate(0 21.558)" fill="#fff"/>
          <ellipse id="Ellipse_970" data-name="Ellipse 970" cx="2.358" cy="2.358" rx="2.358" ry="2.358" transform="translate(0 32.337)" fill="#fff"/>
        </g>
        <g id="Group_1872" data-name="Group 1872" transform="translate(18.864)" opacity="0.5">
          <ellipse id="Ellipse_971" data-name="Ellipse 971" cx="2.358" cy="2.358" rx="2.358" ry="2.358" fill="#fff"/>
          <ellipse id="Ellipse_972" data-name="Ellipse 972" cx="2.358" cy="2.358" rx="2.358" ry="2.358" transform="translate(0 10.779)" fill="#fff"/>
          <ellipse id="Ellipse_973" data-name="Ellipse 973" cx="2.358" cy="2.358" rx="2.358" ry="2.358" transform="translate(0 21.558)" fill="#fff"/>
          <ellipse id="Ellipse_974" data-name="Ellipse 974" cx="2.358" cy="2.358" rx="2.358" ry="2.358" transform="translate(0 32.337)" fill="#fff"/>
        </g>
        <g id="Group_1873" data-name="Group 1873" transform="translate(28.295)" opacity="0.5">
          <ellipse id="Ellipse_975" data-name="Ellipse 975" cx="2.358" cy="2.358" rx="2.358" ry="2.358" fill="#fff"/>
          <ellipse id="Ellipse_976" data-name="Ellipse 976" cx="2.358" cy="2.358" rx="2.358" ry="2.358" transform="translate(0 10.779)" fill="#fff"/>
          <ellipse id="Ellipse_977" data-name="Ellipse 977" cx="2.358" cy="2.358" rx="2.358" ry="2.358" transform="translate(0 21.558)" fill="#fff"/>
          <ellipse id="Ellipse_978" data-name="Ellipse 978" cx="2.358" cy="2.358" rx="2.358" ry="2.358" transform="translate(0 32.337)" fill="#fff"/>
        </g>
      </g>
    </g>
    <g id="Group_1875-2" data-name="Group 1875" transform="translate(-10323.111 5771.245)">
      <g id="Group_1874-2" data-name="Group 1874">
        <g id="Group_1870-2" data-name="Group 1870" opacity="0.5">
          <ellipse id="Ellipse_963-2" data-name="Ellipse 963" cx="2.358" cy="2.358" rx="2.358" ry="2.358" fill="#fff"/>
          <ellipse id="Ellipse_964-2" data-name="Ellipse 964" cx="2.358" cy="2.358" rx="2.358" ry="2.358" transform="translate(0 10.779)" fill="#fff"/>
          <ellipse id="Ellipse_965-2" data-name="Ellipse 965" cx="2.358" cy="2.358" rx="2.358" ry="2.358" transform="translate(0 21.558)" fill="#fff"/>
          <ellipse id="Ellipse_966-2" data-name="Ellipse 966" cx="2.358" cy="2.358" rx="2.358" ry="2.358" transform="translate(0 32.337)" fill="#fff"/>
        </g>
        <g id="Group_1871-2" data-name="Group 1871" transform="translate(9.432)" opacity="0.5">
          <ellipse id="Ellipse_967-2" data-name="Ellipse 967" cx="2.358" cy="2.358" rx="2.358" ry="2.358" fill="#fff"/>
          <ellipse id="Ellipse_968-2" data-name="Ellipse 968" cx="2.358" cy="2.358" rx="2.358" ry="2.358" transform="translate(0 10.779)" fill="#fff"/>
          <ellipse id="Ellipse_969-2" data-name="Ellipse 969" cx="2.358" cy="2.358" rx="2.358" ry="2.358" transform="translate(0 21.558)" fill="#fff"/>
          <ellipse id="Ellipse_970-2" data-name="Ellipse 970" cx="2.358" cy="2.358" rx="2.358" ry="2.358" transform="translate(0 32.337)" fill="#fff"/>
        </g>
        <g id="Group_1872-2" data-name="Group 1872" transform="translate(18.864)" opacity="0.5">
          <ellipse id="Ellipse_971-2" data-name="Ellipse 971" cx="2.358" cy="2.358" rx="2.358" ry="2.358" fill="#fff"/>
          <ellipse id="Ellipse_972-2" data-name="Ellipse 972" cx="2.358" cy="2.358" rx="2.358" ry="2.358" transform="translate(0 10.779)" fill="#fff"/>
          <ellipse id="Ellipse_973-2" data-name="Ellipse 973" cx="2.358" cy="2.358" rx="2.358" ry="2.358" transform="translate(0 21.558)" fill="#fff"/>
          <ellipse id="Ellipse_974-2" data-name="Ellipse 974" cx="2.358" cy="2.358" rx="2.358" ry="2.358" transform="translate(0 32.337)" fill="#fff"/>
        </g>
        <g id="Group_1873-2" data-name="Group 1873" transform="translate(28.295)" opacity="0.5">
          <ellipse id="Ellipse_975-2" data-name="Ellipse 975" cx="2.358" cy="2.358" rx="2.358" ry="2.358" fill="#fff"/>
          <ellipse id="Ellipse_976-2" data-name="Ellipse 976" cx="2.358" cy="2.358" rx="2.358" ry="2.358" transform="translate(0 10.779)" fill="#fff"/>
          <ellipse id="Ellipse_977-2" data-name="Ellipse 977" cx="2.358" cy="2.358" rx="2.358" ry="2.358" transform="translate(0 21.558)" fill="#fff"/>
          <ellipse id="Ellipse_978-2" data-name="Ellipse 978" cx="2.358" cy="2.358" rx="2.358" ry="2.358" transform="translate(0 32.337)" fill="#fff"/>
        </g>
      </g>
    </g>
    <g id="Group_1881" data-name="Group 1881" transform="translate(-10283.744 5813.647)">
      <g id="Group_1880" data-name="Group 1880">
        <g id="Group_1876" data-name="Group 1876" opacity="0.5">
          <ellipse id="Ellipse_979" data-name="Ellipse 979" cx="2.358" cy="2.358" rx="2.358" ry="2.358" fill="#fff"/>
          <ellipse id="Ellipse_980" data-name="Ellipse 980" cx="2.358" cy="2.358" rx="2.358" ry="2.358" transform="translate(0 10.779)" fill="#fff"/>
          <ellipse id="Ellipse_981" data-name="Ellipse 981" cx="2.358" cy="2.358" rx="2.358" ry="2.358" transform="translate(0 21.559)" fill="#fff"/>
          <ellipse id="Ellipse_982" data-name="Ellipse 982" cx="2.358" cy="2.358" rx="2.358" ry="2.358" transform="translate(0 32.338)" fill="#fff"/>
        </g>
        <g id="Group_1877" data-name="Group 1877" transform="translate(9.432)" opacity="0.5">
          <ellipse id="Ellipse_983" data-name="Ellipse 983" cx="2.358" cy="2.358" rx="2.358" ry="2.358" fill="#fff"/>
          <ellipse id="Ellipse_984" data-name="Ellipse 984" cx="2.358" cy="2.358" rx="2.358" ry="2.358" transform="translate(0 10.779)" fill="#fff"/>
          <ellipse id="Ellipse_985" data-name="Ellipse 985" cx="2.358" cy="2.358" rx="2.358" ry="2.358" transform="translate(0 21.559)" fill="#fff"/>
          <ellipse id="Ellipse_986" data-name="Ellipse 986" cx="2.358" cy="2.358" rx="2.358" ry="2.358" transform="translate(0 32.338)" fill="#fff"/>
        </g>
        <g id="Group_1878" data-name="Group 1878" transform="translate(18.864)" opacity="0.5">
          <ellipse id="Ellipse_987" data-name="Ellipse 987" cx="2.358" cy="2.358" rx="2.358" ry="2.358" fill="#fff"/>
          <ellipse id="Ellipse_988" data-name="Ellipse 988" cx="2.358" cy="2.358" rx="2.358" ry="2.358" transform="translate(0 10.779)" fill="#fff"/>
          <ellipse id="Ellipse_989" data-name="Ellipse 989" cx="2.358" cy="2.358" rx="2.358" ry="2.358" transform="translate(0 21.559)" fill="#fff"/>
          <ellipse id="Ellipse_990" data-name="Ellipse 990" cx="2.358" cy="2.358" rx="2.358" ry="2.358" transform="translate(0 32.338)" fill="#fff"/>
        </g>
        <g id="Group_1879" data-name="Group 1879" transform="translate(28.295)" opacity="0.5">
          <ellipse id="Ellipse_991" data-name="Ellipse 991" cx="2.358" cy="2.358" rx="2.358" ry="2.358" fill="#fff"/>
          <ellipse id="Ellipse_992" data-name="Ellipse 992" cx="2.358" cy="2.358" rx="2.358" ry="2.358" transform="translate(0 10.779)" fill="#fff"/>
          <ellipse id="Ellipse_993" data-name="Ellipse 993" cx="2.358" cy="2.358" rx="2.358" ry="2.358" transform="translate(0 21.559)" fill="#fff"/>
          <ellipse id="Ellipse_994" data-name="Ellipse 994" cx="2.358" cy="2.358" rx="2.358" ry="2.358" transform="translate(0 32.338)" fill="#fff"/>
        </g>
      </g>
    </g>
    <g id="Group_1881-2" data-name="Group 1881" transform="translate(-10323.111 5813.647)">
      <g id="Group_1880-2" data-name="Group 1880">
        <g id="Group_1876-2" data-name="Group 1876" opacity="0.5">
          <ellipse id="Ellipse_979-2" data-name="Ellipse 979" cx="2.358" cy="2.358" rx="2.358" ry="2.358" fill="#fff"/>
          <ellipse id="Ellipse_980-2" data-name="Ellipse 980" cx="2.358" cy="2.358" rx="2.358" ry="2.358" transform="translate(0 10.779)" fill="#fff"/>
          <ellipse id="Ellipse_981-2" data-name="Ellipse 981" cx="2.358" cy="2.358" rx="2.358" ry="2.358" transform="translate(0 21.559)" fill="#fff"/>
          <ellipse id="Ellipse_982-2" data-name="Ellipse 982" cx="2.358" cy="2.358" rx="2.358" ry="2.358" transform="translate(0 32.338)" fill="#fff"/>
        </g>
        <g id="Group_1877-2" data-name="Group 1877" transform="translate(9.432)" opacity="0.5">
          <ellipse id="Ellipse_983-2" data-name="Ellipse 983" cx="2.358" cy="2.358" rx="2.358" ry="2.358" fill="#fff"/>
          <ellipse id="Ellipse_984-2" data-name="Ellipse 984" cx="2.358" cy="2.358" rx="2.358" ry="2.358" transform="translate(0 10.779)" fill="#fff"/>
          <ellipse id="Ellipse_985-2" data-name="Ellipse 985" cx="2.358" cy="2.358" rx="2.358" ry="2.358" transform="translate(0 21.559)" fill="#fff"/>
          <ellipse id="Ellipse_986-2" data-name="Ellipse 986" cx="2.358" cy="2.358" rx="2.358" ry="2.358" transform="translate(0 32.338)" fill="#fff"/>
        </g>
        <g id="Group_1878-2" data-name="Group 1878" transform="translate(18.864)" opacity="0.5">
          <ellipse id="Ellipse_987-2" data-name="Ellipse 987" cx="2.358" cy="2.358" rx="2.358" ry="2.358" fill="#fff"/>
          <ellipse id="Ellipse_988-2" data-name="Ellipse 988" cx="2.358" cy="2.358" rx="2.358" ry="2.358" transform="translate(0 10.779)" fill="#fff"/>
          <ellipse id="Ellipse_989-2" data-name="Ellipse 989" cx="2.358" cy="2.358" rx="2.358" ry="2.358" transform="translate(0 21.559)" fill="#fff"/>
          <ellipse id="Ellipse_990-2" data-name="Ellipse 990" cx="2.358" cy="2.358" rx="2.358" ry="2.358" transform="translate(0 32.338)" fill="#fff"/>
        </g>
        <g id="Group_1879-2" data-name="Group 1879" transform="translate(28.295)" opacity="0.5">
          <ellipse id="Ellipse_991-2" data-name="Ellipse 991" cx="2.358" cy="2.358" rx="2.358" ry="2.358" fill="#fff"/>
          <ellipse id="Ellipse_992-2" data-name="Ellipse 992" cx="2.358" cy="2.358" rx="2.358" ry="2.358" transform="translate(0 10.779)" fill="#fff"/>
          <ellipse id="Ellipse_993-2" data-name="Ellipse 993" cx="2.358" cy="2.358" rx="2.358" ry="2.358" transform="translate(0 21.559)" fill="#fff"/>
          <ellipse id="Ellipse_994-2" data-name="Ellipse 994" cx="2.358" cy="2.358" rx="2.358" ry="2.358" transform="translate(0 32.338)" fill="#fff"/>
        </g>
      </g>
    </g>
    <g id="Group_1887" data-name="Group 1887" transform="translate(-9900.734 5974.51)">
      <g id="Group_1886" data-name="Group 1886">
        <g id="Group_1882" data-name="Group 1882" opacity="0.5">
          <ellipse id="Ellipse_995" data-name="Ellipse 995" cx="2.564" cy="2.564" rx="2.564" ry="2.564" fill="#fff"/>
          <ellipse id="Ellipse_996" data-name="Ellipse 996" cx="2.564" cy="2.564" rx="2.564" ry="2.564" transform="translate(0 11.724)" fill="#fff"/>
          <ellipse id="Ellipse_997" data-name="Ellipse 997" cx="2.564" cy="2.564" rx="2.564" ry="2.564" transform="translate(0 23.448)" fill="#fff"/>
          <ellipse id="Ellipse_998" data-name="Ellipse 998" cx="2.564" cy="2.564" rx="2.564" ry="2.564" transform="translate(0 35.171)" fill="#fff"/>
        </g>
        <g id="Group_1883" data-name="Group 1883" transform="translate(10.259)" opacity="0.5">
          <ellipse id="Ellipse_999" data-name="Ellipse 999" cx="2.564" cy="2.564" rx="2.564" ry="2.564" fill="#fff"/>
          <ellipse id="Ellipse_1000" data-name="Ellipse 1000" cx="2.564" cy="2.564" rx="2.564" ry="2.564" transform="translate(0 11.724)" fill="#fff"/>
          <ellipse id="Ellipse_1001" data-name="Ellipse 1001" cx="2.564" cy="2.564" rx="2.564" ry="2.564" transform="translate(0 23.448)" fill="#fff"/>
          <ellipse id="Ellipse_1002" data-name="Ellipse 1002" cx="2.564" cy="2.564" rx="2.564" ry="2.564" transform="translate(0 35.171)" fill="#fff"/>
        </g>
        <g id="Group_1884" data-name="Group 1884" transform="translate(20.516)" opacity="0.5">
          <ellipse id="Ellipse_1003" data-name="Ellipse 1003" cx="2.564" cy="2.564" rx="2.564" ry="2.564" fill="#fff"/>
          <ellipse id="Ellipse_1004" data-name="Ellipse 1004" cx="2.564" cy="2.564" rx="2.564" ry="2.564" transform="translate(0 11.724)" fill="#fff"/>
          <ellipse id="Ellipse_1005" data-name="Ellipse 1005" cx="2.564" cy="2.564" rx="2.564" ry="2.564" transform="translate(0 23.448)" fill="#fff"/>
          <ellipse id="Ellipse_1006" data-name="Ellipse 1006" cx="2.564" cy="2.564" rx="2.564" ry="2.564" transform="translate(0 35.171)" fill="#fff"/>
        </g>
        <g id="Group_1885" data-name="Group 1885" transform="translate(30.775)" opacity="0.5">
          <ellipse id="Ellipse_1007" data-name="Ellipse 1007" cx="2.564" cy="2.564" rx="2.564" ry="2.564" fill="#fff"/>
          <ellipse id="Ellipse_1008" data-name="Ellipse 1008" cx="2.564" cy="2.564" rx="2.564" ry="2.564" transform="translate(0 11.724)" fill="#fff"/>
          <ellipse id="Ellipse_1009" data-name="Ellipse 1009" cx="2.564" cy="2.564" rx="2.564" ry="2.564" transform="translate(0 23.448)" fill="#fff"/>
          <ellipse id="Ellipse_1010" data-name="Ellipse 1010" cx="2.564" cy="2.564" rx="2.564" ry="2.564" transform="translate(0 35.171)" fill="#fff"/>
        </g>
      </g>
    </g>
    <g id="Group_1893" data-name="Group 1893" transform="translate(-9900.734 5929.079)">
      <g id="Group_1892" data-name="Group 1892">
        <g id="Group_1888" data-name="Group 1888" opacity="0.5">
          <ellipse id="Ellipse_1011" data-name="Ellipse 1011" cx="2.564" cy="2.564" rx="2.564" ry="2.564" fill="#fff"/>
          <ellipse id="Ellipse_1012" data-name="Ellipse 1012" cx="2.564" cy="2.564" rx="2.564" ry="2.564" transform="translate(0 11.725)" fill="#fff"/>
          <ellipse id="Ellipse_1013" data-name="Ellipse 1013" cx="2.564" cy="2.564" rx="2.564" ry="2.564" transform="translate(0 23.449)" fill="#fff"/>
          <ellipse id="Ellipse_1014" data-name="Ellipse 1014" cx="2.564" cy="2.564" rx="2.564" ry="2.564" transform="translate(0 35.173)" fill="#fff"/>
        </g>
        <g id="Group_1889" data-name="Group 1889" transform="translate(10.259)" opacity="0.5">
          <ellipse id="Ellipse_1015" data-name="Ellipse 1015" cx="2.564" cy="2.564" rx="2.564" ry="2.564" fill="#fff"/>
          <ellipse id="Ellipse_1016" data-name="Ellipse 1016" cx="2.564" cy="2.564" rx="2.564" ry="2.564" transform="translate(0 11.725)" fill="#fff"/>
          <ellipse id="Ellipse_1017" data-name="Ellipse 1017" cx="2.564" cy="2.564" rx="2.564" ry="2.564" transform="translate(0 23.449)" fill="#fff"/>
          <ellipse id="Ellipse_1018" data-name="Ellipse 1018" cx="2.564" cy="2.564" rx="2.564" ry="2.564" transform="translate(0 35.173)" fill="#fff"/>
        </g>
        <g id="Group_1890" data-name="Group 1890" transform="translate(20.516)" opacity="0.5">
          <ellipse id="Ellipse_1019" data-name="Ellipse 1019" cx="2.564" cy="2.564" rx="2.564" ry="2.564" fill="#fff"/>
          <ellipse id="Ellipse_1020" data-name="Ellipse 1020" cx="2.564" cy="2.564" rx="2.564" ry="2.564" transform="translate(0 11.725)" fill="#fff"/>
          <ellipse id="Ellipse_1021" data-name="Ellipse 1021" cx="2.564" cy="2.564" rx="2.564" ry="2.564" transform="translate(0 23.449)" fill="#fff"/>
          <ellipse id="Ellipse_1022" data-name="Ellipse 1022" cx="2.564" cy="2.564" rx="2.564" ry="2.564" transform="translate(0 35.173)" fill="#fff"/>
        </g>
        <g id="Group_1891" data-name="Group 1891" transform="translate(30.775)" opacity="0.5">
          <ellipse id="Ellipse_1023" data-name="Ellipse 1023" cx="2.564" cy="2.564" rx="2.564" ry="2.564" fill="#fff"/>
          <ellipse id="Ellipse_1024" data-name="Ellipse 1024" cx="2.564" cy="2.564" rx="2.564" ry="2.564" transform="translate(0 11.725)" fill="#fff"/>
          <ellipse id="Ellipse_1025" data-name="Ellipse 1025" cx="2.564" cy="2.564" rx="2.564" ry="2.564" transform="translate(0 23.449)" fill="#fff"/>
          <ellipse id="Ellipse_1026" data-name="Ellipse 1026" cx="2.564" cy="2.564" rx="2.564" ry="2.564" transform="translate(0 35.173)" fill="#fff"/>
        </g>
      </g>
    </g>
    <g id="Group_1906" data-name="Group 1906" transform="translate(-10088.81 5702.579)">
      <path id="Path_1799-2" data-name="Path 1799" d="M-280.374,2033.4h73.489l1.707-83.485h-49.8Z" transform="translate(287.244 -1699.559)" fill="#f2f2f2"/>
      <path id="Path_1800-2" data-name="Path 1800" d="M-270.653,1978.1h73.489V1844.883l-63.271-17.355Z" transform="translate(290.501 -1740.563)" fill="#ff956e"/>
      <path id="Path_1801-2" data-name="Path 1801" d="M-232.378,1810.594a45.89,45.89,0,0,0-8.8.977l-1.782,142.617c103.4-25.324,57.437-110.988,33.543-133.747A57.938,57.938,0,0,1-232.378,1810.594Z" transform="translate(299.778 -1746.236)" fill="#ff956e"/>
      <path id="Path_1802-2" data-name="Path 1802" d="M-236.768,1810.594s-11.591,7.683-24.41,16.59c2.255,14.855,12.718,81.273,24.41,114.646Z" transform="translate(293.675 -1746.236)" fill="#ff956e"/>
      <g id="Group_1895" data-name="Group 1895" transform="translate(49.791 94.069)">
        <path id="Path_1803-2" data-name="Path 1803" d="M-243.868,1833.351l-4.356,84.641,11.018,14.277,6.166-13.26s-4.312-57.985-2.98-86.16C-234.019,1832.855-239.86,1833.351-243.868,1833.351Z" transform="translate(248.224 -1832.849)" fill="#22195b"/>
        <g id="Group_1894" data-name="Group 1894" transform="translate(4.308 0.005)">
          <path id="Path_1804-2" data-name="Path 1804" d="M-237,1836.639l-.6,51.877,2.962-1.493c-.646-16.985-1.184-38.951-.465-54.17,0,0-5.841.5-9.848.5l-.048.661C-243.691,1834.765-239.915,1836.78-237,1836.639Z" transform="translate(244.997 -1832.854)" fill="#e6e6e6"/>
        </g>
      </g>
      <path id="Path_1805-2" data-name="Path 1805" d="M-246.919,1805.65s0,12.91-4.829,15.695c0,0,6.367,12.748,13.268,12.715s23.713-14.17,23.713-14.17-6.112-2.889-7.447-16.242C-222.622,1799.57-246.919,1805.65-246.919,1805.65Z" transform="translate(296.834 -1749.035)" fill="#ffe6cd"/>
      <path id="Path_1806-2" data-name="Path 1806" d="M-253.023,1823.022c-4.528,3.146-9.212,6.444-13.587,9.612-11.42,8.261-19.236,15.466-18.423,16.883,2,3.5,21,94.8,20.426,100.677-1.585,16.222-27.235,117.894-19.443,121.087s32,1.356,34.726-.878,10.568-86.227,10.568-86.227l-.089-65.283C-250.537,1885.529-250.768,1837.877-253.023,1823.022Z" transform="translate(285.52 -1742.073)" fill="#fff"/>
      <g id="Group_1897" data-name="Group 1897" transform="translate(42.805)">
        <g id="Group_1896" data-name="Group 1896">
          <path id="Path_1807-2" data-name="Path 1807" d="M-248.839,1774.163s-8.859,46.7-2.035,48.255,29.267,4.12,29.983-1.319,1.736-53.668-3.451-54.281S-247.677,1764.033-248.839,1774.163Z" transform="translate(253.457 -1761.111)" fill="#ffe6cd"/>
          <path id="Path_1808-2" data-name="Path 1808" d="M-230.518,1784.263s4.125-4.877,6.763-1.254c4.745,6.519-5.626,10.467-7.157,9.4S-230.518,1784.263-230.518,1784.263Z" transform="translate(260.812 -1755.926)" fill="#ffe6cd"/>
          <path id="Path_1809-2" data-name="Path 1809" d="M-230.479,1786.814a18.782,18.782,0,0,1,4.706-3.1.213.213,0,0,1,.28.1.212.212,0,0,1-.057.25c-1.593,1.3-4.491,3.755-4.689,4.577Z" transform="translate(261.155 -1755.248)" fill="#ffd5ac" opacity="0.3"/>
          <path id="Path_1810-2" data-name="Path 1810" d="M-243.864,1783.034s-1.434,5.89-2.192,8.827a4.774,4.774,0,0,0,1.753,4.519l-2.813-.189s-2.689-2.792-2-4.56A24.259,24.259,0,0,1-243.864,1783.034Z" transform="translate(254.872 -1755.469)" fill="#ffd5ac" opacity="0.5"/>
          <path id="Path_1811-2" data-name="Path 1811" d="M-252.238,1768.451s-.322,7.65,10.955,8.121c12.633.534,18.512,3.255,19.374,5.748s4.834-11.282.093-16.3-26.176-.256-28.986-3.216C-252.981,1760.51-252.238,1768.451-252.238,1768.451Z" transform="translate(253.824 -1762.387)" fill="#22195b"/>
          <path id="Path_1812-2" data-name="Path 1812" d="M-232.647,1774.841s2.492,13.19,1.678,15.219,3.084-3.375,3.442-4.753-.786-12.878-.786-12.878Z" transform="translate(260.428 -1759.022)" fill="#22195b"/>
          <ellipse id="Ellipse_1027" data-name="Ellipse 1027" cx="1.693" cy="1.693" rx="1.693" ry="1.693" transform="translate(16.312 25.873)" fill="#22195b"/>
          <ellipse id="Ellipse_1028" data-name="Ellipse 1028" cx="1.693" cy="1.693" rx="1.693" ry="1.693" transform="translate(3.949 24.18)" fill="#22195b"/>
        </g>
        <path id="Path_1813-2" data-name="Path 1813" d="M-241.169,1794.659c-1.307,1.387-6.128,1.325-6.128,1.325s1.4,2.072,2.785,1.925S-241.169,1794.659-241.169,1794.659Z" transform="translate(255.52 -1751.575)" fill="#22195b"/>
        <path id="Path_1814-2" data-name="Path 1814" d="M-227.258,1806.953s-11.348,4.673-22.028,3.338" transform="translate(254.854 -1747.456)" fill="none" stroke="#22195b" stroke-linecap="round" stroke-miterlimit="10" stroke-width="0.45"/>
      </g>
      <path id="Path_1815-2" data-name="Path 1815" d="M-244.625,1825.236a35.651,35.651,0,0,1,10.663.287s1.61,6.216-.788,11.517c0,0-7.271.742-9.9-.4C-244.646,1836.644-247.809,1830.353-244.625,1825.236Z" transform="translate(298.745 -1741.421)" fill="#22195b"/>
      <path id="Path_1816-2" data-name="Path 1816" d="M-234.8,1827.867c-.314-.711-5.093,7.042-7.493,11.016a2.191,2.191,0,0,1-3.007.749,2.2,2.2,0,0,1-.331-.245l-15.725-13.958,13.038-9.011Z" transform="translate(293.615 -1744.285)" fill="#ff956e"/>
      <g id="Group_1898" data-name="Group 1898" transform="translate(58.765 83.537)">
        <path id="Path_1817-2" data-name="Path 1817" d="M-241.5,1824.96l.049.041A.068.068,0,0,0-241.5,1824.96Z" transform="translate(241.502 -1824.96)" fill="#f2f2f2"/>
      </g>
      <path id="Path_1818-2" data-name="Path 1818" d="M-241.793,1828.913c.314-.711,5.092,7.042,7.492,11.015a2.194,2.194,0,0,0,3.009.748,2.194,2.194,0,0,0,.328-.243l22.109-20.459L-220.2,1813.3Z" transform="translate(300.17 -1745.33)" fill="#ff956e"/>
      <path id="Path_1819" data-name="Path 1819" d="M-241.379,1825.162c.314-.711,4.539,6.968,6.942,10.941a2.192,2.192,0,0,0,3.009.748,2.184,2.184,0,0,0,.328-.243l12.864-11.9" transform="translate(300.308 -1741.509)" fill="none" stroke="#22195b" stroke-linecap="round" stroke-miterlimit="10" stroke-width="0.45"/>
      <path id="Path_1820" data-name="Path 1820" d="M-235.236,1825.162c-.314-.711-5.874,6.968-8.277,10.941a2.191,2.191,0,0,1-3.008.748,2.265,2.265,0,0,1-.33-.243l-12.866-11.9" transform="translate(294.165 -1741.509)" fill="none" stroke="#22195b" stroke-linecap="round" stroke-miterlimit="10" stroke-width="0.45"/>
      <g id="Group_1899" data-name="Group 1899" transform="translate(58.377 83.537)">
        <path id="Path_1821" data-name="Path 1821" d="M-241.744,1824.96l-.049.041A.074.074,0,0,1-241.744,1824.96Z" transform="translate(241.793 -1824.96)" fill="#f2f2f2"/>
      </g>
      <path id="Path_1822" data-name="Path 1822" d="M-257.768,1823.022c-4.528,3.146-9.212,6.444-13.587,9.612l10.333,66.7-4.666,10.538a4.325,4.325,0,0,0,1.51,5.317l20.676,14.167-.51-11.615C-255.7,1884.375-255.514,1837.877-257.768,1823.022Z" transform="translate(290.265 -1742.073)" fill="#f2f2f2"/>
      <path id="Path_1823" data-name="Path 1823" d="M-171.408,1837.129c-2.577-2.377-21.733-9.979-42.944-19.158-3.914,21.98.18,79.556-13.884,107.385l10.947,152.251s40.784,1.967,41.737.855-8.732-126.083-6.809-135.54C-180.279,1932.6-167.275,1840.944-171.408,1837.129Z" transform="translate(304.712 -1743.765)" fill="#fff"/>
      <path id="Path_1824" data-name="Path 1824" d="M-228.239,1925.667c5.4-11.564,10.934-108.626,10.934-108.626s12.23,5.073,12.567,5.419c.822.859-.8,80.678-.873,80.837a30.216,30.216,0,0,0,3.823,5.916c2.621,3.275-25.825,26.215-25.825,26.215Z" transform="translate(304.711 -1744.076)" fill="#f2f2f2"/>
      <g id="Group_1905" data-name="Group 1905" transform="translate(62.052 92.83)">
        <g id="Group_1904" data-name="Group 1904" transform="translate(0 49.593)">
          <g id="Group_1900" data-name="Group 1900" transform="translate(0 39.573)">
            <path id="Path_1825" data-name="Path 1825" d="M-236.417,1904.818a.53.53,0,0,1-.008-.565.534.534,0,0,1,.728-.175.534.534,0,0,1,.176.729.533.533,0,0,1-.506.248l-2.626,4.287,4.9-2.737,2.288-6.038-1.424-1.076-1.6-.779-4.34,4.782-.211,5.607Z" transform="translate(239.04 -1898.711)" fill="#7d76d1"/>
          </g>
          <g id="Group_1901" data-name="Group 1901" transform="translate(3.28)">
            <path id="Path_1826" data-name="Path 1826" d="M-232.211,1911.2l-3.981-2.479a.823.823,0,0,1-.267-1.134h0l22.993-37.024a3.169,3.169,0,0,1,4.366-1.015h0a3.169,3.169,0,0,1,1.015,4.366l-22.992,37.023A.825.825,0,0,1-232.211,1911.2Z" transform="translate(236.583 -1869.069)" fill="#22195b"/>
            <rect id="Rectangle_1192" data-name="Rectangle 1192" width="0.793" height="6.339" transform="translate(18.302 9.229) rotate(-58.088)" fill="#7d76d1"/>
          </g>
          <g id="Group_1903" data-name="Group 1903" transform="translate(21.371 9.643)">
            <path id="Rectangle_1193" data-name="Rectangle 1193" d="M-215.319,1876.348h0a.382.382,0,0,1,.127.524h0l-6.5,10.626h0l-.651-.4h0l6.5-10.624a.381.381,0,0,1,.525-.127Z" transform="translate(223.262 -1876.292)" fill="#7d76d1"/>
            <g id="Group_1902" data-name="Group 1902" transform="translate(0 9.316)">
              <path id="Path_1827" data-name="Path 1827" d="M-221.208,1883.27l-1.824,2.977a1.747,1.747,0,0,0,2.4-.574v0A1.745,1.745,0,0,0-221.208,1883.27Z" transform="translate(223.032 -1883.27)" fill="#7d76d1"/>
            </g>
          </g>
          <line id="Line_517" data-name="Line 517" x1="3.531" y2="3.956" transform="translate(1.11 41.153)" fill="none" stroke="#fff" stroke-linecap="round" stroke-miterlimit="10" stroke-width="0.5" opacity="0.5"/>
          <line id="Line_518" data-name="Line 518" x1="15.322" y2="25.165" transform="translate(5.833 11.897)" fill="none" stroke="#fff" stroke-miterlimit="10" stroke-width="0.5" opacity="0.5"/>
        </g>
        <path id="Path_1828" data-name="Path 1828" d="M-162.643,1860.793c-22.482-35.163-18.394-28.338-18.394-28.338L-199.5,1870.9l52.2,60.547h15.955C-123.84,1925.155-137.4,1900.27-162.643,1860.793Z" transform="translate(252.288 -1831.921)" fill="#fff"/>
        <path id="Path_1829" data-name="Path 1829" d="M-155.865,1879.143l-7.789-5.266-.08.1c4.483,2.9,7.61,4.969,7.877,5.256Z" transform="translate(264.27 -1817.865)" fill="#fff"/>
        <path id="Path_1830" data-name="Path 1830" d="M-216.174,1894.269s-8.34-3.67-9.819-5.763-3.534,1.458-.947,3.444,3.236,4.161.776,3.28-5.635-2.332-6.8-1.1.318,3.3.318,3.3a1.188,1.188,0,0,0-1.5.568c-.506.967-.348,3.028.924,3.384a1.231,1.231,0,0,0-1.593.7,1.1,1.1,0,0,0-.044.135c-.316,1.268-.155,2.8.961,3.058,0,0-1.125-.208-1.351,2.011s11.081,5.607,12.477,5.587,7.476-1.119,7.476-1.119Z" transform="translate(240.31 -1813.178)" fill="#ffe6cd"/>
        <path id="Path_1831" data-name="Path 1831" d="M-214.767,1892.222l-6.375.3c-2.427,6.734-.935,18.117-.935,18.117l6.666.079C-216.522,1903.719-215.3,1895.315-214.767,1892.222Z" transform="translate(244.571 -1811.719)" fill="#ff8760"/>
        <path id="Path_1832" data-name="Path 1832" d="M-234.532,1897.066l6.778,1.8s.187.7-1.722.165a26.418,26.418,0,0,0-3.984-.735A1.713,1.713,0,0,1-234.532,1897.066Z" transform="translate(240.55 -1810.096)" fill="#ffd5ac" opacity="0.3"/>
        <path id="Path_1833" data-name="Path 1833" d="M-233.605,1894.478a44.8,44.8,0,0,0,5.874,2.148s.222.436-1.358-.01-4.109-1.4-4.109-1.4A2.025,2.025,0,0,1-233.605,1894.478Z" transform="translate(240.861 -1810.963)" fill="#ffd5ac" opacity="0.3"/>
        <path id="Path_1834" data-name="Path 1834" d="M-234.86,1900.41s5.733,1.631,6.63,1.625c0,0-1.834.51-5.8-.963A1.1,1.1,0,0,1-234.86,1900.41Z" transform="translate(240.44 -1808.976)" fill="#ffd5ac" opacity="0.3"/>
        <path id="Path_1835" data-name="Path 1835" d="M-136.731,1892.546l-.057.075c0-.387-.927-4.026-2.295-9.188-20.264,3.438-63.332,10.587-79.568,11.28-.513,3.338-1.667,12.405-.5,19.971l88.316-.491Z" transform="translate(245.534 -1814.663)" fill="#fff"/>
      </g>
      <path id="Path_1836" data-name="Path 1836" d="M-266.879,1954.717l8.654-7.743a.534.534,0,0,1,.749-.095.532.532,0,0,1,.207.437v3.626a.533.533,0,0,1-.133.358l-8.654,7.056a.534.534,0,0,1-.752.065A.532.532,0,0,1-267,1958v-2.937A.535.535,0,0,1-266.879,1954.717Z" transform="translate(291.725 -1700.614)" fill="#f6cfc6"/>
      <path id="Path_1837" data-name="Path 1837" d="M-203.53,1960.737l-15.05-12.827a.535.535,0,0,0-.749-.095.536.536,0,0,0-.207.436v3.634a.547.547,0,0,0,.134.358l15.05,12.134a.534.534,0,0,0,.753.068.531.531,0,0,0,.191-.426v-2.937A.536.536,0,0,0-203.53,1960.737Z" transform="translate(307.626 -1700.301)" fill="#f6cfc6"/>
    </g>
    <rect id="Rectangle_1194" data-name="Rectangle 1194" width="398.279" height="10.584" rx="3.964" transform="translate(-10290.102 5894.938)" fill="#7974af"/>
    <rect id="Rectangle_1195" data-name="Rectangle 1195" width="389.393" height="170.673" transform="translate(-10285.658 5905.522)" fill="#fff5f3"/>
    <path id="Path_1857" data-name="Path 1857" d="M-278.463,1842.868l-26.666,84.381,54.22.7,3.1-9.946-25.47-7.416,16.705-20.841Z" transform="translate(-9809.859 3967.155)" fill="#fff"/>
    <path id="Path_1858" data-name="Path 1858" d="M-261.417,1899.147s17.777,6.566,18.652,8.173-.115,1.6-3.071,1.6h-18.68Z" transform="translate(-9796.253 3986.01)" fill="#ffe6cd"/>
    <g id="Group_1917" data-name="Group 1917" transform="translate(-10070.053 5952.744)">
      <rect id="Rectangle_331" data-name="Rectangle 331" width="91.903" height="71.851" rx="6.258" fill="#ff956e"/>
      <g id="Ellipse_85" data-name="Ellipse 85" transform="translate(19.216 10.026)">
        <ellipse id="Ellipse_1035" data-name="Ellipse 1035" cx="26.458" cy="26.458" rx="26.458" ry="26.458" fill="none"/>
        <ellipse id="Ellipse_1036" data-name="Ellipse 1036" cx="22.28" cy="22.28" rx="22.28" ry="22.28" transform="translate(4.177 4.178)" fill="none" stroke="#fff5f3" stroke-width="6.488"/>
      </g>
    </g>
    <g id="Group_1918" data-name="Group 1918" transform="translate(-9977.903 6025.977)">
      <g id="Rectangle_332" data-name="Rectangle 332">
        <rect id="Rectangle_1205" data-name="Rectangle 1205" width="91.903" height="71.851" rx="6.258" fill="#fff"/>
        <rect id="Rectangle_1206" data-name="Rectangle 1206" width="91.068" height="71.016" rx="5.945" transform="translate(0.418 0.418)" fill="none" stroke="#ff956e" stroke-width="1.622"/>
      </g>
      <g id="Group_421" data-name="Group 421" transform="translate(23.394 14.204)">
        <line id="Line_155" data-name="Line 155" x2="45.57" y2="45.57" fill="none" stroke="#f6cfc6" stroke-width="6.488"/>
        <line id="Line_156" data-name="Line 156" x1="45.57" y2="45.57" fill="none" stroke="#f6cfc6" stroke-width="6.488"/>
      </g>
    </g>
    <g id="Group_1920" data-name="Group 1920" transform="translate(-10016.115 5654.587)">
      <rect id="Rectangle_1207" data-name="Rectangle 1207" width="47.291" height="88.719" rx="6.221" transform="translate(0 47.291) rotate(-89.714)" fill="#fff"/>
      <path id="Path_1859" data-name="Path 1859" d="M-199.637,1763.448s-4.789,12.3-10.077,12.39c0,0,3.5-8.973-1.406-13.764l-4.908-4.79Z" transform="translate(236.107 -1716.104)" fill="#fff"/>
      <g id="Group_1919" data-name="Group 1919" transform="translate(16.003 20.248)">
        <ellipse id="Ellipse_107" data-name="Ellipse 107" cx="3.488" cy="3.488" rx="3.488" ry="3.488" fill="#f7cfc5"/>
        <ellipse id="Ellipse_107-2" data-name="Ellipse 107-2" cx="3.488" cy="3.488" rx="3.488" ry="3.488" transform="translate(16.719 0.08)" fill="#f7cfc5"/>
        <ellipse id="Ellipse_107-3" data-name="Ellipse 107-3" cx="3.488" cy="3.488" rx="3.488" ry="3.488" transform="translate(33.437 0.159)" fill="#f7cfc5"/>
        <ellipse id="Ellipse_107-4" data-name="Ellipse 107-4" cx="3.488" cy="3.488" rx="3.488" ry="3.488" transform="translate(50.156 0.238)" fill="#f7cfc5"/>
      </g>
    </g>
    <path id="Path_1861" data-name="Path 1861" d="M-179.962,1787.845s44.786,13.15,37.359,74.938" transform="translate(-9767.925 3948.721)" fill="none" stroke="#22195b" stroke-linecap="round" stroke-miterlimit="10" stroke-width="0.45"/>
    <g id="Group_1922" data-name="Group 1922" transform="translate(-10289.766 5708.564)">
      <rect id="Rectangle_1208" data-name="Rectangle 1208" width="75.702" height="40.353" rx="5.308" transform="translate(0 0.379) rotate(-0.286)" fill="#fff"/>
      <path id="Path_1860" data-name="Path 1860" d="M-402.493,1798.451s4.086,10.491,8.6,10.573c0,0-2.988-7.657,1.2-11.748l4.188-4.088Z" transform="translate(447.287 -1758.053)" fill="#fff"/>
      <g id="Group_1921" data-name="Group 1921" transform="translate(13.509 17.279)">
        <ellipse id="Ellipse_107-5" data-name="Ellipse 107-5" cx="2.976" cy="2.976" rx="2.976" ry="2.976" transform="translate(42.797)" fill="#f7cfc5"/>
        <ellipse id="Ellipse_107-6" data-name="Ellipse 107-6" cx="2.976" cy="2.976" rx="2.976" ry="2.976" transform="translate(28.531 0.066)" fill="#f7cfc5"/>
        <ellipse id="Ellipse_107-7" data-name="Ellipse 107-7" cx="2.976" cy="2.976" rx="2.976" ry="2.976" transform="translate(14.266 0.135)" fill="#f7cfc5"/>
        <ellipse id="Ellipse_107-8" data-name="Ellipse 107-8" cx="2.976" cy="2.976" rx="2.976" ry="2.976" transform="translate(0 0.203)" fill="#f7cfc5"/>
      </g>
    </g>
    <g id="Group_2190" data-name="Group 2190" transform="translate(-10259.226 5776.868)">
      <path id="Path_1819-2" data-name="Path 1819" d="M-384.439,1930.326c-6.376.554-12.162-4.295-14.4-9.93s-2.292-15.055-1.641-21.04l24.348-1.036Z" transform="translate(417.297 -1791.134)" fill="#ffe6cd"/>
      <path id="Path_1820-2" data-name="Path 1820" d="M-386.74,1919.945l-13.649-.131c-2.474-14.536-1.132-33.582,2.019-47.025,4.384-18.711,16.728-17.59,28.739-21.844Z" transform="translate(417.022 -1807.006)" fill="#fff"/>
      <path id="Path_1821-2" data-name="Path 1821" d="M-371.03,1849.206s5.188-9.292,4.894-16.154l16.327-1.5s-.749,16.235,2.191,18.662S-371.03,1849.206-371.03,1849.206Z" transform="translate(427.287 -1813.502)" fill="#ffe6cd"/>
      <path id="Path_1822-2" data-name="Path 1822" d="M-291.562,1885.575s5.98-8.123,8.033-10.543,0-19.719,0-19.719l-12.5,24.782Z" transform="translate(452.416 -1805.543)" fill="#ffe6cd"/>
      <g id="Group_1916" data-name="Group 1916" transform="translate(0 31.147)">
        <ellipse id="Ellipse_1029" data-name="Ellipse 1029" cx="114.47" cy="8.555" rx="114.47" ry="8.555" transform="translate(0 303.957)" fill="#f6bead"/>
        <path id="Path_1823-2" data-name="Path 1823" d="M-344.257,2063.933a53.562,53.562,0,0,0,16.07,9.2c7.963,3.116,15.839,3.267,13.157,5.367s-20.037,3.635-24.3,1.384-10.668-2.25-11.014-2.25c-.174,0-.15.266-.083.532a.409.409,0,0,1-.422.5l-2.76-.148a.41.41,0,0,1-.387-.392l-.545-12.481a.411.411,0,0,1,.454-.426Z" transform="translate(432.811 -1766.796)" fill="#ff956e"/>
        <path id="Path_1843" data-name="Path 1843" d="M-307.191,1949.179s1.013,2.331,5.1,41.665c2.988,28.762,8.222,125.758,8.222,125.758l-10.392,1.152s-27.235-112.616-28.4-166.554Z" transform="translate(440.143 -1805.242)" fill="#22195b"/>
        <path id="Path_1824-2" data-name="Path 1824" d="M-342.519,1931.65s27.59,3.344,38.805,17.078-12.459,38.143-36.464,38.143S-342.519,1931.65-342.519,1931.65Z" transform="translate(433.834 -1811.114)" fill="#22195b"/>
        <path id="Path_1843-2" data-name="Path 1843" d="M-332.586,1946.569s6.434,19.362,1.689,47.886-12.25,108.8-12.25,108.8l-11.093,1.921s-8.044-101.567-.134-154.931Z" transform="translate(431.701 -1806.116)" fill="#22195b"/>
        <g id="Group_1935" data-name="Group 1935" transform="translate(31.325 202.982)">
          <path id="Rectangle_1189" data-name="Rectangle 1189" d="M1.827,0H4.682A1.827,1.827,0,0,1,6.509,1.827V106.509a0,0,0,0,1,0,0H0a0,0,0,0,1,0,0V1.827A1.827,1.827,0,0,1,1.827,0Z" transform="translate(37.511 106.509) rotate(180)" fill="#fff"/>
          <path id="Path_1825-2" data-name="Path 1825" d="M-364.054,2063.1l33.309,16.034a1.777,1.777,0,0,1,.706,2.4h0a1.434,1.434,0,0,1-1.785.746l-32.182-12.3Z" transform="translate(398.299 -1970.057)" fill="#fff"/>
          <path id="Path_1826-2" data-name="Path 1826" d="M-355.46,2063.1l-33.37,16.063a1.709,1.709,0,0,0-.678,2.3l.056.108a1.378,1.378,0,0,0,1.717.718l32.226-12.313Z" transform="translate(389.705 -1970.057)" fill="#fff"/>
          <path id="Path_1827-2" data-name="Path 1827" d="M-388.23,2081.593h64.506l-32.211-16.4Z" transform="translate(390.2 -1969.355)" fill="#fff"/>
          <line id="Line_517-2" data-name="Line 517" x2="18.641" y2="9.49" transform="translate(38.25 97.867)" fill="none" stroke="#f6bead" stroke-miterlimit="10" stroke-width="1"/>
        </g>
        <path id="Path_1841" data-name="Path 1841" d="M-385.9,1930.007s-11.413,44.794-3.422,50.5,15.3,10.844,37.317,10.273,36.118-4.124,36.958-15.537-5.11-45.236-5.11-45.236Z" transform="translate(420.208 -1811.665)" fill="#22195b"/>
        <rect id="Rectangle_1190-2" data-name="Rectangle 1190" width="12.08" height="22.716" rx="1.204" transform="translate(59.146 186.105)" fill="#f6bead"/>
        <path id="Rectangle_1203" data-name="Rectangle 1203" d="M-393.966,1968.127h81.43a2.443,2.443,0,0,1,2.371,2.508V1995.6a2.444,2.444,0,0,1-2.371,2.51h-81.43a2.444,2.444,0,0,1-2.371-2.51v-24.965A2.442,2.442,0,0,1-393.966,1968.127Z" transform="translate(418.809 -1798.894)" fill="#ff956e"/>
        <line id="Line_518-2" data-name="Line 518" x2="82.412" transform="translate(24.367 173.971)" fill="none" stroke="#f6bead" stroke-miterlimit="10" stroke-width="1"/>
        <path id="Path_1828-2" data-name="Path 1828" d="M-339.6,1848.487h-26.447a20.388,20.388,0,0,0-16.863,8.959c-7.516,11.062-16.5,33.089-8.311,70.024l5.269,30.973,33.127,1,33.127-1,5.269-30.973c8.192-36.935-.794-58.962-8.311-70.024A20.388,20.388,0,0,0-339.6,1848.487Z" transform="translate(419.436 -1838.977)" fill="#b4b2cc"/>
        <path id="Path_1829-2" data-name="Path 1829" d="M-373.091,1841.686s18.249,4.156,29.217-.323l3.609,11.542s-9.646,6.763-24.342,3.738-11.637-2.226-11.637-2.226Z" transform="translate(425.452 -1841.363)" fill="#fff"/>
        <path id="Path_1830-2" data-name="Path 1830" d="M-300.473,2070.322a63.656,63.656,0,0,0,19.083,10.921c9.457,3.7,18.808,3.879,15.624,6.373s-23.794,4.316-28.857,1.645-12.668-2.672-13.079-2.672c-.206,0-.178.315-.1.631a.485.485,0,0,1-.5.6l-3.276-.176a.489.489,0,0,1-.461-.466l-.647-14.821a.488.488,0,0,1,.541-.506Z" transform="translate(446.834 -1764.655)" fill="#ff956e"/>
        <path id="Path_1831-2" data-name="Path 1831" d="M-386.137,1943.442s-5.347,15.251,0,23.639a9.907,9.907,0,0,0,3.949,3.552c7.255,3.679,15.647-2.1,15.982-10.684l.563-14.469Z" transform="translate(421.43 -1807.164)" fill="none" stroke="#7974af" stroke-miterlimit="10" stroke-width="1"/>
        <path id="Path_1832-2" data-name="Path 1832" d="M-362.691,1944.972s-3.237,15.964,3.735,23.343a10.393,10.393,0,0,0,4.733,2.84c8.244,2.408,16.2-4.721,15.193-13.25l-1.69-14.382Z" transform="translate(429.83 -1807.137)" fill="none" stroke="#7974af" stroke-miterlimit="10" stroke-width="1"/>
        <path id="Path_1833-2" data-name="Path 1833" d="M-388.1,1932.6s38.823,3.26,66.578.483" transform="translate(421.57 -1810.796)" fill="none" stroke="#7974af" stroke-miterlimit="10" stroke-width="0.5"/>
        <path id="Path_1834-2" data-name="Path 1834" d="M-387.2,1944.963s8.325,2.295,21.047,1.71" transform="translate(421.871 -1806.654)" fill="none" stroke="#7974af" stroke-miterlimit="10" stroke-width="1"/>
        <path id="Path_1835-2" data-name="Path 1835" d="M-362.988,1946.429s5.563.531,22.431-.9" transform="translate(429.982 -1806.466)" fill="none" stroke="#7974af" stroke-miterlimit="10" stroke-width="1"/>
        <path id="Path_1836-2" data-name="Path 1836" d="M-331.79,1969.79a38.4,38.4,0,0,0,11.8-6.627" transform="translate(440.434 -1800.557)" fill="none" stroke="#7974af" stroke-miterlimit="10" stroke-width="1"/>
      </g>
      <path id="Path_1837-2" data-name="Path 1837" d="M-332.985,1910.552l12.021-1.73" transform="translate(440.033 -1787.616)" fill="none" stroke="#333" stroke-miterlimit="10" stroke-width="1"/>
      <g id="Group_1912" data-name="Group 1912" transform="translate(108.093 0)">
        <rect id="Rectangle_1196" data-name="Rectangle 1196" width="70.065" height="49.681" transform="translate(0 62.197) rotate(-62.585)" fill="#fff" stroke="#b4b2cc" stroke-miterlimit="10" stroke-width="1"/>
        <g id="Group_1907" data-name="Group 1907" transform="translate(32.243 15.839)">
          <ellipse id="Ellipse_1030-2" data-name="Ellipse 1030" cx="2.208" cy="2.208" rx="2.208" ry="2.208" fill="#22195b"/>
          <path id="Rectangle_1197" data-name="Rectangle 1197" d="M-302.195,1832.45l21.8,11.306a1.272,1.272,0,0,1,.543,1.714h0a1.272,1.272,0,0,1-1.715.543l-21.8-11.305a1.273,1.273,0,0,1-.543-1.715h0A1.272,1.272,0,0,1-302.195,1832.45Z" transform="translate(309.391 -1829.089)" fill="#b4b2cc"/>
        </g>
        <g id="Group_1908" data-name="Group 1908" transform="translate(27.672 24.651)">
          <ellipse id="Ellipse_1031" data-name="Ellipse 1031" cx="2.208" cy="2.208" rx="2.208" ry="2.208" fill="#22195b"/>
          <path id="Rectangle_1198" data-name="Rectangle 1198" d="M-305.619,1839.053l21.8,11.3a1.274,1.274,0,0,1,.543,1.716h0a1.273,1.273,0,0,1-1.715.543l-21.8-11.306a1.272,1.272,0,0,1-.543-1.714h0A1.271,1.271,0,0,1-305.619,1839.053Z" transform="translate(312.815 -1835.69)" fill="#b4b2cc"/>
        </g>
        <g id="Group_1909" data-name="Group 1909" transform="translate(23.1 33.464)">
          <ellipse id="Ellipse_1032" data-name="Ellipse 1032" cx="2.208" cy="2.208" rx="2.208" ry="2.208" fill="#22195b"/>
          <path id="Rectangle_1199" data-name="Rectangle 1199" d="M-309.043,1845.654l21.8,11.307a1.272,1.272,0,0,1,.543,1.714h0a1.273,1.273,0,0,1-1.716.543l-21.8-11.3a1.273,1.273,0,0,1-.543-1.716h0A1.272,1.272,0,0,1-309.043,1845.654Z" transform="translate(316.239 -1842.291)" fill="#b4b2cc"/>
        </g>
        <g id="Group_1910" data-name="Group 1910" transform="translate(18.529 42.279)">
          <ellipse id="Ellipse_1033" data-name="Ellipse 1033" cx="2.208" cy="2.208" rx="2.208" ry="2.208" fill="#22195b"/>
          <path id="Rectangle_1200" data-name="Rectangle 1200" d="M-312.467,1852.257l21.8,11.305a1.273,1.273,0,0,1,.545,1.715h0a1.273,1.273,0,0,1-1.716.543l-21.8-11.306a1.271,1.271,0,0,1-.543-1.714h0A1.27,1.27,0,0,1-312.467,1852.257Z" transform="translate(319.663 -1848.893)" fill="#b4b2cc"/>
        </g>
        <g id="Group_1911" data-name="Group 1911" transform="translate(13.958 51.092)">
          <ellipse id="Ellipse_1034" data-name="Ellipse 1034" cx="2.208" cy="2.208" rx="2.208" ry="2.208" fill="#22195b"/>
          <path id="Rectangle_1201" data-name="Rectangle 1201" d="M-315.891,1858.858l21.8,11.306a1.27,1.27,0,0,1,.543,1.714h0a1.272,1.272,0,0,1-1.714.544l-21.8-11.307a1.271,1.271,0,0,1-.545-1.714h0A1.273,1.273,0,0,1-315.891,1858.858Z" transform="translate(323.087 -1855.495)" fill="#b4b2cc"/>
        </g>
      </g>
      <path id="Path_1844" data-name="Path 1844" d="M-325.619,1938.08l47.034-60.756-9.79-6.24L-327.9,1902.7Z" transform="translate(441.737 -1800.259)" fill="#ffe6cd"/>
      <path id="Path_1838" data-name="Path 1838" d="M-399.666,1913.706c2.084,5.606,6.036,10.515,13.342,11.873" transform="translate(417.693 -1785.98)" fill="none" stroke="#22195b" stroke-linecap="round" stroke-miterlimit="10" stroke-width="0.45"/>
      <path id="Path_1839" data-name="Path 1839" d="M-346.739,1899.687c1.34,5.4,1.647,11,2.862,16.425s3.52,10.89,7.907,14.305,11.232,4.092,15.34.346c4.293-3.916,4.12-10.627,3.395-16.392q-.855-6.8-2.123-13.55c-.362-1.925-.9-4.072-2.591-5.061-1.461-.856-3.293-.551-4.953-.22l-18.15,3.622" transform="translate(435.426 -1792.179)" fill="#ffe6cd"/>
      <path id="Path_1840" data-name="Path 1840" d="M-318.142,1914.985c-6.733,1-18.819,2.459-25.622,2.259a5.128,5.128,0,0,1-3.472-.988c-.923-.876-1.016-2.273-1.152-3.538-4.757-43.989.288-57.7,2.376-57.346,0,0,14.611-11.894,20.545,16.757C-319.229,1902.248-318.142,1914.985-318.142,1914.985Z" transform="translate(434.21 -1806.343)" fill="#fff"/>
      <path id="Path_1841-2" data-name="Path 1841" d="M-320.616,1899.411a86.557,86.557,0,0,1-22.366,2.244" transform="translate(436.684 -1790.769)" fill="none" stroke="#22195b" stroke-linecap="round" stroke-miterlimit="10" stroke-width="0.45"/>
      <path id="Path_1842" data-name="Path 1842" d="M-294.036,1873.345a74.574,74.574,0,0,1,1.128-11.887,2.946,2.946,0,0,1,.417-1.228,1.03,1.03,0,0,1,1.136-.437,1.536,1.536,0,0,1,.744,1.057l1.924,5.845c.748,2.273,1.5,4.742.732,7.009a3.849,3.849,0,0,1-2.447,2.57,2.913,2.913,0,0,1-2.693-.649,2.912,2.912,0,0,1-.884-2.625" transform="translate(453.083 -1804.058)" fill="#ffe6cd"/>
      <path id="Path_1843-3" data-name="Path 1843" d="M-293.028,1865.739a12.63,12.63,0,0,0-5.221,7.135c-1.38,4.917,5.685,6.408,5.685,6.408s1.906-12.992,2.051-13.047S-293.028,1865.739-293.028,1865.739Z" transform="translate(451.611 -1802.05)" fill="#ffe6cd"/>
      <path id="Path_1844-2" data-name="Path 1844" d="M-305,2081.858s6.445,7.465,32.876,3.286" transform="translate(449.409 -1729.644)" fill="none" stroke="#22195b" stroke-linecap="round" stroke-miterlimit="10" stroke-width="0.45"/>
    </g>
    <path id="Path_1950" data-name="Path 1950" d="M-361.751,1798.485c-10.674,3.791-17.779,15.693-16.13,26.9s11.822,20.534,23.124,21.288a20.66,20.66,0,0,0,13.93-3.886c4.54-3.5,7.061-9.076,8.229-14.688a32.094,32.094,0,0,0-.8-17.129,22.292,22.292,0,0,0-11.057-12.8c-5.227-2.483-12.488-2.9-17.3.312" transform="translate(-9834.313 3951.518)" fill="#ffe6cd"/>
    <path id="Path_1951" data-name="Path 1951" d="M-366.071,1796.563c-10.675,3.79-17.78,15.693-16.13,26.9s11.82,20.534,23.123,21.288a20.649,20.649,0,0,0,13.93-3.887c4.54-3.5,7.062-9.074,8.229-14.687a32.106,32.106,0,0,0-.8-17.128,22.3,22.3,0,0,0-11.058-12.8c-5.227-2.483-12.487-2.9-17.3.312" transform="translate(-9835.761 3950.874)" fill="#22195b"/>
    <path id="Path_1952" data-name="Path 1952" d="M-360.775,1794.616s15.307-1.872,25.008,10.545c0,0-1.841,13.848-12.422,9.732S-360.775,1794.616-360.775,1794.616Z" transform="translate(-9828.503 3950.956)" fill="#22195b"/>
  </g>
</svg>
