<svg xmlns="http://www.w3.org/2000/svg" xmlns:xlink="http://www.w3.org/1999/xlink" width="240" height="150.232" viewBox="0 0 240 150.232">
  <defs>
    <clipPath id="clip-path">
      <path id="Path_1743" data-name="Path 1743" d="M1853.471,2973.078H1631.138a8.834,8.834,0,0,0-8.834,8.833v132.567a8.834,8.834,0,0,0,8.834,8.833h222.333a8.833,8.833,0,0,0,8.833-8.833V2981.911A8.833,8.833,0,0,0,1853.471,2973.078Z" fill="none"/>
    </clipPath>
  </defs>
  <g id="Group_2223" data-name="Group 2223" transform="translate(-1622.304 -2973.078)">
    <g id="Group_1797" data-name="Group 1797" clip-path="url(#clip-path)">
      <g id="Group_1784" data-name="Group 1784">
        <path id="Path_1595" data-name="Path 1595" d="M1742.44,3122.715l-.135-.095v.183l.14-.062Z" fill="#f6bead"/>
        <path id="Path_1596" data-name="Path 1596" d="M1742.619,3122.937l.085-.02-.021-.032-.118-.083Z" fill="#f6bead"/>
        <path id="Path_1597" data-name="Path 1597" d="M1742.3,3122.8l.167.074-.027-.137Z" fill="#f6bead"/>
        <path id="Path_1598" data-name="Path 1598" d="M1742.565,3122.8l-.1-.071-.019.009.027.137.139.062.009,0Z" fill="#f6bead"/>
        <path id="Path_1599" data-name="Path 1599" d="M1742.61,3122.939l.012.005,0-.007Z" fill="#f6bead"/>
        <path id="Path_1600" data-name="Path 1600" d="M1742.622,3122.944l.139.062-.058-.089-.085.02Z" fill="#f6bead"/>
        <path id="Path_1601" data-name="Path 1601" d="M1742.169,3122.715l0,.025.14.063v-.183Z" fill="#f6bead"/>
        <path id="Path_1602" data-name="Path 1602" d="M1742.044,3122.8l-.118.083-.021.032.085.02Z" fill="#f6bead"/>
        <path id="Path_1603" data-name="Path 1603" d="M1742.138,3122.877l.167-.074-.14-.062Z" fill="#f6bead"/>
        <path id="Path_1604" data-name="Path 1604" d="M1741.905,3122.917l-.058.089.139-.062,0-.007Z" fill="#f6bead"/>
        <path id="Path_1605" data-name="Path 1605" d="M1742.084,3122.7l-.04.1.1-.071Z" fill="#f6bead"/>
        <path id="Path_1606" data-name="Path 1606" d="M1742.145,3122.732l-.1.071-.054.134.009,0,.139-.062.027-.137Z" fill="#f6bead"/>
        <path id="Path_1607" data-name="Path 1607" d="M1741.987,3122.944l.012-.005-.009,0Z" fill="#f6bead"/>
        <path id="Path_1608" data-name="Path 1608" d="M1742.34,3122.248l.006-.01-.024-.124-.018.045Z" fill="#f6bead"/>
        <path id="Path_1609" data-name="Path 1609" d="M1742.169,3122.715l.029-.15-.1.1-.014.036.061.027Z" fill="#f6bead"/>
        <path id="Path_1610" data-name="Path 1610" d="M1742.323,3122.114l-.018-.094v.139Z" fill="#f6bead"/>
        <path id="Path_1611" data-name="Path 1611" d="M1742.356,3122.288l-.01-.05-.006.01Z" fill="#f6bead"/>
        <path id="Path_1612" data-name="Path 1612" d="M1742.245,3122.394l.059-.091-.036-.055-.016.04-.019.1Z" fill="#f6bead"/>
        <path id="Path_1613" data-name="Path 1613" d="M1742.3,3122.3l.059.091.011-.011-.019-.1-.016-.04Z" fill="#f6bead"/>
        <path id="Path_1614" data-name="Path 1614" d="M1742.3,3122.159l-.018-.045-.024.124.006.01Z" fill="#f6bead"/>
        <path id="Path_1615" data-name="Path 1615" d="M1742.3,3122.02l-.018.094.018.045Z" fill="#f6bead"/>
        <path id="Path_1616" data-name="Path 1616" d="M1742.407,3122.549l0,.017.1.1-.052-.129-.012-.019Z" fill="#f6bead"/>
        <path id="Path_1617" data-name="Path 1617" d="M1742.525,3122.7l.04.1.118.083-.076-.117-.068-.07Z" fill="#f6bead"/>
        <path id="Path_1618" data-name="Path 1618" d="M1742.539,3122.7l.017-.008-.1-.151.052.129Z" fill="#f6bead"/>
        <path id="Path_1619" data-name="Path 1619" d="M1742.607,3122.769l-.051-.078-.017.008Z" fill="#f6bead"/>
        <path id="Path_1620" data-name="Path 1620" d="M1742.383,3122.424l.063.1,0,0-.061-.15-.014.015Z" fill="#f6bead"/>
        <path id="Path_1621" data-name="Path 1621" d="M1742.458,3122.54l-.009-.021,0,0Z" fill="#f6bead"/>
        <path id="Path_1622" data-name="Path 1622" d="M1742.389,3122.368l-.032-.081.019.1Z" fill="#f6bead"/>
        <path id="Path_1623" data-name="Path 1623" d="M1742.262,3122.238l-.01.05.016-.04Z" fill="#f6bead"/>
        <path id="Path_1624" data-name="Path 1624" d="M1742.446,3122.521l-.063-.1.024.125Z" fill="#f6bead"/>
        <path id="Path_1625" data-name="Path 1625" d="M1742.234,3122.383l-.008.041.019-.03Z" fill="#f6bead"/>
        <path id="Path_1626" data-name="Path 1626" d="M1742.163,3122.521l.039.027.024-.125Z" fill="#f6bead"/>
        <path id="Path_1627" data-name="Path 1627" d="M1742.375,3122.383l-.011.011.019.03Z" fill="#f6bead"/>
        <path id="Path_1628" data-name="Path 1628" d="M1742.3,3122.159v.144l.036-.055Z" fill="#f6bead"/>
        <path id="Path_1629" data-name="Path 1629" d="M1742.07,3122.7l.014.006.014-.036Z" fill="#f6bead"/>
        <path id="Path_1630" data-name="Path 1630" d="M1742.269,3122.248l.036.055v-.144Z" fill="#f6bead"/>
        <path id="Path_1631" data-name="Path 1631" d="M1741.34,3123.232l.135-.031.114-.08Z" fill="#f6bead"/>
        <path id="Path_1632" data-name="Path 1632" d="M1743.269,3123.232l-.249-.111.114.08Z" fill="#f6bead"/>
        <path id="Path_1633" data-name="Path 1633" d="M1742.722,3122.913l-.039-.027.021.032Z" fill="#f6bead"/>
        <path id="Path_1634" data-name="Path 1634" d="M1742.164,3122.741l0-.025-.024.017Z" fill="#f6bead"/>
        <path id="Path_1635" data-name="Path 1635" d="M1741.887,3122.913l.019,0,.021-.032Z" fill="#f6bead"/>
        <path id="Path_1636" data-name="Path 1636" d="M1742.12,3122.967l.017-.09-.139.062Z" fill="#f6bead"/>
        <path id="Path_1637" data-name="Path 1637" d="M1742.489,3122.967l.122-.028-.139-.062Z" fill="#f6bead"/>
        <path id="Path_1638" data-name="Path 1638" d="M1742.3,3122.3l-.059.091.059.062Z" fill="#f6bead"/>
        <path id="Path_1639" data-name="Path 1639" d="M1742.3,3122.456l-.059-.062-.019.03-.024.125.008.005Z" fill="#f6bead"/>
        <path id="Path_1640" data-name="Path 1640" d="M1742.364,3122.394l-.059-.091v.153Z" fill="#f6bead"/>
        <path id="Path_1641" data-name="Path 1641" d="M1742.3,3122.621l-.095-.066-.011.011-.029.15Z" fill="#f6bead"/>
        <path id="Path_1642" data-name="Path 1642" d="M1742.41,3122.565l0-.017-.008.005Z" fill="#f6bead"/>
        <path id="Path_1643" data-name="Path 1643" d="M1742.2,3122.549l0,.017.011-.011Z" fill="#f6bead"/>
        <path id="Path_1644" data-name="Path 1644" d="M1742.565,3122.8l-.04-.1-.061.027Z" fill="#f6bead"/>
        <path id="Path_1645" data-name="Path 1645" d="M1742.3,3122.621l.135.095-.029-.15-.011-.011Z" fill="#f6bead"/>
        <path id="Path_1646" data-name="Path 1646" d="M1742.539,3122.7l-.028-.03.014.036Z" fill="#f6bead"/>
        <path id="Path_1647" data-name="Path 1647" d="M1742.464,3122.732l.061-.027-.014-.036-.1-.1.029.15Z" fill="#f6bead"/>
        <path id="Path_1648" data-name="Path 1648" d="M1742.445,3122.741l.019-.009-.024-.017Z" fill="#f6bead"/>
        <path id="Path_1649" data-name="Path 1649" d="M1742.3,3122.456v.165l.095-.066Z" fill="#f6bead"/>
        <path id="Path_1650" data-name="Path 1650" d="M1742.209,3122.554l.095.066v-.165Z" fill="#f6bead"/>
        <path id="Path_1651" data-name="Path 1651" d="M1742.4,3122.554l.008-.005-.024-.125-.019-.03-.059.062Z" fill="#f6bead"/>
        <path id="Path_1652" data-name="Path 1652" d="M1741.34,3123.232l-.175.078h.155l.156-.109Z" fill="#f6bead"/>
        <path id="Path_1653" data-name="Path 1653" d="M1742.22,3122.368l-119.916-124.2v40.406l119.854,83.941Z" fill="#ffe4de"/>
        <path id="Path_1654" data-name="Path 1654" d="M1742.252,3122.288l.01-.05-96.852-149.16h-14.272a8.834,8.834,0,0,0-8.834,8.833v16.26l119.916,124.2Z" fill="#f7cfc5"/>
        <path id="Path_1655" data-name="Path 1655" d="M1742,3122.769l.051-.078L1622.3,3069.358v25.929l119.563,27.622Z" fill="#ffe4de"/>
        <path id="Path_1656" data-name="Path 1656" d="M1742.286,3122.114l-60.207-149.036H1645.41l96.853,149.16Z" fill="#ffe4de"/>
        <path id="Path_1657" data-name="Path 1657" d="M1741,3123.311h.162l.175-.078Z" fill="#f6bead"/>
        <path id="Path_1658" data-name="Path 1658" d="M1741.589,3123.122l.223-.157.055-.056L1622.3,3095.287v19.191a8.834,8.834,0,0,0,8.834,8.833H1741l.338-.079Z" fill="#f7cfc5"/>
        <path id="Path_1659" data-name="Path 1659" d="M1742.15,3122.54l.009-.021L1622.3,3038.577v30.781l119.748,53.333Z" fill="#f7cfc5"/>
        <path id="Path_1660" data-name="Path 1660" d="M1742.323,3122.114l60.207-149.036h-31.277L1742.3,3122.02Z" fill="#ffe4de"/>
        <path id="Path_1661" data-name="Path 1661" d="M1742.347,3122.238l96.853-149.16H1802.53l-60.207,149.036Z" fill="#f7cfc5"/>
        <path id="Path_1662" data-name="Path 1662" d="M1742.3,3122.02l-28.948-148.942h-31.277l60.207,149.036Z" fill="#f7cfc5"/>
        <path id="Path_1663" data-name="Path 1663" d="M1742.45,3122.519l119.854-83.941v-40.406l-119.916,124.2Z" fill="#f7cfc5"/>
        <path id="Path_1664" data-name="Path 1664" d="M1771.253,2973.078H1742.3V3122.02Z" fill="#f7cfc5"/>
        <path id="Path_1665" data-name="Path 1665" d="M1742.3,2973.078h-28.948L1742.3,3122.02Z" fill="#ffe4de"/>
        <path id="Path_1666" data-name="Path 1666" d="M1742.356,3122.288l.033.08,119.915-124.2v-16.26a8.833,8.833,0,0,0-8.833-8.833H1839.2l-96.852,149.16Z" fill="#ffe4de"/>
        <path id="Path_1667" data-name="Path 1667" d="M1742.684,3123.1l.086.213h.189l-.114-.176Z" fill="#f6bead"/>
        <path id="Path_1668" data-name="Path 1668" d="M1742.993,3123.169l.137.142h.16l-.156-.109Z" fill="#f6bead"/>
        <path id="Path_1669" data-name="Path 1669" d="M1742.844,3123.135l.114.176h.171l-.137-.142Z" fill="#f6bead"/>
        <path id="Path_1670" data-name="Path 1670" d="M1743.134,3123.2l.156.109h.155l-.175-.078Z" fill="#f6bead"/>
        <path id="Path_1671" data-name="Path 1671" d="M1741.475,3123.2l-.156.109h.16l.137-.142Z" fill="#f6bead"/>
        <path id="Path_1672" data-name="Path 1672" d="M1743.444,3123.311h.162l-.337-.078Z" fill="#f6bead"/>
        <path id="Path_1673" data-name="Path 1673" d="M1742.742,3122.909l.055.056.223.157.249.11.337.079h109.865a8.833,8.833,0,0,0,8.833-8.833v-19.191Z" fill="#ffe4de"/>
        <path id="Path_1674" data-name="Path 1674" d="M1742.506,3123.056l.049.254h.215l-.086-.213Z" fill="#f6bead"/>
        <path id="Path_1675" data-name="Path 1675" d="M1741.616,3123.169l-.137.142h.171l.114-.176Z" fill="#f6bead"/>
        <path id="Path_1676" data-name="Path 1676" d="M1741.925,3123.1l-.086.213h.215l.049-.254Z" fill="#f6bead"/>
        <path id="Path_1677" data-name="Path 1677" d="M1741.764,3123.135l-.114.176h.189l.086-.213Z" fill="#f6bead"/>
        <path id="Path_1678" data-name="Path 1678" d="M1742.3,3123.01v.3h.251l-.049-.254Z" fill="#f6bead"/>
        <path id="Path_1679" data-name="Path 1679" d="M1742.1,3123.056l-.049.254h.251v-.3Z" fill="#f6bead"/>
        <path id="Path_1680" data-name="Path 1680" d="M1742.2,3122.565l0-.017-.039-.027-.012.019-.052.129Z" fill="#f6bead"/>
        <path id="Path_1681" data-name="Path 1681" d="M1741.848,3123.006l.058-.089-.019,0-.074.052-.1.1Z" fill="#f6bead"/>
        <path id="Path_1682" data-name="Path 1682" d="M1741.812,3122.965l-.223.156.127-.056Z" fill="#f6bead"/>
        <path id="Path_1683" data-name="Path 1683" d="M1741.867,3122.909l-.055.057.074-.052Z" fill="#f6bead"/>
        <path id="Path_1684" data-name="Path 1684" d="M1742,3122.939l-.012.005-.062.153.178-.042.017-.089Z" fill="#f6bead"/>
        <path id="Path_1685" data-name="Path 1685" d="M1741.926,3122.886l.076-.117-.135.14.02,0Z" fill="#f6bead"/>
        <path id="Path_1686" data-name="Path 1686" d="M1741.848,3123.006l-.083.128.161-.037.062-.153Z" fill="#f6bead"/>
        <path id="Path_1687" data-name="Path 1687" d="M1741.716,3123.065l-.1.1.149-.034.083-.128Z" fill="#f6bead"/>
        <path id="Path_1688" data-name="Path 1688" d="M1741.589,3123.122l-.114.08.141-.032.1-.1Z" fill="#f6bead"/>
        <path id="Path_1689" data-name="Path 1689" d="M1742.159,3122.519l-.009.021.012-.019Z" fill="#f6bead"/>
        <path id="Path_1690" data-name="Path 1690" d="M1742.252,3122.288l-.032.081.014.015Z" fill="#f6bead"/>
        <path id="Path_1691" data-name="Path 1691" d="M1742.044,3122.8l.04-.1-.014-.006-.068.07-.076.117Z" fill="#f6bead"/>
        <path id="Path_1692" data-name="Path 1692" d="M1742.226,3122.424l.008-.041-.014-.015-.061.15,0,0Z" fill="#f6bead"/>
        <path id="Path_1693" data-name="Path 1693" d="M1742.1,3122.669l.052-.129-.1.151.017.008Z" fill="#f6bead"/>
        <path id="Path_1694" data-name="Path 1694" d="M1742.052,3122.691l-.051.078.068-.07Z" fill="#f6bead"/>
        <path id="Path_1695" data-name="Path 1695" d="M1742.61,3122.939l-.122.028.017.089.178.042-.062-.153Z" fill="#f6bead"/>
        <path id="Path_1696" data-name="Path 1696" d="M1742.7,3122.917l.058.089.132.059-.1-.1-.074-.052Z" fill="#f6bead"/>
        <path id="Path_1697" data-name="Path 1697" d="M1742.993,3123.169l.141.032-.114-.08-.127-.056Z" fill="#f6bead"/>
        <path id="Path_1698" data-name="Path 1698" d="M1742.8,3122.965l-.055-.057-.02,0Z" fill="#f6bead"/>
        <path id="Path_1699" data-name="Path 1699" d="M1742.1,3123.056l.2-.046-.184-.042Z" fill="#f6bead"/>
        <path id="Path_1700" data-name="Path 1700" d="M1742.607,3122.769l.135.14,119.563-27.622v-25.929l-119.748,53.333Z" fill="#f7cfc5"/>
        <path id="Path_1701" data-name="Path 1701" d="M1742.683,3122.886l.039.027.02,0-.135-.14Z" fill="#f6bead"/>
        <path id="Path_1702" data-name="Path 1702" d="M1743.02,3123.122l-.223-.156.1.1Z" fill="#f6bead"/>
        <path id="Path_1703" data-name="Path 1703" d="M1742.3,3123.01l.2.046-.017-.089Z" fill="#f6bead"/>
        <path id="Path_1704" data-name="Path 1704" d="M1742.761,3123.006l.083.128.149.034-.1-.1Z" fill="#f6bead"/>
        <path id="Path_1705" data-name="Path 1705" d="M1742.138,3122.877l-.017.09.184.042v-.207Z" fill="#f6bead"/>
        <path id="Path_1706" data-name="Path 1706" d="M1742.471,3122.877l-.167-.074v.207l.184-.042Z" fill="#f6bead"/>
        <path id="Path_1707" data-name="Path 1707" d="M1742.622,3122.944l.062.153.161.037-.083-.128Z" fill="#f6bead"/>
        <path id="Path_1708" data-name="Path 1708" d="M1742.458,3122.54l.1.151,119.748-53.333v-30.781l-119.854,83.941Z" fill="#ffe4de"/>
      </g>
      <g id="Group_1785" data-name="Group 1785">
        <path id="Path_1709" data-name="Path 1709" d="M1713.109,3040.263c1.385,10.66,1.732,41.028,9.244,62.469,0,0,1.362,16.877,2.333,32.643h10.8v-99.464a.123.123,0,0,1,0-.219c-.315-.216-1.9-.43-8.6.219a51.933,51.933,0,0,0-14.023,3.981A.516.516,0,0,1,1713.109,3040.263Z" fill="#ff8760"/>
        <path id="Path_1710" data-name="Path 1710" d="M1703.861,3044.213l.006.277c2.507-1.327,4.83-2.575,6.551-3.54C1706.551,3042.7,1703.861,3044.213,1703.861,3044.213Z" fill="#ff8760"/>
        <path id="Path_1711" data-name="Path 1711" d="M1735.487,3035.911v99.464h9.6c.974-15.567,2.4-32.643,2.4-32.643,7.72-22.037,7.872-53.5,9.361-63.311,1.233.857-2.667-2.534-12.753-3.51-6.7-.649-8.288-.435-8.6-.219A.124.124,0,0,1,1735.487,3035.911Z" fill="#ff8760"/>
        <path id="Path_1712" data-name="Path 1712" d="M1735.487,3035.911a.124.124,0,0,0,0-.219A.124.124,0,0,0,1735.487,3035.911Z" fill="#ff8760"/>
        <path id="Path_1713" data-name="Path 1713" d="M1712.279,3039.876c-.482.292-1.118.658-1.861,1.074.772-.347,1.588-.7,2.443-1.058A.537.537,0,0,0,1712.279,3039.876Z" fill="#fff"/>
        <path id="Path_1714" data-name="Path 1714" d="M1703.867,3044.49c-6.956,3.682-15.283,7.949-15.809,8.307-2.2,1.5,13.636,66.606,13.257,70.485a70.612,70.612,0,0,1-2.932,12.093h7.715Z" fill="#fff"/>
        <path id="Path_1715" data-name="Path 1715" d="M1724.686,3135.375c-.971-15.766-2.333-32.643-2.333-32.643-7.512-21.441-7.859-51.809-9.244-62.469a.516.516,0,0,0-.248-.371c-.855.355-1.671.711-2.443,1.058-1.721.965-4.044,2.213-6.551,3.54l2.231,90.885Z" fill="#fff"/>
        <path id="Path_1716" data-name="Path 1716" d="M1771.45,3135.375a70.614,70.614,0,0,1-2.932-12.093c-.379-3.879,15.455-68.986,13.257-70.485-.5-.339-7.985-4.181-14.684-7.712l-2.215,90.29Z" fill="#fff"/>
        <path id="Path_1717" data-name="Path 1717" d="M1747.481,3102.732s-1.422,17.076-2.4,32.643h19.791l2.215-90.29c-4.7-2.48-9.016-4.807-10.249-5.664C1755.353,3049.229,1755.2,3080.7,1747.481,3102.732Z" fill="#fff"/>
      </g>
      <g id="Group_1786" data-name="Group 1786">
        <path id="Path_1718" data-name="Path 1718" d="M1738.019,3055.344l2.876,55.894-4.805,8.022-6.542-7.351s2.847-38.288,1.968-56.893C1731.516,3055.016,1735.373,3055.344,1738.019,3055.344Z" fill="#22195b"/>
      </g>
      <path id="Path_1719" data-name="Path 1719" d="M1742.18,3028.478s-.3,6,2.89,7.841c0,0-5.644,10.414-10.2,10.392s-13.919-8.83-13.919-8.83,4.036-1.908,4.917-10.725C1726.136,3024.466,1742.18,3028.478,1742.18,3028.478Z" fill="#ffe6cd"/>
      <g id="Group_1788" data-name="Group 1788">
        <g id="Group_1787" data-name="Group 1787">
          <path id="Path_1720" data-name="Path 1720" d="M1743.826,2999.716s5.85,30.838,1.343,31.862-19.325,2.721-19.8-.87-1.148-35.434,2.279-35.843S1743.058,2993.026,1743.826,2999.716Z" fill="#ffe6cd"/>
          <path id="Path_1721" data-name="Path 1721" d="M1726.871,3009.807s-2.724-3.22-4.466-.827c-3.133,4.3,3.715,6.91,4.726,6.2S1726.871,3009.807,1726.871,3009.807Z" fill="#ffe6cd"/>
          <path id="Path_1722" data-name="Path 1722" d="M1726.619,3011.939a12.4,12.4,0,0,0-3.108-2.047.139.139,0,0,0-.147.233c1.052.858,2.966,2.481,3.1,3.022Z" fill="#ffd5ac" opacity="0.3"/>
          <path id="Path_1723" data-name="Path 1723" d="M1739.606,3009.3s.947,3.889,1.447,5.829a3.151,3.151,0,0,1-1.157,2.984l1.857-.126s1.775-1.843,1.323-3.011A16.024,16.024,0,0,0,1739.606,3009.3Z" fill="#ffd5ac" opacity="0.5"/>
          <path id="Path_1724" data-name="Path 1724" d="M1745.828,2995.1s.212,5.052-7.234,5.363c-8.342.349-12.223,2.149-12.793,3.8s-3.192-7.45-.062-10.763,17.284-.17,19.14-2.124C1746.318,2989.857,1745.828,2995.1,1745.828,2995.1Z" fill="#22195b"/>
          <path id="Path_1725" data-name="Path 1725" d="M1728.528,3001.542s-1.646,8.709-1.108,10.045-2.037-2.228-2.273-3.138.519-8.5.519-8.5Z" fill="#22195b"/>
          <circle id="Ellipse_820" data-name="Ellipse 820" cx="1.118" cy="1.118" r="1.118" transform="translate(1733.869 3008.18)" fill="#22195b"/>
          <circle id="Ellipse_821" data-name="Ellipse 821" cx="1.118" cy="1.118" r="1.118" transform="translate(1742.032 3007.063)" fill="#22195b"/>
        </g>
        <path id="Path_1726" data-name="Path 1726" d="M1741.445,3019.982s-3.183.041-4.047-.875c0,0,.555,2.944,2.02,2.774S1741.445,3019.982,1741.445,3019.982Z" fill="#22195b"/>
        <path id="Path_1727" data-name="Path 1727" d="M1728.653,3030.383s7.325,2.581,14.379,1.7" fill="none" stroke="#22195b" stroke-linecap="round" stroke-miterlimit="10" stroke-width="0.45"/>
      </g>
      <path id="Path_1728" data-name="Path 1728" d="M1737.156,3048.62s-.664-1.891-2.287-1.909c-1.266-.014-2.5,2.178-3.719,3.417a6.454,6.454,0,0,0-.515,6.286s6.519.229,8.253-.523A12.955,12.955,0,0,0,1737.156,3048.62Z" fill="#22195b"/>
      <g id="Group_1789" data-name="Group 1789">
        <path id="Path_1729" data-name="Path 1729" d="M1738.664,3048.436l-.033.028A.048.048,0,0,1,1738.664,3048.436Z" fill="#f2f2f2"/>
      </g>
      <g id="Group_1790" data-name="Group 1790">
        <path id="Path_1730" data-name="Path 1730" d="M1738.888,3048.436l.033.028A.047.047,0,0,0,1738.888,3048.436Z" fill="#f2f2f2"/>
      </g>
      <path id="Path_1731" data-name="Path 1731" d="M1712.269,3039.893c-2.785,1.714-5.748,2.4-8.408,4.32l6.982,45.6-3.081,6.958a2.855,2.855,0,0,0,1,3.511l13.652,9.355-.336-7.665c-7.511-21.439-7.6-51.08-8.966-61.705A.544.544,0,0,0,1712.269,3039.893Z" fill="#f2f2f2"/>
      <path id="Path_1732" data-name="Path 1732" d="M1756.842,3039.421c-2.725.437,1.922,38.931,1.922,38.931s30.284,8.485,31.335,9.281c0,0,10.519,4.95,11.59-2.908.643-4.715-6.471-21.936-17.865-30.358A119.5,119.5,0,0,0,1756.842,3039.421Z" fill="#fff"/>
      <path id="Path_1733" data-name="Path 1733" d="M1756.842,3039.421c2.99,2.077,6.239,2.7,9.13,4.792l-6.982,45.6,3.081,6.958a2.855,2.855,0,0,1-1,3.511l-13.652,9.355.336-7.665C1755.478,3079.932,1755.353,3049.23,1756.842,3039.421Z" fill="#f2f2f2"/>
      <g id="Group_1793" data-name="Group 1793">
        <g id="Group_1792" data-name="Group 1792">
          <g id="Group_1791" data-name="Group 1791">
            <path id="Path_1734" data-name="Path 1734" d="M1769.18,3060.966a15.484,15.484,0,0,1-4.024-9.55,46.013,46.013,0,0,1,.641-10.529,3.058,3.058,0,0,1,.99-2.241c1.07-.72,2.547.206,3.152,1.346,1.819,3.427,5.1,13.218,6.747,14.175a5.311,5.311,0,0,1,2.094,2.021,2.912,2.912,0,0,1,.021,2.818c-.715,1.167-2.268,1.47-3.636,1.484s-2.828-.125-4.019.549" fill="#ffe6cd"/>
            <path id="Path_1735" data-name="Path 1735" d="M1798.067,3079.178c-.669-1.136-18.5-24.723-18.5-24.723-5.686-1-11.744,6.711-11.744,6.711s16.552,27.826,17.832,29.191c0,0,1.146,2.613,8.383.478C1807.8,3086.776,1799.057,3080.862,1798.067,3079.178Z" fill="#fff"/>
          </g>
          <path id="Path_1736" data-name="Path 1736" d="M1779.567,3054.455l2.741,3.74c-2.219.637-6.055,2.529-12.375,7.683-1.281-2.854-2.11-4.712-2.11-4.712S1773.881,3053.46,1779.567,3054.455Z" fill="#ff8760"/>
        </g>
        <line id="Line_510" data-name="Line 510" x2="8.901" y2="15.329" transform="translate(1770.254 3064.909)" fill="none" stroke="#22195b" stroke-linecap="round" stroke-miterlimit="10" stroke-width="0.45"/>
      </g>
      <g id="Group_1796" data-name="Group 1796">
        <g id="Group_1795" data-name="Group 1795">
          <g id="Group_1794" data-name="Group 1794">
            <path id="Path_1737" data-name="Path 1737" d="M1757.86,3062.172a15.478,15.478,0,0,0,4.023-9.551,46.077,46.077,0,0,0-.64-10.528,3.066,3.066,0,0,0-.99-2.241c-1.071-.72-2.548.206-3.153,1.346-1.819,3.427-5.1,13.218-6.747,14.175a5.315,5.315,0,0,0-2.094,2.021,2.911,2.911,0,0,0-.02,2.818c.714,1.167,2.267,1.47,3.636,1.484s2.827-.125,4.019.549" fill="#ffe6cd"/>
            <path id="Path_1738" data-name="Path 1738" d="M1723.446,3088.653c.669-1.136,24.026-32.992,24.026-32.992,5.686-.995,11.745,6.711,11.745,6.711s-22.079,36.095-23.359,37.459c0,0-1.146,2.614-8.383.479C1713.716,3096.251,1722.456,3090.336,1723.446,3088.653Z" fill="#fff"/>
          </g>
          <path id="Path_1739" data-name="Path 1739" d="M1747.472,3055.661l-2.741,3.74c2.219.637,6.055,2.529,12.376,7.682,1.281-2.853,2.109-4.711,2.109-4.711S1753.158,3054.665,1747.472,3055.661Z" fill="#ff8760"/>
        </g>
        <line id="Line_511" data-name="Line 511" x1="14.427" y2="23.598" transform="translate(1742.358 3066.115)" fill="none" stroke="#22195b" stroke-linecap="round" stroke-miterlimit="10" stroke-width="0.45"/>
      </g>
      <path id="Path_1740" data-name="Path 1740" d="M1734.341,3046.889l-8.7,8.831-11.18-10.17" fill="none" stroke="#22195b" stroke-linecap="round" stroke-linejoin="round" stroke-width="0.45"/>
      <path id="Path_1741" data-name="Path 1741" d="M1735.41,3046.889l8.7,8.831,11.18-10.17" fill="none" stroke="#22195b" stroke-linecap="round" stroke-linejoin="round" stroke-width="0.45"/>
      <path id="Path_1742" data-name="Path 1742" d="M1696.973,3054.367l35.695,21.53,3.89,22.953s-.726,3.019-7.56,3.035-29.889-16.459-29.889-16.459Z" fill="#fff"/>
      <line id="Line_512" data-name="Line 512" x2="15.5" y2="9.976" transform="translate(1700.453 3086.371)" fill="none" stroke="#22195b" stroke-linecap="round" stroke-miterlimit="10" stroke-width="0.45"/>
    </g>
  </g>
</svg>
