<svg xmlns="http://www.w3.org/2000/svg" xmlns:xlink="http://www.w3.org/1999/xlink" width="240" height="150.232" viewBox="0 0 240 150.232">
  <defs>
    <clipPath id="clip-path">
      <rect id="Rectangle_1014" data-name="Rectangle 1014" width="240" height="150.233" rx="8.833" transform="translate(1619.884 2525.291)" fill="none"/>
    </clipPath>
  </defs>
  <g id="Group_2224" data-name="Group 2224" transform="translate(-1619.884 -2525.291)">
    <g id="Group_1464" data-name="Group 1464" clip-path="url(#clip-path)">
      <path id="Path_1403" data-name="Path 1403" d="M8.833,0H231.167A8.833,8.833,0,0,1,240,8.833V141.4a8.833,8.833,0,0,1-8.833,8.833H8.833A8.833,8.833,0,0,1,0,141.4V8.833A8.833,8.833,0,0,1,8.833,0Z" transform="translate(1619.884 2525.291)" fill="#ffe4de"/>
      <g id="Group_1066" data-name="Group 1066" transform="translate(-83.375 -315.979)">
        <g id="Group_1060" data-name="Group 1060">
          <g id="Group_1054" data-name="Group 1054" opacity="0.5">
            <circle id="Ellipse_520" data-name="Ellipse 520" cx="2.163" cy="2.163" r="2.163" transform="translate(1755.194 2876.029)" fill="#fff"/>
            <circle id="Ellipse_521" data-name="Ellipse 521" cx="2.163" cy="2.163" r="2.163" transform="translate(1755.194 2885.917)" fill="#fff"/>
            <circle id="Ellipse_522" data-name="Ellipse 522" cx="2.163" cy="2.163" r="2.163" transform="translate(1755.194 2895.805)" fill="#fff"/>
            <circle id="Ellipse_523" data-name="Ellipse 523" cx="2.163" cy="2.163" r="2.163" transform="translate(1755.194 2905.691)" fill="#fff"/>
          </g>
          <g id="Group_1055" data-name="Group 1055" opacity="0.5">
            <circle id="Ellipse_524" data-name="Ellipse 524" cx="2.163" cy="2.163" r="2.163" transform="translate(1763.846 2876.029)" fill="#fff"/>
            <circle id="Ellipse_525" data-name="Ellipse 525" cx="2.163" cy="2.163" r="2.163" transform="translate(1763.846 2885.917)" fill="#fff"/>
            <circle id="Ellipse_526" data-name="Ellipse 526" cx="2.163" cy="2.163" r="2.163" transform="translate(1763.846 2895.805)" fill="#fff"/>
            <circle id="Ellipse_527" data-name="Ellipse 527" cx="2.163" cy="2.163" r="2.163" transform="translate(1763.846 2905.691)" fill="#fff"/>
          </g>
          <g id="Group_1056" data-name="Group 1056" opacity="0.5">
            <circle id="Ellipse_528" data-name="Ellipse 528" cx="2.163" cy="2.163" r="2.163" transform="translate(1772.498 2876.029)" fill="#fff"/>
            <circle id="Ellipse_529" data-name="Ellipse 529" cx="2.163" cy="2.163" r="2.163" transform="translate(1772.498 2885.917)" fill="#fff"/>
            <circle id="Ellipse_530" data-name="Ellipse 530" cx="2.163" cy="2.163" r="2.163" transform="translate(1772.498 2895.805)" fill="#fff"/>
            <circle id="Ellipse_531" data-name="Ellipse 531" cx="2.163" cy="2.163" r="2.163" transform="translate(1772.498 2905.691)" fill="#fff"/>
          </g>
          <g id="Group_1057" data-name="Group 1057" opacity="0.5">
            <circle id="Ellipse_532" data-name="Ellipse 532" cx="2.163" cy="2.163" r="2.163" transform="translate(1781.149 2876.029)" fill="#fff"/>
            <circle id="Ellipse_533" data-name="Ellipse 533" cx="2.163" cy="2.163" r="2.163" transform="translate(1781.149 2885.917)" fill="#fff"/>
            <circle id="Ellipse_534" data-name="Ellipse 534" cx="2.163" cy="2.163" r="2.163" transform="translate(1781.149 2895.805)" fill="#fff"/>
            <circle id="Ellipse_535" data-name="Ellipse 535" cx="2.163" cy="2.163" r="2.163" transform="translate(1781.149 2905.691)" fill="#fff"/>
          </g>
          <g id="Group_1058" data-name="Group 1058" opacity="0.5">
            <circle id="Ellipse_536" data-name="Ellipse 536" cx="2.163" cy="2.163" r="2.163" transform="translate(1789.801 2876.029)" fill="#fff"/>
            <circle id="Ellipse_537" data-name="Ellipse 537" cx="2.163" cy="2.163" r="2.163" transform="translate(1789.801 2885.917)" fill="#fff"/>
            <circle id="Ellipse_538" data-name="Ellipse 538" cx="2.163" cy="2.163" r="2.163" transform="translate(1789.801 2895.805)" fill="#fff"/>
            <circle id="Ellipse_539" data-name="Ellipse 539" cx="2.163" cy="2.163" r="2.163" transform="translate(1789.801 2905.691)" fill="#fff"/>
          </g>
          <g id="Group_1059" data-name="Group 1059" opacity="0.5">
            <circle id="Ellipse_540" data-name="Ellipse 540" cx="2.163" cy="2.163" r="2.163" transform="translate(1798.453 2876.029)" fill="#fff"/>
            <circle id="Ellipse_541" data-name="Ellipse 541" cx="2.163" cy="2.163" r="2.163" transform="translate(1798.453 2885.917)" fill="#fff"/>
            <circle id="Ellipse_542" data-name="Ellipse 542" cx="2.163" cy="2.163" r="2.163" transform="translate(1798.453 2895.805)" fill="#fff"/>
            <circle id="Ellipse_543" data-name="Ellipse 543" cx="2.163" cy="2.163" r="2.163" transform="translate(1798.453 2905.691)" fill="#fff"/>
          </g>
        </g>
        <g id="Group_1065" data-name="Group 1065">
          <g id="Group_1061" data-name="Group 1061" opacity="0.5">
            <circle id="Ellipse_544" data-name="Ellipse 544" cx="2.163" cy="2.163" r="2.163" transform="translate(1719.799 2876.029)" fill="#fff"/>
            <circle id="Ellipse_545" data-name="Ellipse 545" cx="2.163" cy="2.163" r="2.163" transform="translate(1719.799 2885.917)" fill="#fff"/>
            <circle id="Ellipse_546" data-name="Ellipse 546" cx="2.163" cy="2.163" r="2.163" transform="translate(1719.799 2895.805)" fill="#fff"/>
            <circle id="Ellipse_547" data-name="Ellipse 547" cx="2.163" cy="2.163" r="2.163" transform="translate(1719.799 2905.691)" fill="#fff"/>
          </g>
          <g id="Group_1062" data-name="Group 1062" opacity="0.5">
            <circle id="Ellipse_548" data-name="Ellipse 548" cx="2.163" cy="2.163" r="2.163" transform="translate(1728.45 2876.029)" fill="#fff"/>
            <circle id="Ellipse_549" data-name="Ellipse 549" cx="2.163" cy="2.163" r="2.163" transform="translate(1728.45 2885.917)" fill="#fff"/>
            <circle id="Ellipse_550" data-name="Ellipse 550" cx="2.163" cy="2.163" r="2.163" transform="translate(1728.45 2895.805)" fill="#fff"/>
            <circle id="Ellipse_551" data-name="Ellipse 551" cx="2.163" cy="2.163" r="2.163" transform="translate(1728.45 2905.691)" fill="#fff"/>
          </g>
          <g id="Group_1063" data-name="Group 1063" opacity="0.5">
            <circle id="Ellipse_552" data-name="Ellipse 552" cx="2.163" cy="2.163" r="2.163" transform="translate(1737.102 2876.029)" fill="#fff"/>
            <circle id="Ellipse_553" data-name="Ellipse 553" cx="2.163" cy="2.163" r="2.163" transform="translate(1737.102 2885.917)" fill="#fff"/>
            <circle id="Ellipse_554" data-name="Ellipse 554" cx="2.163" cy="2.163" r="2.163" transform="translate(1737.102 2895.805)" fill="#fff"/>
            <circle id="Ellipse_555" data-name="Ellipse 555" cx="2.163" cy="2.163" r="2.163" transform="translate(1737.102 2905.691)" fill="#fff"/>
          </g>
          <g id="Group_1064" data-name="Group 1064" opacity="0.5">
            <circle id="Ellipse_556" data-name="Ellipse 556" cx="2.163" cy="2.163" r="2.163" transform="translate(1745.754 2876.029)" fill="#fff"/>
            <circle id="Ellipse_557" data-name="Ellipse 557" cx="2.163" cy="2.163" r="2.163" transform="translate(1745.754 2885.917)" fill="#fff"/>
            <circle id="Ellipse_558" data-name="Ellipse 558" cx="2.163" cy="2.163" r="2.163" transform="translate(1745.754 2895.805)" fill="#fff"/>
            <circle id="Ellipse_559" data-name="Ellipse 559" cx="2.163" cy="2.163" r="2.163" transform="translate(1745.754 2905.691)" fill="#fff"/>
          </g>
        </g>
      </g>
      <g id="Group_1448" data-name="Group 1448">
        <path id="Path_1038" data-name="Path 1038" d="M1815.472,2552.161v4.359a1.9,1.9,0,1,1-1.8,0v-4.359h-8.027v4.359a1.9,1.9,0,1,1-1.8,0v-4.359h-8.027v4.359a1.9,1.9,0,1,1-1.8,0v-4.359H1786v4.359a1.9,1.9,0,1,1-1.8,0v-4.359h-8.028v4.359a1.9,1.9,0,1,1-1.8,0v-4.359h-8.028v4.359a1.9,1.9,0,1,1-1.8,0v-4.359h-8.028v4.359a1.9,1.9,0,1,1-1.8,0v-4.359H1746.7v4.359a1.9,1.9,0,1,1-1.8,0v-4.359h-7.562v103.055H1823.2V2552.161Z" fill="#f6bead"/>
        <rect id="Rectangle_1007" data-name="Rectangle 1007" width="58.133" height="5.107" transform="translate(1751.204 2575.576)" fill="#fff"/>
        <rect id="Rectangle_1008" data-name="Rectangle 1008" width="58.133" height="5.107" transform="translate(1751.204 2589.583)" fill="#fff"/>
        <rect id="Rectangle_1009" data-name="Rectangle 1009" width="58.133" height="5.107" transform="translate(1751.204 2603.592)" fill="#fff"/>
        <rect id="Rectangle_1010" data-name="Rectangle 1010" width="58.133" height="5.107" transform="translate(1751.204 2617.6)" fill="#fff"/>
        <rect id="Rectangle_1011" data-name="Rectangle 1011" width="58.133" height="5.107" transform="translate(1751.204 2631.607)" fill="#fff"/>
      </g>
      <g id="Group_1458" data-name="Group 1458">
        <path id="Path_1039" data-name="Path 1039" d="M1714.629,2587.535c-2.079.334.939,29.691.939,29.691s30.972,10.24,31.774,10.847c0,0,14.5-14.838,10.091-17.2C1745.822,2604.662,1714.629,2587.535,1714.629,2587.535Z" fill="#fff"/>
        <g id="Group_1450" data-name="Group 1450">
          <g id="Group_1449" data-name="Group 1449">
            <path id="Path_1040" data-name="Path 1040" d="M1774.122,2591.756l8.67.531s2.956,2.158-1.334,4.651a17.448,17.448,0,0,1-8.54,2.333l-5.058-.482Z" fill="#ffe6cd"/>
            <path id="Path_1041" data-name="Path 1041" d="M1770.618,2590.5s3.955-.6,4.823-1.313,1.329,1.024.005,1.568-1.85,1.391-.706,1.3,2.656-.341,3.006.313-.514,1.363-.514,1.363a.522.522,0,0,1,.572.412c.1.468-.2,1.324-.781,1.328,0,0,.608-.031.6.543s-.256,1.206-.758,1.186c0,0,.5.041.341,1.007s-5.339,1.1-5.929.933-3.041-1.334-3.041-1.334Z" fill="#ffe6cd"/>
            <path id="Path_1042" data-name="Path 1042" d="M1770.618,2590.5s-2.3-.2-2.758,1.257-3.143,8.34-3.143,8.34l11.544-3.846Z" fill="#ffe6cd"/>
            <path id="Path_1043" data-name="Path 1043" d="M1746.353,2619.623c.51-.867,18.324-25.161,18.324-25.161,4.336-.76,8.957,5.118,8.957,5.118s-16.839,27.528-17.815,28.568c0,0-.874,1.993-6.393.365C1738.933,2625.418,1745.6,2620.907,1746.353,2619.623Z" fill="#fff"/>
          </g>
          <path id="Path_1044" data-name="Path 1044" d="M1764.677,2594.462s-.812,1.106-2.091,2.852c1.693.486,4.618,1.928,9.439,5.859.977-2.176,1.609-3.593,1.609-3.593S1769.013,2593.7,1764.677,2594.462Z" fill="#ff8760"/>
        </g>
        <path id="Path_1045" data-name="Path 1045" d="M1720.472,2679.631h-37.008V2599.3l31.862-8.739Z" fill="#ff8760"/>
        <path id="Path_1046" data-name="Path 1046" d="M1696.525,2579.18a23.086,23.086,0,0,1,4.432.492l.9,71.821c-52.069-12.753-28.924-55.892-16.891-67.354A29.168,29.168,0,0,0,1696.525,2579.18Z" fill="#ff8760"/>
        <path id="Path_1047" data-name="Path 1047" d="M1701.81,2579.18s5.837,3.869,12.292,8.355c-1.135,7.481-6.4,40.928-12.292,57.735Z" fill="#ff8760"/>
        <g id="Group_1452" data-name="Group 1452">
          <path id="Path_1048" data-name="Path 1048" d="M1703.2,2594.394l2.193,42.628-5.549,7.189-3.1-6.678s2.171-29.2,1.5-43.389C1698.24,2594.144,1701.181,2594.394,1703.2,2594.394Z" fill="#22195b"/>
          <g id="Group_1451" data-name="Group 1451">
            <path id="Path_1049" data-name="Path 1049" d="M1699.2,2596.051l.3,26.125-1.492-.752c.325-8.554.6-19.616.234-27.28,0,0,2.941.25,4.96.25l.024.333A8.817,8.817,0,0,1,1699.2,2596.051Z" fill="#e6e6e6"/>
          </g>
        </g>
        <path id="Path_1050" data-name="Path 1050" d="M1705.33,2575.279s0,6.5,2.432,7.9c0,0-3.206,6.42-6.681,6.4s-11.942-7.135-11.942-7.135,3.078-1.455,3.751-8.18C1693.095,2572.219,1705.33,2575.279,1705.33,2575.279Z" fill="#ffe6cd"/>
        <path id="Path_1051" data-name="Path 1051" d="M1714.1,2587.535c2.281,1.584,19.424,9.488,19.016,10.2-1.007,1.761-10.4,50.8-10.111,53.756.8,8.169,9.866,27.946,5.7,28.755-4.708.916-22.567.643-23.941-.482s2.193-43.946,2.193-43.946C1712.851,2619.013,1712.967,2595.016,1714.1,2587.535Z" fill="#fff"/>
        <g id="Group_1454" data-name="Group 1454">
          <g id="Group_1453" data-name="Group 1453">
            <path id="Path_1052" data-name="Path 1052" d="M1706.586,2553.343s4.461,23.519,1.024,24.3-14.738,2.075-15.1-.664-.876-27.024,1.738-27.336S1706,2548.241,1706.586,2553.343Z" fill="#ffe6cd"/>
            <path id="Path_1053" data-name="Path 1053" d="M1693.655,2561.039s-2.077-2.456-3.406-.631c-2.389,3.283,2.833,5.271,3.6,4.732S1693.655,2561.039,1693.655,2561.039Z" fill="#ffe6cd"/>
            <path id="Path_1054" data-name="Path 1054" d="M1693.463,2562.665a9.464,9.464,0,0,0-2.37-1.561.106.106,0,0,0-.112.178,11.2,11.2,0,0,1,2.361,2.3Z" fill="#ffd5ac" opacity="0.3"/>
            <path id="Path_1055" data-name="Path 1055" d="M1703.368,2560.651s.722,2.966,1.1,4.445a2.4,2.4,0,0,1-.882,2.276l1.416-.1s1.354-1.4,1.009-2.3A12.224,12.224,0,0,0,1703.368,2560.651Z" fill="#ffd5ac" opacity="0.5"/>
            <path id="Path_1056" data-name="Path 1056" d="M1708.113,2549.823s.162,3.853-5.518,4.09c-6.361.266-9.321,1.639-9.756,2.894s-2.434-5.681-.047-8.209,13.182-.129,14.6-1.619C1708.486,2545.824,1708.113,2549.823,1708.113,2549.823Z" fill="#22195b"/>
            <path id="Path_1057" data-name="Path 1057" d="M1694.919,2554.736s-1.255,6.642-.845,7.661-1.554-1.7-1.734-2.394a63.078,63.078,0,0,1,.4-6.485Z" fill="#22195b"/>
            <circle id="Ellipse_697" data-name="Ellipse 697" cx="0.852" cy="0.852" r="0.852" transform="translate(1698.992 2559.799)" fill="#22195b"/>
            <circle id="Ellipse_698" data-name="Ellipse 698" cx="0.852" cy="0.852" r="0.852" transform="translate(1705.218 2558.946)" fill="#22195b"/>
          </g>
          <path id="Path_1058" data-name="Path 1058" d="M1704.77,2568.8s-2.428.032-3.086-.667c0,0,.423,2.245,1.54,2.115S1704.77,2568.8,1704.77,2568.8Z" fill="#22195b"/>
          <path id="Path_1059" data-name="Path 1059" d="M1695.014,2576.732s5.716,2.353,11.1,1.681" fill="none" stroke="#22195b" stroke-linecap="round" stroke-miterlimit="10" stroke-width="0.45"/>
        </g>
        <path id="Path_1060" data-name="Path 1060" d="M1703.213,2588.978a17.965,17.965,0,0,0-5.37.144,9.878,9.878,0,0,0,.4,5.8s3.661.374,4.984-.2C1703.224,2594.723,1704.817,2591.555,1703.213,2588.978Z" fill="#22195b"/>
        <path id="Path_1061" data-name="Path 1061" d="M1700.849,2588.859c.158-.359,2.565,3.546,3.773,5.547a1.1,1.1,0,0,0,1.679.254l7.919-7.029-6.566-4.538Z" fill="#ff8760"/>
        <g id="Group_1455" data-name="Group 1455">
          <path id="Path_1062" data-name="Path 1062" d="M1700.874,2588.838l-.025.021A.035.035,0,0,1,1700.874,2588.838Z" fill="#f2f2f2"/>
        </g>
        <path id="Path_1063" data-name="Path 1063" d="M1701.07,2588.859c-.158-.359-2.565,3.546-3.774,5.547a1.1,1.1,0,0,1-1.678.254l-11.134-10.3L1690.2,2581Z" fill="#ff8760"/>
        <path id="Path_1064" data-name="Path 1064" d="M1700.791,2588.9c-.158-.358-2.286,3.509-3.495,5.51a1.1,1.1,0,0,1-1.678.254l-6.479-5.995" fill="none" stroke="#22195b" stroke-linecap="round" stroke-miterlimit="10" stroke-width="0.45"/>
        <path id="Path_1065" data-name="Path 1065" d="M1700.791,2588.9c.158-.358,2.959,3.509,4.168,5.51a1.1,1.1,0,0,0,1.678.254l6.479-5.995" fill="none" stroke="#22195b" stroke-linecap="round" stroke-miterlimit="10" stroke-width="0.45"/>
        <g id="Group_1456" data-name="Group 1456">
          <path id="Path_1066" data-name="Path 1066" d="M1701.045,2588.838l.025.021A.037.037,0,0,0,1701.045,2588.838Z" fill="#f2f2f2"/>
        </g>
        <path id="Path_1067" data-name="Path 1067" d="M1714.1,2587.535c2.281,1.584,4.638,3.245,6.842,4.84l-5.2,33.59,2.35,5.306a2.178,2.178,0,0,1-.76,2.678l-10.412,7.135.257-5.846C1713.062,2618.431,1712.967,2595.016,1714.1,2587.535Z" fill="#f2f2f2"/>
        <path id="Path_1068" data-name="Path 1068" d="M1663.337,2593.787c1.3-1.2,10.945-5.026,21.626-9.648,1.971,11.069-.091,40.064,6.994,54.078l-2.329,41.283s-24.581.388-25.062-.172,5.258-27.5,4.292-32.265C1667.805,2641.865,1661.256,2595.708,1663.337,2593.787Z" fill="#fff"/>
        <path id="Path_1069" data-name="Path 1069" d="M1691.957,2638.217c-2.719-5.824-5.506-54.7-5.506-54.7s-6.159,2.552-6.329,2.729c-.414.432.4,40.629.44,40.709a15.173,15.173,0,0,1-1.926,2.978c-1.319,1.65,13.006,13.2,13.006,13.2Z" fill="#f2f2f2"/>
        <g id="Group_1457" data-name="Group 1457">
          <path id="Path_1070" data-name="Path 1070" d="M1644.623,2633.675c.508-.557,22.535-14.477,22.535-14.477l4.6-28.451s-4.786-2.652-19.6,12.254c-15.36,15.452-21.809,22.54-21.809,22.54s-6.641,7.232-2.861,10.4l40.365,33.849a36.814,36.814,0,0,0,6.578-7.612c-7.648-7.57-28.817-35.026-29.244-35.5" fill="#fff"/>
          <line id="Line_426" data-name="Line 426" x1="6.625" y1="7.809" transform="translate(1643.788 2625.541)" fill="none" stroke="#22195b" stroke-linecap="round" stroke-miterlimit="10" stroke-width="0.45"/>
        </g>
        <line id="Line_427" data-name="Line 427" x1="11.488" y2="15.67" transform="translate(1748.231 2601.556)" fill="none" stroke="#22195b" stroke-linecap="round" stroke-miterlimit="10" stroke-width="0.45"/>
        <line id="Line_428" data-name="Line 428" x2="27.031" y2="14.727" transform="translate(1727.142 2594.394)" fill="none" stroke="#22195b" stroke-linecap="round" stroke-miterlimit="10" stroke-width="0.45"/>
      </g>
      <g id="Group_1463" data-name="Group 1463">
        <g id="Group_1459" data-name="Group 1459">
          <path id="Path_1071" data-name="Path 1071" d="M1807.109,2654.536a.578.578,0,1,0-.4-.3l-3.284,4.4.79-6.081,5.2-4.769,1.668,1.008,1.442,1.312-3.092,6.341-5.606,2.488Z" fill="#7d76d1"/>
        </g>
        <g id="Group_1460" data-name="Group 1460">
          <path id="Path_1072" data-name="Path 1072" d="M1808.669,2648l4.129,3.033a.9.9,0,0,0,1.258-.191l28.24-38.331a3.462,3.462,0,0,0-.74-4.84h0a3.461,3.461,0,0,0-4.84.74l-28.238,38.328A.9.9,0,0,0,1808.669,2648Z" fill="#22195b"/>
          <rect id="Rectangle_1012" data-name="Rectangle 1012" width="6.925" height="0.866" transform="matrix(-0.806, -0.592, 0.592, -0.806, 1836.402, 2620.53)" fill="#7d76d1"/>
        </g>
        <g id="Group_1462" data-name="Group 1462">
          <path id="Rectangle_1013" data-name="Rectangle 1013" d="M0,0H.834a0,0,0,0,1,0,0V13.608a.417.417,0,0,1-.417.417h0A.417.417,0,0,1,0,13.608V0A0,0,0,0,1,0,0Z" transform="matrix(-0.801, -0.598, 0.598, -0.801, 1824.739, 2624.366)" fill="#7d76d1"/>
          <g id="Group_1461" data-name="Group 1461">
            <path id="Path_1073" data-name="Path 1073" d="M1825.879,2622.838l-2.281,3.056a1.907,1.907,0,0,1,2.281-3.056Z" fill="#7d76d1"/>
          </g>
        </g>
        <line id="Line_429" data-name="Line 429" x1="2.581" y2="5.185" transform="translate(1808.302 2650.655)" fill="none" stroke="#fff" stroke-linecap="round" stroke-miterlimit="10" stroke-width="0.5" opacity="0.5"/>
        <line id="Line_430" data-name="Line 430" x1="19.318" y2="25.743" transform="translate(1814.55 2622.045)" fill="none" stroke="#fff" stroke-miterlimit="10" stroke-width="0.5" opacity="0.5"/>
      </g>
    </g>
  </g>
</svg>
