<svg xmlns="http://www.w3.org/2000/svg" xmlns:xlink="http://www.w3.org/1999/xlink" width="240" height="150.232" viewBox="0 0 240 150.232">
  <defs>
    <clipPath id="clip-path">
      <rect id="Rectangle_1167" data-name="Rectangle 1167" width="240" height="150.233" rx="8.833" transform="translate(1619.259 2737.27)" fill="none"/>
    </clipPath>
  </defs>
  <g id="Group_2225" data-name="Group 2225" transform="translate(-1619.259 -2737.27)">
    <g id="Group_1766" data-name="Group 1766" clip-path="url(#clip-path)">
      <rect id="Rectangle_1162" data-name="Rectangle 1162" width="240" height="150.233" rx="8.833" transform="translate(1619.259 2737.27)" fill="#ffe4de"/>
      <g id="Group_1066" data-name="Group 1066" transform="translate(19 -33)">
        <g id="Group_1060" data-name="Group 1060">
          <g id="Group_1054" data-name="Group 1054" opacity="0.5">
            <circle id="Ellipse_520" data-name="Ellipse 520" cx="2.163" cy="2.163" r="2.163" transform="translate(1755.194 2876.029)" fill="#fff"/>
            <circle id="Ellipse_521" data-name="Ellipse 521" cx="2.163" cy="2.163" r="2.163" transform="translate(1755.194 2885.917)" fill="#fff"/>
            <circle id="Ellipse_522" data-name="Ellipse 522" cx="2.163" cy="2.163" r="2.163" transform="translate(1755.194 2895.805)" fill="#fff"/>
            <circle id="Ellipse_523" data-name="Ellipse 523" cx="2.163" cy="2.163" r="2.163" transform="translate(1755.194 2905.691)" fill="#fff"/>
          </g>
          <g id="Group_1055" data-name="Group 1055" opacity="0.5">
            <circle id="Ellipse_524" data-name="Ellipse 524" cx="2.163" cy="2.163" r="2.163" transform="translate(1763.846 2876.029)" fill="#fff"/>
            <circle id="Ellipse_525" data-name="Ellipse 525" cx="2.163" cy="2.163" r="2.163" transform="translate(1763.846 2885.917)" fill="#fff"/>
            <circle id="Ellipse_526" data-name="Ellipse 526" cx="2.163" cy="2.163" r="2.163" transform="translate(1763.846 2895.805)" fill="#fff"/>
            <circle id="Ellipse_527" data-name="Ellipse 527" cx="2.163" cy="2.163" r="2.163" transform="translate(1763.846 2905.691)" fill="#fff"/>
          </g>
          <g id="Group_1056" data-name="Group 1056" opacity="0.5">
            <circle id="Ellipse_528" data-name="Ellipse 528" cx="2.163" cy="2.163" r="2.163" transform="translate(1772.498 2876.029)" fill="#fff"/>
            <circle id="Ellipse_529" data-name="Ellipse 529" cx="2.163" cy="2.163" r="2.163" transform="translate(1772.498 2885.917)" fill="#fff"/>
            <circle id="Ellipse_530" data-name="Ellipse 530" cx="2.163" cy="2.163" r="2.163" transform="translate(1772.498 2895.805)" fill="#fff"/>
            <circle id="Ellipse_531" data-name="Ellipse 531" cx="2.163" cy="2.163" r="2.163" transform="translate(1772.498 2905.691)" fill="#fff"/>
          </g>
          <g id="Group_1057" data-name="Group 1057" opacity="0.5">
            <circle id="Ellipse_532" data-name="Ellipse 532" cx="2.163" cy="2.163" r="2.163" transform="translate(1781.149 2876.029)" fill="#fff"/>
            <circle id="Ellipse_533" data-name="Ellipse 533" cx="2.163" cy="2.163" r="2.163" transform="translate(1781.149 2885.917)" fill="#fff"/>
            <circle id="Ellipse_534" data-name="Ellipse 534" cx="2.163" cy="2.163" r="2.163" transform="translate(1781.149 2895.805)" fill="#fff"/>
            <circle id="Ellipse_535" data-name="Ellipse 535" cx="2.163" cy="2.163" r="2.163" transform="translate(1781.149 2905.691)" fill="#fff"/>
          </g>
          <g id="Group_1058" data-name="Group 1058" opacity="0.5">
            <circle id="Ellipse_536" data-name="Ellipse 536" cx="2.163" cy="2.163" r="2.163" transform="translate(1789.801 2876.029)" fill="#fff"/>
            <circle id="Ellipse_537" data-name="Ellipse 537" cx="2.163" cy="2.163" r="2.163" transform="translate(1789.801 2885.917)" fill="#fff"/>
            <circle id="Ellipse_538" data-name="Ellipse 538" cx="2.163" cy="2.163" r="2.163" transform="translate(1789.801 2895.805)" fill="#fff"/>
            <circle id="Ellipse_539" data-name="Ellipse 539" cx="2.163" cy="2.163" r="2.163" transform="translate(1789.801 2905.691)" fill="#fff"/>
          </g>
          <g id="Group_1059" data-name="Group 1059" opacity="0.5">
            <circle id="Ellipse_540" data-name="Ellipse 540" cx="2.163" cy="2.163" r="2.163" transform="translate(1798.453 2876.029)" fill="#fff"/>
            <circle id="Ellipse_541" data-name="Ellipse 541" cx="2.163" cy="2.163" r="2.163" transform="translate(1798.453 2885.917)" fill="#fff"/>
            <circle id="Ellipse_542" data-name="Ellipse 542" cx="2.163" cy="2.163" r="2.163" transform="translate(1798.453 2895.805)" fill="#fff"/>
            <circle id="Ellipse_543" data-name="Ellipse 543" cx="2.163" cy="2.163" r="2.163" transform="translate(1798.453 2905.691)" fill="#fff"/>
          </g>
        </g>
        <g id="Group_1065" data-name="Group 1065">
          <g id="Group_1061" data-name="Group 1061" opacity="0.5">
            <circle id="Ellipse_544" data-name="Ellipse 544" cx="2.163" cy="2.163" r="2.163" transform="translate(1719.799 2876.029)" fill="#fff"/>
            <circle id="Ellipse_545" data-name="Ellipse 545" cx="2.163" cy="2.163" r="2.163" transform="translate(1719.799 2885.917)" fill="#fff"/>
            <circle id="Ellipse_546" data-name="Ellipse 546" cx="2.163" cy="2.163" r="2.163" transform="translate(1719.799 2895.805)" fill="#fff"/>
            <circle id="Ellipse_547" data-name="Ellipse 547" cx="2.163" cy="2.163" r="2.163" transform="translate(1719.799 2905.691)" fill="#fff"/>
          </g>
          <g id="Group_1062" data-name="Group 1062" opacity="0.5">
            <circle id="Ellipse_548" data-name="Ellipse 548" cx="2.163" cy="2.163" r="2.163" transform="translate(1728.45 2876.029)" fill="#fff"/>
            <circle id="Ellipse_549" data-name="Ellipse 549" cx="2.163" cy="2.163" r="2.163" transform="translate(1728.45 2885.917)" fill="#fff"/>
            <circle id="Ellipse_550" data-name="Ellipse 550" cx="2.163" cy="2.163" r="2.163" transform="translate(1728.45 2895.805)" fill="#fff"/>
            <circle id="Ellipse_551" data-name="Ellipse 551" cx="2.163" cy="2.163" r="2.163" transform="translate(1728.45 2905.691)" fill="#fff"/>
          </g>
          <g id="Group_1063" data-name="Group 1063" opacity="0.5">
            <circle id="Ellipse_552" data-name="Ellipse 552" cx="2.163" cy="2.163" r="2.163" transform="translate(1737.102 2876.029)" fill="#fff"/>
            <circle id="Ellipse_553" data-name="Ellipse 553" cx="2.163" cy="2.163" r="2.163" transform="translate(1737.102 2885.917)" fill="#fff"/>
            <circle id="Ellipse_554" data-name="Ellipse 554" cx="2.163" cy="2.163" r="2.163" transform="translate(1737.102 2895.805)" fill="#fff"/>
            <circle id="Ellipse_555" data-name="Ellipse 555" cx="2.163" cy="2.163" r="2.163" transform="translate(1737.102 2905.691)" fill="#fff"/>
          </g>
          <g id="Group_1064" data-name="Group 1064" opacity="0.5">
            <circle id="Ellipse_556" data-name="Ellipse 556" cx="2.163" cy="2.163" r="2.163" transform="translate(1745.754 2876.029)" fill="#fff"/>
            <circle id="Ellipse_557" data-name="Ellipse 557" cx="2.163" cy="2.163" r="2.163" transform="translate(1745.754 2885.917)" fill="#fff"/>
            <circle id="Ellipse_558" data-name="Ellipse 558" cx="2.163" cy="2.163" r="2.163" transform="translate(1745.754 2895.805)" fill="#fff"/>
            <circle id="Ellipse_559" data-name="Ellipse 559" cx="2.163" cy="2.163" r="2.163" transform="translate(1745.754 2905.691)" fill="#fff"/>
          </g>
        </g>
      </g>
      <g id="Group_1066-2" data-name="Group 1066">
        <g id="Group_1060-2" data-name="Group 1060">
          <g id="Group_1054-2" data-name="Group 1054" opacity="0.5">
            <circle id="Ellipse_520-2" data-name="Ellipse 520" cx="1.62" cy="1.62" r="1.62" transform="translate(1686.851 2818.859)" fill="#fff"/>
            <circle id="Ellipse_521-2" data-name="Ellipse 521" cx="1.62" cy="1.62" r="1.62" transform="translate(1686.851 2826.266)" fill="#fff"/>
            <circle id="Ellipse_522-2" data-name="Ellipse 522" cx="1.62" cy="1.62" r="1.62" transform="translate(1686.851 2833.673)" fill="#fff"/>
            <circle id="Ellipse_523-2" data-name="Ellipse 523" cx="1.62" cy="1.62" r="1.62" transform="translate(1686.851 2841.079)" fill="#fff"/>
          </g>
          <g id="Group_1055-2" data-name="Group 1055" opacity="0.5">
            <circle id="Ellipse_524-2" data-name="Ellipse 524" cx="1.62" cy="1.62" r="1.62" transform="translate(1693.332 2818.859)" fill="#fff"/>
            <circle id="Ellipse_525-2" data-name="Ellipse 525" cx="1.62" cy="1.62" r="1.62" transform="translate(1693.332 2826.266)" fill="#fff"/>
            <circle id="Ellipse_526-2" data-name="Ellipse 526" cx="1.62" cy="1.62" r="1.62" transform="translate(1693.332 2833.673)" fill="#fff"/>
            <circle id="Ellipse_527-2" data-name="Ellipse 527" cx="1.62" cy="1.62" r="1.62" transform="translate(1693.332 2841.079)" fill="#fff"/>
          </g>
          <g id="Group_1056-2" data-name="Group 1056" opacity="0.5">
            <circle id="Ellipse_528-2" data-name="Ellipse 528" cx="1.62" cy="1.62" r="1.62" transform="translate(1699.813 2818.859)" fill="#fff"/>
            <circle id="Ellipse_529-2" data-name="Ellipse 529" cx="1.62" cy="1.62" r="1.62" transform="translate(1699.813 2826.266)" fill="#fff"/>
            <circle id="Ellipse_530-2" data-name="Ellipse 530" cx="1.62" cy="1.62" r="1.62" transform="translate(1699.813 2833.673)" fill="#fff"/>
            <circle id="Ellipse_531-2" data-name="Ellipse 531" cx="1.62" cy="1.62" r="1.62" transform="translate(1699.813 2841.079)" fill="#fff"/>
          </g>
          <g id="Group_1057-2" data-name="Group 1057" opacity="0.5">
            <circle id="Ellipse_532-2" data-name="Ellipse 532" cx="1.62" cy="1.62" r="1.62" transform="translate(1706.294 2818.859)" fill="#fff"/>
            <circle id="Ellipse_533-2" data-name="Ellipse 533" cx="1.62" cy="1.62" r="1.62" transform="translate(1706.294 2826.266)" fill="#fff"/>
            <circle id="Ellipse_534-2" data-name="Ellipse 534" cx="1.62" cy="1.62" r="1.62" transform="translate(1706.294 2833.673)" fill="#fff"/>
            <circle id="Ellipse_535-2" data-name="Ellipse 535" cx="1.62" cy="1.62" r="1.62" transform="translate(1706.294 2841.079)" fill="#fff"/>
          </g>
          <g id="Group_1058-2" data-name="Group 1058" opacity="0.5">
            <circle id="Ellipse_536-2" data-name="Ellipse 536" cx="1.62" cy="1.62" r="1.62" transform="translate(1712.775 2818.859)" fill="#fff"/>
            <circle id="Ellipse_537-2" data-name="Ellipse 537" cx="1.62" cy="1.62" r="1.62" transform="translate(1712.775 2826.266)" fill="#fff"/>
            <circle id="Ellipse_538-2" data-name="Ellipse 538" cx="1.62" cy="1.62" r="1.62" transform="translate(1712.775 2833.673)" fill="#fff"/>
            <circle id="Ellipse_539-2" data-name="Ellipse 539" cx="1.62" cy="1.62" r="1.62" transform="translate(1712.775 2841.079)" fill="#fff"/>
          </g>
          <g id="Group_1059-2" data-name="Group 1059" opacity="0.5">
            <circle id="Ellipse_540-2" data-name="Ellipse 540" cx="1.62" cy="1.62" r="1.62" transform="translate(1719.256 2818.859)" fill="#fff"/>
            <circle id="Ellipse_541-2" data-name="Ellipse 541" cx="1.62" cy="1.62" r="1.62" transform="translate(1719.256 2826.266)" fill="#fff"/>
            <circle id="Ellipse_542-2" data-name="Ellipse 542" cx="1.62" cy="1.62" r="1.62" transform="translate(1719.256 2833.673)" fill="#fff"/>
            <circle id="Ellipse_543-2" data-name="Ellipse 543" cx="1.62" cy="1.62" r="1.62" transform="translate(1719.256 2841.079)" fill="#fff"/>
          </g>
        </g>
        <g id="Group_1065-2" data-name="Group 1065">
          <g id="Group_1061-2" data-name="Group 1061" opacity="0.5">
            <circle id="Ellipse_544-2" data-name="Ellipse 544" cx="1.62" cy="1.62" r="1.62" transform="translate(1660.336 2818.859)" fill="#fff"/>
            <circle id="Ellipse_545-2" data-name="Ellipse 545" cx="1.62" cy="1.62" r="1.62" transform="translate(1660.336 2826.266)" fill="#fff"/>
            <circle id="Ellipse_546-2" data-name="Ellipse 546" cx="1.62" cy="1.62" r="1.62" transform="translate(1660.336 2833.673)" fill="#fff"/>
            <circle id="Ellipse_547-2" data-name="Ellipse 547" cx="1.62" cy="1.62" r="1.62" transform="translate(1660.336 2841.079)" fill="#fff"/>
          </g>
          <g id="Group_1062-2" data-name="Group 1062" opacity="0.5">
            <circle id="Ellipse_548-2" data-name="Ellipse 548" cx="1.62" cy="1.62" r="1.62" transform="translate(1666.817 2818.859)" fill="#fff"/>
            <circle id="Ellipse_549-2" data-name="Ellipse 549" cx="1.62" cy="1.62" r="1.62" transform="translate(1666.817 2826.266)" fill="#fff"/>
            <circle id="Ellipse_550-2" data-name="Ellipse 550" cx="1.62" cy="1.62" r="1.62" transform="translate(1666.817 2833.673)" fill="#fff"/>
            <circle id="Ellipse_551-2" data-name="Ellipse 551" cx="1.62" cy="1.62" r="1.62" transform="translate(1666.817 2841.079)" fill="#fff"/>
          </g>
          <g id="Group_1063-2" data-name="Group 1063" opacity="0.5">
            <circle id="Ellipse_552-2" data-name="Ellipse 552" cx="1.62" cy="1.62" r="1.62" transform="translate(1673.298 2818.859)" fill="#fff"/>
            <circle id="Ellipse_553-2" data-name="Ellipse 553" cx="1.62" cy="1.62" r="1.62" transform="translate(1673.298 2826.266)" fill="#fff"/>
            <circle id="Ellipse_554-2" data-name="Ellipse 554" cx="1.62" cy="1.62" r="1.62" transform="translate(1673.298 2833.673)" fill="#fff"/>
            <circle id="Ellipse_555-2" data-name="Ellipse 555" cx="1.62" cy="1.62" r="1.62" transform="translate(1673.298 2841.079)" fill="#fff"/>
          </g>
          <g id="Group_1064-2" data-name="Group 1064" opacity="0.5">
            <circle id="Ellipse_556-2" data-name="Ellipse 556" cx="1.62" cy="1.62" r="1.62" transform="translate(1679.779 2818.859)" fill="#fff"/>
            <circle id="Ellipse_557-2" data-name="Ellipse 557" cx="1.62" cy="1.62" r="1.62" transform="translate(1679.779 2826.266)" fill="#fff"/>
            <circle id="Ellipse_558-2" data-name="Ellipse 558" cx="1.62" cy="1.62" r="1.62" transform="translate(1679.779 2833.673)" fill="#fff"/>
            <circle id="Ellipse_559-2" data-name="Ellipse 559" cx="1.62" cy="1.62" r="1.62" transform="translate(1679.779 2841.079)" fill="#fff"/>
          </g>
        </g>
      </g>
      <g id="Group_1758" data-name="Group 1758">
        <path id="Path_1404" data-name="Path 1404" d="M1696.955,2806.708a25.865,25.865,0,0,1,4.963.551l1.005,80.427c-58.309-14.281-32.391-62.59-18.916-75.425A32.66,32.66,0,0,0,1696.955,2806.708Z" fill="#ff8760"/>
        <g id="Group_1749" data-name="Group 1749">
          <path id="Path_1405" data-name="Path 1405" d="M1689.369,2916.607h16.479c-.212-10.362,2.795-46.473,2.795-46.473,5.782-16.5,6.594-39.2,7.564-50.183l-31.01,8.505c.57,14.7,1.165,33.528,6.642,44.363Z" fill="#ff8760"/>
          <path id="Path_1406" data-name="Path 1406" d="M1723.622,2916.607h10.559c-.519-6.685-6.872-21.772-7.571-28.922-.324-3.312,10.2-58.224,11.323-60.2.456-.8-18.741-9.65-21.3-11.424-.156,1.031-.295,2.344-.431,3.887l1.8-.494Z" fill="#fff"/>
          <path id="Path_1407" data-name="Path 1407" d="M1705.848,2916.607h17.774l-5.613-97.15-1.8.494c-.97,10.986-1.782,33.679-7.564,50.183C1708.643,2870.134,1705.636,2906.245,1705.848,2916.607Z" fill="#fff"/>
          <path id="Path_1408" data-name="Path 1408" d="M1682.328,2829.243l2.869-.787a137.7,137.7,0,0,0-1.19-16.2c-11.961,5.176-22.765,9.463-24.217,10.8-2.331,2.153,5,53.841,6.183,59.661.912,4.5-3.52,26.684-4.6,33.882h20.959Z" fill="#fff"/>
          <path id="Path_1409" data-name="Path 1409" d="M1682.328,2916.607h7.041l2.47-43.788c-5.477-10.835-6.072-29.662-6.642-44.363l-2.869.787Z" fill="#fff"/>
        </g>
        <path id="Path_1410" data-name="Path 1410" d="M1717.228,2816.064c-2.328.373,1.051,33.249,1.051,33.249s32.062,18.069,32.96,18.749c0,0,16.062-16.9,12.821-21.47C1756.376,2835.751,1717.228,2816.064,1717.228,2816.064Z" fill="#fff"/>
        <g id="Group_1751" data-name="Group 1751">
          <g id="Group_1750" data-name="Group 1750">
            <path id="Path_1411" data-name="Path 1411" d="M1783.85,2829.182l9.709.594s3.31,2.417-1.493,5.209a19.549,19.549,0,0,1-9.564,2.612l-5.665-.54Z" fill="#ffe6cd"/>
            <path id="Path_1412" data-name="Path 1412" d="M1779.926,2827.774s4.429-.668,5.4-1.471,1.489,1.147.005,1.757-2.071,1.557-.79,1.456,2.975-.381,3.366.351-.575,1.526-.575,1.526a.584.584,0,0,1,.64.462c.115.524-.225,1.482-.875,1.487,0,0,.682-.035.669.608s-.287,1.35-.849,1.328c0,0,.56.046.382,1.127s-5.979,1.232-6.64,1.045-3.4-1.494-3.4-1.494Z" fill="#ffe6cd"/>
            <path id="Path_1413" data-name="Path 1413" d="M1779.926,2827.774s-2.579-.218-3.089,1.408-3.519,9.339-3.519,9.339l12.927-4.307Z" fill="#ffe6cd"/>
            <path id="Path_1414" data-name="Path 1414" d="M1752.754,2860.388c.571-.971,20.519-28.177,20.519-28.177,4.856-.85,10.03,5.732,10.03,5.732s-18.856,30.827-19.949,31.992c0,0-.979,2.231-7.159.408C1744.444,2866.877,1751.908,2861.825,1752.754,2860.388Z" fill="#fff"/>
          </g>
          <path id="Path_1415" data-name="Path 1415" d="M1773.273,2832.211s-.909,1.239-2.341,3.194c1.9.544,5.171,2.16,10.569,6.561,1.094-2.436,1.8-4.023,1.8-4.023S1778.129,2831.361,1773.273,2832.211Z" fill="#ff8760"/>
        </g>
        <path id="Path_1416" data-name="Path 1416" d="M1702.873,2806.708s6.536,4.333,13.765,9.356c-1.271,8.377-7.172,45.832-13.765,64.653Z" fill="#ff8760"/>
        <g id="Group_1753" data-name="Group 1753">
          <path id="Path_1417" data-name="Path 1417" d="M1704.429,2823.745l2.456,47.735-6.213,8.052-3.478-7.478s2.432-32.7,1.681-48.589C1698.875,2823.465,1702.169,2823.745,1704.429,2823.745Z" fill="#22195b"/>
          <g id="Group_1752" data-name="Group 1752">
            <path id="Path_1418" data-name="Path 1418" d="M1699.947,2825.6l.337,29.255-1.672-.841c.365-9.579.668-21.966.263-30.549,0,0,3.294.28,5.554.28l.027.373A9.862,9.862,0,0,1,1699.947,2825.6Z" fill="#e6e6e6"/>
          </g>
        </g>
        <path id="Path_1419" data-name="Path 1419" d="M1706.815,2802.339s0,7.28,2.723,8.85c0,0-3.59,7.19-7.481,7.171s-13.373-7.991-13.373-7.991,3.447-1.629,4.2-9.159C1693.113,2798.912,1706.815,2802.339,1706.815,2802.339Z" fill="#ffe6cd"/>
        <g id="Group_1755" data-name="Group 1755">
          <g id="Group_1754" data-name="Group 1754">
            <path id="Path_1420" data-name="Path 1420" d="M1708.221,2777.775s5,26.337,1.147,27.212-16.5,2.323-16.909-.744-.98-30.262,1.947-30.611S1707.565,2772.062,1708.221,2777.775Z" fill="#ffe6cd"/>
            <path id="Path_1421" data-name="Path 1421" d="M1693.741,2786.393s-2.327-2.75-3.814-.707c-2.676,3.677,3.172,5.9,4.036,5.3S1693.741,2786.393,1693.741,2786.393Z" fill="#ffe6cd"/>
            <path id="Path_1422" data-name="Path 1422" d="M1693.526,2788.214a10.6,10.6,0,0,0-2.654-1.749.119.119,0,0,0-.126.2c.9.733,2.532,2.118,2.644,2.581Z" fill="#ffd5ac" opacity="0.3"/>
            <path id="Path_1423" data-name="Path 1423" d="M1704.617,2785.958s.809,3.322,1.236,4.978a2.692,2.692,0,0,1-.988,2.549l1.586-.108s1.516-1.573,1.13-2.571A13.679,13.679,0,0,0,1704.617,2785.958Z" fill="#ffd5ac" opacity="0.5"/>
            <path id="Path_1424" data-name="Path 1424" d="M1709.931,2773.833s.181,4.314-6.179,4.58c-7.124.3-10.438,1.835-10.925,3.241s-2.726-6.363-.053-9.193,14.761-.144,16.347-1.813C1710.349,2769.355,1709.931,2773.833,1709.931,2773.833Z" fill="#22195b"/>
            <path id="Path_1425" data-name="Path 1425" d="M1695.156,2779.335s-1.406,7.437-.947,8.578-1.739-1.9-1.941-2.68a70.513,70.513,0,0,1,.443-7.262Z" fill="#22195b"/>
            <circle id="Ellipse_815" data-name="Ellipse 815" cx="0.955" cy="0.955" r="0.955" transform="translate(1699.717 2785.004)" fill="#22195b"/>
            <circle id="Ellipse_816" data-name="Ellipse 816" cx="0.955" cy="0.955" r="0.955" transform="translate(1706.689 2784.049)" fill="#22195b"/>
          </g>
          <path id="Path_1426" data-name="Path 1426" d="M1695.263,2803.966s6.4,2.635,12.425,1.882" fill="none" stroke="#22195b" stroke-linecap="round" stroke-miterlimit="10" stroke-width="0.45"/>
        </g>
        <path id="Path_1427" data-name="Path 1427" d="M1704.444,2817.68a20.1,20.1,0,0,0-6.013.161,11.065,11.065,0,0,0,.444,6.495s4.1.419,5.581-.223C1704.456,2824.113,1706.24,2820.565,1704.444,2817.68Z" fill="#22195b"/>
        <path id="Path_1428" data-name="Path 1428" d="M1701.8,2817.546c.177-.4,2.872,3.972,4.225,6.212a1.237,1.237,0,0,0,1.88.285l8.868-7.872-7.353-5.081Z" fill="#ff8760"/>
        <g id="Group_1756" data-name="Group 1756">
          <path id="Path_1429" data-name="Path 1429" d="M1701.825,2817.523l-.028.023A.04.04,0,0,1,1701.825,2817.523Z" fill="#f2f2f2"/>
        </g>
        <path id="Path_1430" data-name="Path 1430" d="M1702.044,2817.546c-.177-.4-2.872,3.972-4.226,6.212a1.236,1.236,0,0,1-1.879.285L1683.47,2812.5l6.4-3.765Z" fill="#ff8760"/>
        <path id="Path_1431" data-name="Path 1431" d="M1701.732,2817.588c-.177-.4-2.56,3.93-3.914,6.17a1.236,1.236,0,0,1-1.879.285l-7.255-6.714" fill="none" stroke="#22195b" stroke-linecap="round" stroke-miterlimit="10" stroke-width="0.45"/>
        <path id="Path_1432" data-name="Path 1432" d="M1701.732,2817.588c.177-.4,3.313,3.93,4.667,6.17a1.236,1.236,0,0,0,1.879.285l7.255-6.714" fill="none" stroke="#22195b" stroke-linecap="round" stroke-miterlimit="10" stroke-width="0.45"/>
        <g id="Group_1757" data-name="Group 1757">
          <path id="Path_1433" data-name="Path 1433" d="M1702.016,2817.523l.028.023A.04.04,0,0,0,1702.016,2817.523Z" fill="#f2f2f2"/>
        </g>
        <path id="Path_1434" data-name="Path 1434" d="M1716.638,2816.064c2.554,1.774,5.193,3.634,7.662,5.42l-5.827,37.615,2.631,5.942a2.439,2.439,0,0,1-.852,3l-11.659,7.989.287-6.546C1715.474,2850.663,1715.367,2824.441,1716.638,2816.064Z" fill="#f2f2f2"/>
        <path id="Path_1435" data-name="Path 1435" d="M1691.839,2872.819c-3.045-6.522-6.166-61.258-6.166-61.258s-6.9,2.857-7.087,3.056c-.463.483.452,45.5.493,45.587a17.014,17.014,0,0,1-2.157,3.335c-1.477,1.847,14.564,14.784,14.564,14.784Z" fill="#f2f2f2"/>
        <line id="Line_490" data-name="Line 490" x1="12.864" y2="17.548" transform="translate(1754.856 2840.884)" fill="none" stroke="#22195b" stroke-linecap="round" stroke-miterlimit="10" stroke-width="0.45"/>
      </g>
      <circle id="Ellipse_817" data-name="Ellipse 817" cx="1.379" cy="1.379" r="1.379" transform="translate(1704.455 2794.922)" fill="#22195b"/>
      <g id="Group_1759" data-name="Group 1759">
        <path id="Path_1436" data-name="Path 1436" d="M1733.581,2827.539a7.182,7.182,0,1,1,0-14.364h74.361v-2.14h-74.848a9.321,9.321,0,0,0-9.322,9.322h0a9.322,9.322,0,0,0,9.322,9.323h74.848v-2.141Z" fill="#22195b"/>
        <path id="Rectangle_1163" data-name="Rectangle 1163" d="M7.182,0H78.535a0,0,0,0,1,0,0V14.364a0,0,0,0,1,0,0H7.182A7.182,7.182,0,0,1,0,7.182v0A7.182,7.182,0,0,1,7.182,0Z" transform="translate(1726.399 2813.176)" fill="#fff"/>
        <line id="Line_491" data-name="Line 491" x1="36.639" transform="translate(1768.294 2822.542)" fill="none" stroke="#22195b" stroke-linecap="round" stroke-miterlimit="10" stroke-width="0.45"/>
        <line id="Line_492" data-name="Line 492" x1="29.63" transform="translate(1733.418 2817.641)" fill="none" stroke="#22195b" stroke-linecap="round" stroke-miterlimit="10" stroke-width="0.45"/>
        <line id="Line_493" data-name="Line 493" x1="18.32" transform="translate(1786.614 2820.754)" fill="none" stroke="#22195b" stroke-linecap="round" stroke-miterlimit="10" stroke-width="0.45"/>
      </g>
      <g id="Group_1760" data-name="Group 1760">
        <path id="Path_1437" data-name="Path 1437" d="M1744.176,2790.295a7.182,7.182,0,1,1,0-14.364h74.361v-2.14H1743.69a9.322,9.322,0,0,0-9.323,9.322h0a9.323,9.323,0,0,0,9.323,9.323h74.847v-2.141Z" fill="#22195b"/>
        <path id="Rectangle_1164" data-name="Rectangle 1164" d="M7.182,0H78.535a0,0,0,0,1,0,0V14.364a0,0,0,0,1,0,0H7.182A7.182,7.182,0,0,1,0,7.182v0A7.182,7.182,0,0,1,7.182,0Z" transform="translate(1736.995 2775.931)" fill="#fff"/>
        <line id="Line_494" data-name="Line 494" x1="36.639" transform="translate(1778.89 2785.298)" fill="none" stroke="#22195b" stroke-linecap="round" stroke-miterlimit="10" stroke-width="0.45"/>
        <line id="Line_495" data-name="Line 495" x1="17.747" transform="translate(1743.802 2785.298)" fill="none" stroke="#22195b" stroke-linecap="round" stroke-miterlimit="10" stroke-width="0.45"/>
        <line id="Line_496" data-name="Line 496" x1="29.63" transform="translate(1744.013 2780.397)" fill="none" stroke="#22195b" stroke-linecap="round" stroke-miterlimit="10" stroke-width="0.45"/>
        <line id="Line_497" data-name="Line 497" x1="18.32" transform="translate(1797.209 2783.51)" fill="none" stroke="#22195b" stroke-linecap="round" stroke-miterlimit="10" stroke-width="0.45"/>
      </g>
      <g id="Group_1761" data-name="Group 1761">
        <path id="Path_1438" data-name="Path 1438" d="M1744.228,2771.65a7.182,7.182,0,1,1,0-14.364h74.36v-2.141h-74.847a9.323,9.323,0,0,0-9.323,9.323h0a9.323,9.323,0,0,0,9.323,9.323h74.847v-2.141Z" fill="#ff8760"/>
        <path id="Rectangle_1165" data-name="Rectangle 1165" d="M7.182,0H78.535a0,0,0,0,1,0,0V14.364a0,0,0,0,1,0,0H7.182A7.182,7.182,0,0,1,0,7.182v0A7.182,7.182,0,0,1,7.182,0Z" transform="translate(1737.046 2757.286)" fill="#fff"/>
        <line id="Line_498" data-name="Line 498" x1="36.639" transform="translate(1778.941 2766.652)" fill="none" stroke="#22195b" stroke-linecap="round" stroke-miterlimit="10" stroke-width="0.45"/>
        <line id="Line_499" data-name="Line 499" x1="17.747" transform="translate(1743.853 2766.652)" fill="none" stroke="#22195b" stroke-linecap="round" stroke-miterlimit="10" stroke-width="0.45"/>
        <line id="Line_500" data-name="Line 500" x1="29.63" transform="translate(1744.065 2761.752)" fill="none" stroke="#22195b" stroke-linecap="round" stroke-miterlimit="10" stroke-width="0.45"/>
        <line id="Line_501" data-name="Line 501" x1="18.32" transform="translate(1797.261 2764.865)" fill="none" stroke="#22195b" stroke-linecap="round" stroke-miterlimit="10" stroke-width="0.45"/>
      </g>
      <g id="Group_1762" data-name="Group 1762">
        <path id="Path_1439" data-name="Path 1439" d="M1733.581,2808.917a7.182,7.182,0,1,1,0-14.364h66.126v-2.14h-66.613a9.321,9.321,0,0,0-9.322,9.322h0a9.322,9.322,0,0,0,9.322,9.323h66.613v-2.141Z" fill="#ff8760"/>
        <path id="Rectangle_1166" data-name="Rectangle 1166" d="M7.182,0H70.3a0,0,0,0,1,0,0V14.364a0,0,0,0,1,0,0H7.182A7.182,7.182,0,0,1,0,7.182v0A7.182,7.182,0,0,1,7.182,0Z" transform="translate(1726.399 2794.553)" fill="#fff"/>
        <line id="Line_502" data-name="Line 502" x1="28.405" transform="translate(1768.294 2803.92)" fill="none" stroke="#22195b" stroke-linecap="round" stroke-miterlimit="10" stroke-width="0.45"/>
        <line id="Line_503" data-name="Line 503" x1="29.63" transform="translate(1733.418 2799.019)" fill="none" stroke="#22195b" stroke-linecap="round" stroke-miterlimit="10" stroke-width="0.45"/>
        <line id="Line_504" data-name="Line 504" x1="10.085" transform="translate(1786.614 2802.132)" fill="none" stroke="#22195b" stroke-linecap="round" stroke-miterlimit="10" stroke-width="0.45"/>
      </g>
      <g id="Group_1765" data-name="Group 1765">
        <path id="Path_1440" data-name="Path 1440" d="M1661.852,2823.894c-2.328.374,1.051,33.25,1.051,33.25s34.684,11.466,35.582,12.146c0,0,16.242-16.617,11.3-19.26C1696.783,2843.074,1661.852,2823.894,1661.852,2823.894Z" fill="#fff"/>
        <g id="Group_1764" data-name="Group 1764">
          <g id="Group_1763" data-name="Group 1763">
            <path id="Path_1441" data-name="Path 1441" d="M1728.474,2828.621l9.709.595s3.31,2.416-1.494,5.208a19.54,19.54,0,0,1-9.564,2.613l-5.664-.54Z" fill="#ffe6cd"/>
            <path id="Path_1442" data-name="Path 1442" d="M1724.55,2827.213s4.429-.667,5.4-1.47,1.489,1.146.005,1.756-2.071,1.558-.79,1.457,2.974-.382,3.366.351-.575,1.525-.575,1.525a.584.584,0,0,1,.64.463c.115.524-.225,1.481-.875,1.487,0,0,.682-.036.669.607s-.287,1.351-.849,1.328c0,0,.56.046.382,1.128s-5.979,1.231-6.64,1.045-3.4-1.494-3.4-1.494Z" fill="#ffe6cd"/>
            <path id="Path_1443" data-name="Path 1443" d="M1724.55,2827.213s-2.579-.218-3.089,1.408-3.52,9.34-3.52,9.34l12.928-4.308Z" fill="#ffe6cd"/>
            <path id="Path_1444" data-name="Path 1444" d="M1697.377,2859.827c.571-.97,20.52-28.176,20.52-28.176,4.856-.851,10.03,5.731,10.03,5.731s-18.856,30.827-19.949,31.992c0,0-.979,2.232-7.159.409C1689.068,2866.316,1696.532,2861.265,1697.377,2859.827Z" fill="#fff"/>
          </g>
          <path id="Path_1445" data-name="Path 1445" d="M1717.9,2831.651s-.909,1.239-2.341,3.194c1.9.544,5.171,2.159,10.569,6.561,1.094-2.437,1.8-4.024,1.8-4.024S1722.753,2830.8,1717.9,2831.651Z" fill="#ff8760"/>
        </g>
        <line id="Line_505" data-name="Line 505" x1="12.864" y2="17.548" transform="translate(1699.48 2839.596)" fill="none" stroke="#22195b" stroke-linecap="round" stroke-miterlimit="10" stroke-width="0.45"/>
        <line id="Line_506" data-name="Line 506" x2="30.27" y2="16.492" transform="translate(1675.864 2831.575)" fill="none" stroke="#22195b" stroke-linecap="round" stroke-miterlimit="10" stroke-width="0.45"/>
      </g>
    </g>
  </g>
</svg>
