<svg xmlns="http://www.w3.org/2000/svg" width="189.334" height="134.863" viewBox="0 0 189.334 134.863">
  <g id="Group_2419" data-name="Group 2419" transform="translate(9604.867 -5423.295)">
    <g id="Group_1974" data-name="Group 1974" transform="translate(-9504.244 5451.768)">
      <path id="Path_1402" data-name="Path 1402" d="M520.178,3239.535l76.463,22.526-11.414,83.8-76.463-22.526Z" transform="translate(-507.929 -3239.535)" fill="#fff"/>
      <g id="等候號碼" transform="translate(24.878 23.851)">
        <g id="Group_2257" data-name="Group 2257">
          <path id="Path_1962" data-name="Path 1962" d="M543.472,3272.871l.171-.572,1.265.376-.17.573,3.432,1.021-.327,1.1-3.432-1.022-.246.828,4.82,1.436-.327,1.1-2.2-.657-.257.864,1.678.5-.329,1.107-1.679-.5-.467,1.57c-.24.8-.81,1.072-1.7.806l-1.691-.5.076-1.276c.533.212,1.033.4,1.52.546.329.1.538.015.618-.252l.377-1.266-6.73-2,.33-1.107,6.73,2,.257-.865-7.447-2.219.326-1.1,4.831,1.439.247-.826-3.48-1.037.325-1.1Zm-3.681-1.3-.9-1.022a8.21,8.21,0,0,0,2.293-2.271l1.125.627c-.139.2-.257.374-.388.545l2.823.842-.315,1.058-1.813-.539a10.39,10.39,0,0,1,.34,1.123l-1.27.083a10.691,10.691,0,0,0-.4-1.6l-.133-.039A9.241,9.241,0,0,1,539.791,3271.575Zm1.251,7.9-1.2.4a12.95,12.95,0,0,0-.939-2.094l1.215-.342A15.263,15.263,0,0,1,541.042,3279.473Zm4.12-6.8-.866-.96a7.086,7.086,0,0,0,1.783-1.986l1.118.611c-.124.189-.242.365-.361.542l3.237.964-.315,1.059-1.85-.551a8.653,8.653,0,0,1,.322,1.144l-1.233.1a10.579,10.579,0,0,0-.415-1.634l-.487-.146A9.833,9.833,0,0,1,545.161,3272.672Z" transform="translate(-537.742 -3268.281)" fill="#22195b"/>
          <path id="Path_1963" data-name="Path 1963" d="M557.377,3273.807a15.59,15.59,0,0,1-1.735,2.227l-2.466,8.274-1.181-.352,1.882-6.315c-.411.314-.82.617-1.245.888l-.016-1.463a14.513,14.513,0,0,0,3.78-4.147Zm.35,1.987-2.139,7.179-1.168-.348,2.139-7.179Zm-.395,4.929-.492-1.153a6.6,6.6,0,0,0,1.954-1.71l.99.547c-.147.183-.277.354-.4.515l3.943,1.174-.334,1.121-2.227-.665a10.715,10.715,0,0,1-.456,1.084l2.86.853-.329,1.107-3.14-.935a5.966,5.966,0,0,1-4.278,2.4l-.483-1.269a5,5,0,0,0,3.458-1.515l-2.117-.631.33-1.107,2.482.738a5.926,5.926,0,0,0,.443-1.086l-1.058-.314A7.474,7.474,0,0,1,557.333,3280.723Zm1.43-5.337.334-1.12,4.722,1.408-.167.559-.929,1.473,1.509.449-.333,1.121-6.3-1.879.334-1.12,3.528,1.051.629-.953Zm3.59,10.411-1.035.9a12.054,12.054,0,0,0-1.9-2.95l.872-.71A13.22,13.22,0,0,1,562.353,3285.8Z" transform="translate(-540.17 -3269.071)" fill="#22195b"/>
          <path id="Path_1964" data-name="Path 1964" d="M571.819,3282.359l-.348,1.167-2.178-.647c-.217.372-.411.711-.6,1l2.032.6c-.758,2.374-1.352,3.652-1.77,3.86a3.4,3.4,0,0,1-2.219-.158l-.159-.046-.008-1.263a4.059,4.059,0,0,0,.524.2,2,2,0,0,0,1.133.113q.338-.137.937-1.946l-2.3-.686c.47-.735.874-1.422,1.216-2.037l-.962-.286.348-1.167Zm.953-4.088-1.048,3.516-3.748-1.116,1.047-3.517Zm4.317.809-.173.584,2.385.71-.308,1.034-2.384-.709-.174.583,2.678.8-.171.571a8.8,8.8,0,0,1-1.051,1.661l-.813-.521-.08.625-1.444-.218-.1.34c-.036.121.051.229.271.293l2,.594-.324,1.083-2.348-.7q-1.169-.346-.875-1.333l.141-.475-1.038-.163.145-1.109,1.216.189.264-.888-1.253-.375-.773,2.593a13.393,13.393,0,0,1-2.687,5.148l-.732-1.146a12.415,12.415,0,0,0,2.226-4.357l1.1-3.7,2.409.717.656-2.2Zm-5.8-.11-1.411-.422-.425,1.425,1.412.419Zm3.032,6.944c-.656,2.111-1.516,3.444-2.567,3.991l-.767-1.074c.88-.415,1.588-1.5,2.141-3.272Zm.656,4.647c-.84-.25-1.148-.725-.945-1.407l.91-3.055,1.157.345-.841,2.822c-.022.073.012.138.106.179l.364.108c.15.032.275-.078.372-.313s.214-.586.348-1.037l.938.717a3.918,3.918,0,0,1-.8,1.738,1.473,1.473,0,0,1-1.14.043Zm.894-7.445,1.268.192c.131-.172.246-.336.361-.5l-1.411-.419Z" transform="translate(-542.651 -3269.792)" fill="#22195b"/>
          <path id="Path_1965" data-name="Path 1965" d="M583.188,3282.9l.362-1.217,4.017,1.2-.363,1.218-1.68-.5a16.78,16.78,0,0,1-1.31,2.222l2.045.607-1.806,6.062-1.911-.568-.185.621-1.143-.342,1.327-4.455c-.239.222-.472.429-.715.622l-.333-1.238a13.144,13.144,0,0,0,2.815-3.89Zm.5,8.14,1.145-3.846-.815-.242-1.146,3.845Zm3.272-.841c-.528,1.234-1.02,2.306-1.484,3.2l-.934-.691a28.653,28.653,0,0,0,1.553-3.035Zm5.736-.133q-1.218,4.088-1.851,4.655a1.879,1.879,0,0,1-1.873.2c-.3-.092-.6-.194-.914-.311l.049-1.191c.346.129.668.25.972.341.585.176,1,.06,1.231-.349.061-.113.113-.244.187-.408l-.909.075c.1-.75.177-1.484.21-2.218l.925.012c-.026.707-.09,1.365-.159,1.953.2-.5.433-1.182.69-2.046l-4.916-1.465,1.921-6.448,5.817,1.731-.316,1.061-2.032-.607-.229.767,1.8.536-.3,1.023-1.8-.536-.232.777,1.838.548-.3,1.022-1.838-.547-.225.754Zm-5.241,3.315-.985-.162c.354-1.271.619-2.253.777-2.96l.929.17C588.042,3291.156,587.8,3292.144,587.458,3293.38Zm.362-4.77,1.448.432.224-.754-1.447-.433Zm1.187,4.553-.961-.153a19.807,19.807,0,0,0,.509-2.458l.908.151A16.678,16.678,0,0,1,589.007,3293.164Zm-.656-6.33,1.447.432.232-.778-1.448-.431Zm.764-2.566-.228.767,1.447.43.229-.766Z" transform="translate(-545.146 -3270.563)" fill="#22195b"/>
        </g>
      </g>
      <path id="Path_1400" data-name="Path 1400" d="M519.44,3240.029l-11.682,82.446,75.792,23.057" transform="translate(-507.758 -3239.619)" fill="none" stroke="#b4b2cc" stroke-width="1"/>
      <path id="Path_1856" data-name="Path 1856" d="M522.8,3286.354l-6.507,39.851,59.165,18.4Z" transform="translate(-509.211 -3247.508)" fill="#fff5f3"/>
      <g id="_429" data-name=" 429" transform="translate(20.096 46.548)">
        <g id="Group_2258" data-name="Group 2258">
          <path id="Path_1966" data-name="Path 1966" d="M537.412,3316.98l-3.9-1.16,4.373-14.679a14.024,14.024,0,0,1-5.911,1.455l1.053-3.535a11.76,11.76,0,0,0,3.876-.9,7.5,7.5,0,0,0,3.422-2.52l3.16.941Z" transform="translate(-531.979 -3295.637)" fill="#22195b"/>
          <path id="Path_1967" data-name="Path 1967" d="M552.706,3303.424l1.078-3.617,13.32,3.967-.842,2.829a21.854,21.854,0,0,0-4.742,3.657,28.381,28.381,0,0,0-4.521,5.679,24.966,24.966,0,0,0-2.7,5.842l-3.755-1.119a27.209,27.209,0,0,1,4.3-8.075,29.844,29.844,0,0,1,6.719-6.524Z" transform="translate(-535.141 -3296.347)" fill="#22195b"/>
          <path id="Path_1968" data-name="Path 1968" d="M581.049,3307.848a5.792,5.792,0,0,1,3.987,3.482q1.238,3.086-.483,8.865t-4.466,7.694a5.775,5.775,0,0,1-5.22.708,6.063,6.063,0,0,1-4.1-3.705q-1.136-2.82.607-8.669,1.709-5.739,4.456-7.666A5.781,5.781,0,0,1,581.049,3307.848Zm-.962,3.23a2.039,2.039,0,0,0-1.4.075,3.146,3.146,0,0,0-1.341,1.359,34.457,34.457,0,0,0-3.021,9.986,3.61,3.61,0,0,0,.377,2.053,2.085,2.085,0,0,0,2.518.743,3.173,3.173,0,0,0,1.341-1.358,34.376,34.376,0,0,0,3.017-9.975,3.667,3.667,0,0,0-.376-2.059A2.009,2.009,0,0,0,580.087,3311.078Z" transform="translate(-538.508 -3297.663)" fill="#22195b"/>
        </g>
      </g>
    </g>
    <g id="Group_1974-2" data-name="Group 1974" transform="translate(-9604.526 5423.295)">
      <path id="Path_1402-2" data-name="Path 1402" d="M445.127,3188.658l67.344-52.264,65.577,62.291L510.7,3250.949Z" transform="translate(-445.127 -3136.394)" fill="#fff"/>
      <g id="等候號碼-2" data-name="等候號碼" transform="translate(30.264 22.427)">
        <g id="Group_2259" data-name="Group 2259">
          <path id="Path_1969" data-name="Path 1969" d="M483.832,3205.886l-1.435.253a8.786,8.786,0,0,0-.795-3.358l1.2-.677c.1.237.2.442.283.659l2.339-2.107.791.877-1.5,1.353a11.763,11.763,0,0,1,1.214.313l-.631,1.207a11.25,11.25,0,0,0-1.683-.53l-.11.1A9.968,9.968,0,0,1,483.832,3205.886Zm3.232-2.636-.427-.474,1.049-.944.426.474,2.844-2.561.817.908-2.843,2.562.617.686,3.993-3.6.818.908-1.826,1.644.646.715,1.391-1.253.826.917-1.392,1.254,1.172,1.3a1.259,1.259,0,0,1-.21,2l-1.4,1.263-1.122-.781c.491-.367.942-.719,1.344-1.082.273-.246.314-.484.115-.706l-.945-1.049-5.577,5.022-.826-.917,5.578-5.022-.645-.716-6.173,5.558-.817-.907,4-3.606-.617-.686-2.885,2.6-.818-.907Zm.76-1.652-1.359.255a7.63,7.63,0,0,0-.817-2.733l1.178-.678c.1.216.2.424.294.63l2.682-2.417.791.877-1.533,1.381a9.092,9.092,0,0,1,1.221.343l-.6,1.18a11.085,11.085,0,0,0-1.722-.534l-.4.363A10.641,10.641,0,0,1,487.825,3201.6Zm3.909,7.547-.31,1.321a13.621,13.621,0,0,0-2.434-.311l.366-1.3A16.35,16.35,0,0,1,491.734,3209.145Z" transform="translate(-481.603 -3169.083)" fill="#22195b"/>
          <path id="Path_1970" data-name="Path 1970" d="M495.783,3191.083a16.8,16.8,0,0,1,1.062,2.824l6.175,6.859-.978.881-4.713-5.236c.057.551.106,1.091.116,1.631l-1.342-.8a15.5,15.5,0,0,0-1.678-5.757Zm2.005.788,5.357,5.95-.967.873-5.359-5.951Zm.2-1.171-.836-.928,3.914-3.524.418.464.825,1.667,1.25-1.126.836.929-5.225,4.7-.835-.928,2.925-2.634-.519-1.1Zm4.071,4.278-1.326-.194a7.053,7.053,0,0,0-.471-2.735l1.049-.6c.084.235.169.451.245.657l3.268-2.942.836.928-1.846,1.662a11.869,11.869,0,0,1,.734,1.018l2.37-2.133.826.918-2.6,2.344a6.376,6.376,0,0,1-.2,5.236l-1.426-.268a5.338,5.338,0,0,0,.545-4l-1.755,1.579-.826-.918,2.058-1.852a6.487,6.487,0,0,0-.744-1.009l-.878.79A7.939,7.939,0,0,1,502.065,3194.978Zm7.424-1.754.241,1.445a12.92,12.92,0,0,0-3.751.09l-.159-1.19A14.094,14.094,0,0,1,509.489,3193.224Z" transform="translate(-483.787 -3167.311)" fill="#22195b"/>
          <path id="Path_1971" data-name="Path 1971" d="M508.212,3179.4l2.623,2.913-3.106,2.8-2.624-2.914Zm-.188,1.738-1.169,1.054,1.062,1.18,1.17-1.054Zm3.387,1.409.872.969-1.806,1.625c.219.406.422.771.576,1.106l1.685-1.517c1.739,2.013,2.577,3.267,2.532,3.767a3.622,3.622,0,0,1-1.381,1.935l-.131.118-1.155-.695a4.467,4.467,0,0,0,.471-.37,2.134,2.134,0,0,0,.733-.969q.062-.387-1.253-1.941l-1.907,1.717c-.407-.838-.811-1.59-1.18-2.243l-.8.717-.871-.968Zm-.056-6.635.436.486,1.976-1.781.772.857-1.977,1.78.436.484,2.219-2,.427.473a9.423,9.423,0,0,1,.929,1.884l-.926.452.524.421-1,1.2.255.283c.091.1.236.08.417-.084l1.653-1.49.809.9-1.946,1.752q-.967.871-1.7.055l-.353-.394-.728.855-.931-.75.85-1-.663-.736-1.039.936,1.934,2.149a14.319,14.319,0,0,1,3.2,5.317l-1.453.028a13.281,13.281,0,0,0-2.736-4.456l-2.76-3.066,2-1.8-1.644-1.827Zm3.005,3.358.881-1.049c-.085-.215-.171-.412-.256-.609l-1.17,1.054Zm1.689,2.972c1.56,1.772,2.3,3.3,2.21,4.566l-1.407.1c.112-1.033-.486-2.285-1.791-3.776Zm4.6,1.991c-.7.626-1.3.642-1.811.078l-2.279-2.532.957-.862,2.107,2.339c.055.061.132.064.222,0l.3-.272c.112-.12.084-.293-.078-.514s-.415-.521-.752-.895l1.178-.458a4.167,4.167,0,0,1,1.141,1.693c.025.271-.168.625-.594,1.064Z" transform="translate(-485.606 -3165.331)" fill="#22195b"/>
          <path id="Path_1972" data-name="Path 1972" d="M518.229,3172.414l-.908-1.008,3.329-3,.908,1.007-1.392,1.253a17.983,17.983,0,0,1,1.3,2.433l1.694-1.526,4.522,5.022-1.583,1.425.462.516-.948.854-3.323-3.691c.068.34.127.668.168,1l-1.316-.386a14.076,14.076,0,0,0-1.981-4.736Zm11.834-4.686q3.051,3.391,3.217,4.283a2.018,2.018,0,0,1-.865,1.819c-.252.226-.513.443-.793.66l-1.059-.709c.311-.243.6-.468.854-.695.484-.436.614-.881.367-1.317-.071-.119-.159-.239-.266-.4l-.441.872c-.626-.514-1.255-.989-1.9-1.427l.524-.837c.632.417,1.2.841,1.694,1.233-.341-.46-.838-1.054-1.483-1.77l-4.075,3.669-4.814-5.347,4.822-4.341.79.876-1.684,1.517.573.636,1.493-1.344.762.849-1.493,1.344.581.644,1.523-1.371.763.848-1.524,1.371.563.624Zm-4.13,8.76-2.87-3.186-.675.608,2.87,3.186Zm-3.156-8.718.573.636,1.2-1.081-.572-.637Zm1.916,2.129,1.2-1.081-.581-.646-1.2,1.081Zm1.326,1.472,1.2-1.082-.562-.625-1.2,1.082Zm.97,1.666c.832,1.167,1.537,2.214,2.094,3.136l-1.149.468a30.844,30.844,0,0,0-1.9-3.107Zm3.179,1.319-.7.809c-.964-1.031-1.712-1.819-2.27-2.358l.674-.752C528.464,3172.585,529.231,3173.355,530.169,3174.356Zm.666-1.531-.675.791a20.772,20.772,0,0,0-1.961-1.833l.644-.744A17.674,17.674,0,0,1,530.835,3172.825Z" transform="translate(-487.686 -3163.424)" fill="#22195b"/>
        </g>
      </g>
      <path id="Path_1400-2" data-name="Path 1400" d="M445.128,3200.287,510.7,3261.83l66.043-51.218" transform="translate(-445.127 -3147.275)" fill="none" stroke="#b4b2cc" stroke-width="1"/>
      <path id="Path_1856-2" data-name="Path 1856" d="M486.759,3225.349l30.51,30.559,52.945-39.838Z" transform="translate(-452.217 -3149.962)" fill="#fff5f3"/>
      <g id="_429-2" data-name=" 429" transform="translate(48.133 39.522)">
        <g id="Group_2260" data-name="Group 2260">
          <path id="Path_1973" data-name="Path 1973" d="M523.851,3227.882l2.7,3-11.32,10.194a10.479,10.479,0,0,1-1.8-4.217,28.874,28.874,0,0,1-.007-7.312,30.724,30.724,0,0,0,.195-5.168,4.786,4.786,0,0,0-1.113-2.579,3.03,3.03,0,0,0-2.076-1.137,3.319,3.319,0,0,0-3.186,2.922,4.211,4.211,0,0,0,1.131,2.644l-3.507,2.576q-2.115-2.925-1.643-5.453a8.154,8.154,0,0,1,2.749-4.575,7.383,7.383,0,0,1,5.129-2.185,5.939,5.939,0,0,1,4.436,2.061,7.864,7.864,0,0,1,1.543,2.534,11.858,11.858,0,0,1,.648,3.32,27.761,27.761,0,0,1-.18,4.054q-.265,2.777-.26,3.6a7.565,7.565,0,0,0,.147,1.492Z" transform="translate(-503.14 -3189.573)" fill="#22195b"/>
          <path id="Path_1974" data-name="Path 1974" d="M523.161,3203.485a6.192,6.192,0,0,1,5.4-1.7q3.507.59,7.822,5.382t4.533,8.362a6.184,6.184,0,0,1-2.263,5.161,6.487,6.487,0,0,1-5.668,1.679q-3.207-.534-7.574-5.385-4.284-4.759-4.514-8.34A6.184,6.184,0,0,1,523.161,3203.485Zm2.41,2.677a2.165,2.165,0,0,0-.709,1.314,3.368,3.368,0,0,0,.494,1.981,36.777,36.777,0,0,0,7.432,8.323,3.853,3.853,0,0,0,2.082.8,2.221,2.221,0,0,0,2.081-1.885,3.368,3.368,0,0,0-.493-1.979,36.706,36.706,0,0,0-7.422-8.313,3.932,3.932,0,0,0-2.088-.806A2.143,2.143,0,0,0,525.571,3206.162Z" transform="translate(-506.161 -3187.036)" fill="#22195b"/>
          <path id="Path_1975" data-name="Path 1975" d="M557.194,3203.762l-3.052-3.392-6.9,6.21-2.546-2.828-2.324-17.281,2.713-2.443,9.622,10.688,2.093-1.882,2.556,2.839-2.091,1.882,3.053,3.391Zm-5.609-6.23-5.184-5.759,1.311,9.247Z" transform="translate(-509.822 -3184.028)" fill="#22195b"/>
        </g>
      </g>
    </g>
  </g>
</svg>
